<svg width="226" height="46" viewBox="0 0 226 46" fill="none" xmlns="http://www.w3.org/2000/svg"><g clip-path="url(#a)"><path d="M37.577 25.91a22.078 22.078 0 0 1-.92 5.66 14.735 14.735 0 0 1-2.157 4.266c-1.718 2.272-3.796 3.388-5.195 4.145-.12.08-.96.479-4.875 2.432V25.91h13.147zM14.315 25.91v16.503C10.36 40.46 9.56 40.02 9.44 39.98c-1.399-.757-3.477-1.873-5.195-4.145a14.173 14.173 0 0 1-2.158-4.266 21.738 21.738 0 0 1-.919-5.66h13.147z" stroke="#FD0" stroke-width=".208" stroke-miterlimit="10"/><path d="M37.574 2.392H24.387v13.473h13.187V2.392zM14.316 2.392H1.13v13.473h13.187V2.392z" stroke="#000" stroke-width=".208" stroke-miterlimit="10"/><path d="M23.43 16.822V1.434h-8.153v15.386H.172v8.133h15.105v19.013A325.234 325.234 0 0 1 19.353 46l4.076-2.033V24.953h15.106v-8.131H23.428z" fill="#fff"/><path d="M15.277 1.435H.172v15.386h15.105V1.436zM15.277 24.953H.172c.08 11.042 5.754 14.23 8.791 15.865l6.314 3.149V24.953zM23.426 24.953v19.014l6.314-3.149c3.037-1.634 8.711-4.823 8.791-15.865H23.426z" fill="#504458"/><path d="M28.619 21.007l.32-.359-.4-.478-.4.478.32.359c0 .2 0 1.834-.959 2.392.253.047.513.034.76-.04.062.314.156.621.279.917.121-.297.215-.604.28-.917.25.049.505.062.759.04-.96-.598-.96-2.233-.96-2.392zM31.1 18.216l.32-.358-.4-.479-.4.479.32.358c0 .2 0 1.834-.96 2.392.253.048.514.034.76-.04.063.314.156.621.28.917.12-.296.215-.603.28-.917.25.05.505.063.759.04-1-.558-.96-2.192-.96-2.392zM33.537 21.007l.32-.359-.4-.478-.4.478.32.359c0 .2 0 1.834-.959 2.392.253.047.513.034.76-.04.062.314.156.621.279.917.121-.297.215-.604.28-.917.25.049.505.062.759.04-.96-.598-.96-2.233-.96-2.392zM36.017 18.216l.32-.358-.4-.479-.4.479.32.358c0 .2 0 1.834-.959 2.392.253.048.513.034.76-.04.063.314.156.621.28.917a5.17 5.17 0 0 0 .28-.917c.25.05.505.063.758.04-.999-.558-.959-2.192-.959-2.392zM26.142 18.216l.32-.358-.4-.479-.4.479.32.358c0 .2 0 1.834-.959 2.392.253.048.514.034.76-.04.063.314.156.621.28.917.12-.296.215-.603.28-.917.25.05.505.063.758.04-.959-.558-.959-2.192-.959-2.392zM5.322 21.007l.32-.359-.4-.478-.4.478.32.359c0 .2 0 1.834-.959 2.392.253.047.513.034.76-.04.062.314.156.621.28.917.12-.297.214-.604.279-.917.25.049.505.062.76.04-.96-.598-.96-2.233-.96-2.392zM7.806 18.216l.32-.358-.4-.479-.4.479.32.358c0 .2 0 1.834-.958 2.392.252.048.513.034.759-.04.063.314.156.621.28.917a5.17 5.17 0 0 0 .28-.917c.25.05.505.063.758.04-1.003-.558-1.003-2.192-.959-2.392zM10.236 21.007l.32-.359-.4-.478-.4.478.32.359c0 .2 0 1.834-.959 2.392.253.047.513.034.76-.04.062.314.156.621.28.917.12-.297.214-.604.279-.917.25.049.505.062.76.04-.96-.598-.96-2.233-.96-2.392zM12.717 18.216l.32-.358-.4-.479-.4.479.32.358c0 .2 0 1.834-.96 2.392.253.048.514.034.76-.04.063.314.156.621.28.917.121-.296.215-.603.28-.917.25.05.505.063.759.04-1-.558-.96-2.192-.96-2.392zM2.85 18.216l.32-.358-.4-.479-.4.479.32.358c0 .2 0 1.834-.96 2.392.253.048.514.034.76-.04.063.314.156.621.28.917a5.17 5.17 0 0 0 .28-.917c.25.05.505.063.758.04-.959-.558-.959-2.192-.959-2.392zM19.47 27.225l.32-.359-.4-.478-.4.478.32.36c0 .199 0 1.833-.958 2.391.252.048.513.034.759-.04.063.314.156.621.28.917a5.17 5.17 0 0 0 .28-.917c.25.05.505.063.759.04-1-.558-1-2.192-.96-2.392zM19.47 35.596l.32-.358-.4-.479-.4.479.32.358c0 .2 0 1.834-.958 2.392.252.048.513.034.759-.04.063.314.156.621.28.917a5.17 5.17 0 0 0 .28-.917c.25.05.505.063.759.04-1-.598-1-2.232-.96-2.392zM21.748 31.41l.32-.358-.4-.479-.4.479.32.359c0 .199 0 1.833-.96 2.391.253.048.514.034.76-.04.063.314.157.621.28.917.121-.296.215-.603.28-.917.25.05.505.063.759.04-1-.558-.96-2.192-.96-2.391zM17.154 31.41l.32-.358-.4-.479-.4.479.32.359c0 .199 0 1.833-.959 2.391.253.048.513.034.76-.04.062.314.156.621.28.917a5.17 5.17 0 0 0 .279-.917c.25.05.505.063.76.04-1-.558-.96-2.192-.96-2.391zM21.748 39.742l.32-.36-.4-.477-.4.478.32.359c0 .199 0 1.833-.96 2.391.253.048.514.034.76-.04.063.314.157.622.28.917a5.17 5.17 0 0 0 .28-.917c.25.05.505.063.759.04-1-.558-.96-2.192-.96-2.391zM17.154 39.742l.32-.36-.4-.477-.4.478.32.359c0 .199 0 1.833-.959 2.391.253.048.513.034.76-.04.062.314.156.622.28.917a5.17 5.17 0 0 0 .279-.917c.25.05.505.063.76.04-1-.558-.96-2.192-.96-2.391zM19.47 8.251l.32-.359-.4-.478-.4.478.32.36c0 .198 0 1.833-.958 2.39.252.049.513.035.759-.039.063.314.156.621.28.917.121-.296.215-.604.28-.917.25.05.505.063.759.04-1-.558-1-2.193-.96-2.392zM21.748 4.106l.32-.359-.4-.478-.4.478.32.359c0 .2 0 1.834-.96 2.392.253.047.514.034.76-.04.063.314.157.62.28.917.121-.297.215-.604.28-.917.25.049.505.062.759.04-1-.598-.96-2.233-.96-2.392zM17.154 4.106l.32-.359-.4-.478-.4.478.32.359c0 .2 0 1.834-.959 2.392.253.047.513.034.76-.04.062.314.156.62.28.917.12-.297.214-.604.279-.917.25.049.505.062.76.04-1-.598-.96-2.233-.96-2.392zM21.748 12.437l.32-.359-.4-.478-.4.478.32.359c0 .199 0 1.833-.96 2.391.253.048.514.035.76-.04.063.314.157.622.28.917.121-.296.215-.603.28-.916.25.049.505.062.759.04-1-.599-.96-2.193-.96-2.392zM11.997 9.009l.04.199c.028.136.068.27.12.399.16.717.28.916.64.916a.489.489 0 0 0 .439-.279l.08-.239c0-.04.08-.08.12-.08.12 0 .2.16.2.479 0 .08.04.319.08.637.03.185.044.372.04.559a.716.716 0 0 1-.08.398c.044.264.07.53.08.798.021.262-.034.525-.16.757.044.156.07.316.08.478.004.147-.01.295-.04.439-.04.319-.08.398-.08.438a.223.223 0 0 0 .04.16.313.313 0 0 1 .04.159c0 .04 0 .08-.04.08l-.24-.12-.28-.16a.655.655 0 0 1-.28-.238c-.24.239-.32.239-.959.438a.97.97 0 0 0-.28.12l-.16.08c-.12 0-.16-.16-.16-.559.001-.241.028-.482.08-.717a1.531 1.531 0 0 0-.439-.12.85.85 0 0 0-.2.04h-.04c-.04 0-.08-.04-.08-.12a1.39 1.39 0 0 1 .08-.279l.12-.319a.841.841 0 0 1 .32-.358c.094-.085.202-.153.32-.2l.48-.08c.279-.04.439-.199.439-.398 0-.2-.12-.319-.4-.399l-.56-.199a1.81 1.81 0 0 1-.519-.239c-.32-.2-.36-.2-.44-.2-.08 0-.16.08-.16.24a.362.362 0 0 0 .332.399h.028a.135.135 0 0 0 .12-.04.398.398 0 0 1 .12-.04.092.092 0 0 1 .08.08v.04l-.04.199c-.084.275-.22.532-.4.757l-.12.16a1.777 1.777 0 0 1-.679.996.6.6 0 0 0-.16.12.67.67 0 0 1-.12.16c-.04.039-.12.158-.24.318a1.933 1.933 0 0 1-.319.279c-.16.12-.24.2-.24.24l-.12.198c-.04.04-.08.08-.12.08-.12 0-.2-.12-.28-.319-.08-.199-.08-.199-.199-.199a.8.8 0 0 0-.24.04l-.16.04h-.475a3.599 3.599 0 0 0-.72.12.188.188 0 0 1-.12.04c-.04 0-.04 0-.08-.08a.135.135 0 0 1-.04-.12c.044-.374.182-.73.4-1.037a1.23 1.23 0 0 1 .36-.398.59.59 0 0 0-.36-.439l-.2-.08c-.04 0-.04-.04-.04-.08 0-.039.12-.159.28-.238.224-.116.469-.184.72-.2.24.013.467.112.639.28.36.279.44.318.6.318a.529.529 0 0 0 .519-.518 1.219 1.219 0 0 0-.32-.678 1.652 1.652 0 0 1-.48-1.036c.005-.209.06-.414.16-.598l.12-.2a.164.164 0 0 0 .04-.119c0-.08-.08-.16-.24-.16a2.77 2.77 0 0 0-.918.32.4.4 0 0 0-.24.279.12.12 0 0 0 .04.08l.16.08.04.04a.14.14 0 0 0-.04.079l-.24.319c-.151.205-.325.393-.52.558a.315.315 0 0 0-.12.12c-.035.069-.075.135-.12.199a1.82 1.82 0 0 1-.559.558c-.08.08-.16.12-.16.16 0 .039-.04.079-.12.159-.046.096-.1.19-.16.279a1.82 1.82 0 0 1-.32.398l-.359.359c-.174.238-.296.51-.36.797-.08.28-.16.439-.2.439-.04 0-.04-.04-.12-.08-.239-.28-.479-.478-.599-.478-.04 0-.08.04-.16.08a.73.73 0 0 1-.36.119l-.479.08a1.068 1.068 0 0 0-.719.398c-.04.04-.08.08-.12.08-.04 0-.08-.08-.08-.16v-.119l.08-.359c.057-.285.137-.565.24-.837l.2-.399a.672.672 0 0 0 .08-.199.733.733 0 0 0-.68-.598c-.08 0-.12-.04-.12-.08.06-.12.14-.228.24-.318.229-.184.507-.295.8-.32.195.013.386.068.559.16l.28.12c.088.04.183.067.28.08.28 0 .599-.28.958-.877.13-.19.212-.41.24-.638 0-.32-.16-.518-.4-.518a.8.8 0 0 0-.559.239.637.637 0 0 0-.2.398v.2c0 .12-.04.199-.12.199-.08 0-.28-.16-.799-.797a1.64 1.64 0 0 1-.48-1.116c-.439-.558-.559-.798-.559-1.196v-.28a1.152 1.152 0 0 1-.4-.876.477.477 0 0 1 .08-.32 1.258 1.258 0 0 1-.24-.477l-.08-.28a1.401 1.401 0 0 0-.199-.478c-.12-.16-.12-.199-.12-.239 0-.16.12-.2.56-.319a2.235 2.235 0 0 0-.04-.279c-.003-.108.01-.215.04-.319l.08-.478c.027-.131.04-.265.04-.399-.001-.136-.028-.272-.08-.398a.669.669 0 0 0-.12-.28l-.08-.159a.088.088 0 0 1 .08-.08c.3.097.573.26.799.479.72.598.88.837.999 1.594a.54.54 0 0 0 .04.24 1.07 1.07 0 0 1 .52.916 1.667 1.667 0 0 1-.24.837l-.24.399a.772.772 0 0 0-.12.438c.01.27.093.531.24.758.2.359.36.478.56.478.319 0 .639-.598.639-1.236v-.318a1.793 1.793 0 0 1 .04-.439c.025-.118.039-.238.04-.359V5.7a.363.363 0 0 0-.12-.239l-.28-.319a2.1 2.1 0 0 1-.64-1.156.64.64 0 0 1 .608-.674h.032c.095-.002.19.011.28.04v-.08c0-.557.12-.996.28-.996h.08l.24.2.279.159.08.08c0-.16 0-.16.16-.36.057-.076.11-.156.16-.238a.355.355 0 0 0 .12-.2c.04-.04.04-.08.08-.12.04-.04.08-.079.12-.079.039 0 .079.04.119.2.04.08.04.119.28.318l.16.16c.04.04.04.12.12.239 0 .04.04.04.04.12.069-.09.15-.17.24-.24l.199-.12c.08-.04.12-.08.16-.08l.08.08c.04.04.04.12.12.2.095.146.163.308.2.478v.28c.439.119.559.358.559.797a1.593 1.593 0 0 1-.52 1.076c-.24.279-.24.319-.24.478 0 .957.68 1.475 1.839 1.515h.839c.476 0 .95.08 1.399.239.305.13.628.21.959.24a.232.232 0 0 0 .16-.04c.04-.04.08-.08.08-.12 0-.16-.32-.32-1.36-.598-2.117-.598-2.996-1.435-2.996-2.83a1.95 1.95 0 0 1 1.244-1.784c.24-.093.496-.139.754-.134h.084c.433.005.864.072 1.278.2l.52.199a.605.605 0 0 0 .28.04c.16 0 .28-.16.28-.439 0-.16.04-.199.16-.199s.359.2.599.478c.187.246.31.533.36.837a.752.752 0 0 1-.44.678 1.233 1.233 0 0 1-1.12.638c-.359 0-.878-.2-1.758-.718-.32-.159-.439-.239-.599-.239-.24 0-.36.12-.36.32 0 .198.16.318.52.438.349.084.667.263.92.518.485.068.95.246 1.358.518 1.119.359 1.838 1.116 1.838 1.993a1.385 1.385 0 0 1-1.29 1.475h-.109a.672.672 0 0 1-.679.08" fill="#160620"/><path d="M13.277 14.63a1.073 1.073 0 0 1-.04-.32v-.12l.04-.199v-.16c0-.136-.027-.271-.08-.398l-.16-.199-.12-.24c0-.039-.04-.079-.04-.119a.087.087 0 0 1 .08-.08c.04 0 .04 0 .16.08a.135.135 0 0 0 .12.04c.08 0 .12-.12.12-.359a.795.795 0 0 0-.08-.438l-.2-.2-.16-.159c-.04-.04-.08-.08-.08-.12 0-.04.04-.08.12-.08.097.015.191.042.28.08h.04c.04 0 .08-.04.08-.119v-.04l-.04-.279-.08-.279c-.04-.08-.04-.12-.08-.12h-.04l-.32.08h-.04a1.104 1.104 0 0 1-.998-.797l-.24-.837a1.994 1.994 0 0 0-.6-.797.675.675 0 0 0-.24-.12l-.239-.04a.088.088 0 0 1-.08-.08c0-.04.04-.08.16-.08l.44.04a3.3 3.3 0 0 1 .679.16c.282.109.578.176.88.2a.922.922 0 0 0 1.03-.798v-.127a1.555 1.555 0 0 0-.52-1.117 1.2 1.2 0 0 0-.439-.279.088.088 0 0 0-.08.08v.16c0 .08-.04.12-.08.12s-.12-.08-.24-.24a1.195 1.195 0 0 0-1.038-.797c-.08 0-.12.04-.12.08s.04.08.08.199l.12.239a.325.325 0 0 1 .04.12l-.04.04a.264.264 0 0 1-.2-.12l-.2-.2-.16-.239a1.198 1.198 0 0 0-.52-.438 2.647 2.647 0 0 0-.32-.16.252.252 0 0 0-.16-.04.088.088 0 0 0-.079.08.135.135 0 0 0 .04.12c.08.16.12.2.12.24a.088.088 0 0 1-.08.079c-.08 0-.32-.2-.48-.479a1.246 1.246 0 0 1-.24-.717.92.92 0 0 1 .884-.957h.076c.342.022.672.132.959.32l.6.358c.217.135.463.217.718.24.123-.012.244-.039.36-.08a.28.28 0 0 0 .16-.08c.04-.04.08-.04.08-.08s0-.04-.04-.04l-.08-.04-.28-.04a.872.872 0 0 1-.36-.12l-.639-.318c-.2-.12-.36-.2-.44-.24-.08-.04-.16-.079-.16-.119 0-.04 0-.04.04-.04a.164.164 0 0 1 .12.04.928.928 0 0 0 .48.16l.56.199c.273.083.554.136.839.16a.444.444 0 0 0 .44-.44.94.94 0 0 0-.24-.557l-.08-.08c-.04 0-.08.04-.08.12v.12l.04.159a.263.263 0 0 1-.24.279.4.4 0 0 1-.2-.04l-.839-.28a3.88 3.88 0 0 0-1.359-.278 1.646 1.646 0 0 0-1.585.902 1.635 1.635 0 0 0-.169.616.51.51 0 0 0 0 .076c0 .997.72 1.674 2.478 2.272 1.758.598 1.998.758 1.998 1.196a.562.562 0 0 1-.56.478.801.801 0 0 1-.32-.04c-.04 0-.36-.08-.879-.199a6.967 6.967 0 0 0-1.598-.199c-1.239 0-1.958.24-2.558.797-.16.16-.2.16-.36.16H6.44a.4.4 0 0 0-.36.239c-.08.111-.147.232-.2.359a.204.204 0 0 1-.16.08c-.12 0-.2-.08-.319-.4a1.467 1.467 0 0 0-.28-.398l-.24-.24-.08-.079a.135.135 0 0 1 .04-.12c.078-.099.145-.205.2-.318.04-.16.04-.16.12-.16.08 0 .12.08.12.36.013.126.054.248.12.358l.16.319c0 .04.08.08.12.08.12 0 .32-.32.36-.638.04-.32.08-.36.12-.36.04 0 .04 0 .04.04l.12.24c.039.076.093.144.159.2.08.04.12.079.16.079.12 0 .12-.08.16-.319v-.12l-.04-.199v-.12c0-.08.04-.119.08-.119s.08 0 .08.04l.12.12a.331.331 0 0 0 .24.119c.12 0 .16-.04.16-.12 0-.08-.04-.12-.12-.279l-.08-.159c-.12-.2-.2-.28-.28-.28h-.12l-.16.08c-.04 0-.08.04-.12.04a.036.036 0 0 1-.04-.04c.032-.183.1-.36.2-.518.136-.314.204-.654.2-.996.04-.678.12-1.116.24-1.116s.08.04.08.2v.278a.481.481 0 0 0 .04.2c.12 0 .239-.16.359-.439.039-.09.065-.183.08-.279v-.04l-.24-.478-.24-.08a.12.12 0 0 1-.08-.04V3.38l-.04-.199-.04-.12-.08-.16a1.462 1.462 0 0 0-.519.4c-.12.12-.16.199-.2.199a.088.088 0 0 1-.08-.08.434.434 0 0 1 .04-.2v-.079a.843.843 0 0 0-.44-.717l-.08.12-.08.119-.159.2a1.337 1.337 0 0 0-.12.238c0 .04-.04.12-.04.16v.08c0 .119 0 .119-.04.119h-.04l-.08-.12-.16-.159-.2-.16-.12-.08a.135.135 0 0 0-.04.12.653.653 0 0 0-.08.2v.438c0 .12-.04.16-.079.16-.04 0-.08-.04-.16-.08a.32.32 0 0 0-.2-.04c-.2 0-.32.12-.32.359 0 .24.069.476.2.677l.16.2c.04.04.12.12.12.08l.04-.28-.04-.199v-.08c0-.08.04-.12.08-.12s.12.08.16.28l.12.478.12.598c.038.177.092.35.16.518.12.24.16.399.2.439.16.2.16.2.16.239a.04.04 0 0 1-.04.04.136.136 0 0 1-.12-.04c-.04-.04-.08-.04-.16-.04h-.12c-.2 0-.24.16-.24 1.036.003.528.084 1.051.24 1.555l.28.678c.043.1.07.209.08.319 0 .916-1.24 2.391-2.598 3.069a1.027 1.027 0 0 0-.72 1.036v.16c.126-.1.28-.156.44-.16.4-.08.44-.16.52-.319l.04-.159c0-.08.04-.08.36-.24a.435.435 0 0 0 .199-.159c.08-.12.12-.16.16-.16.04 0 .04 0 .04.04v.04l-.12.36v.08a.72.72 0 0 0 .44.637c.008-.184.063-.362.16-.518l.24-.359a.963.963 0 0 0 .119-.558 1.233 1.233 0 0 0-.04-.399v-.12c0-.079.04-.119.08-.119s.08 0 .08.04l.04.24c0 .039.08.079.12.079.12 0 .28-.16.44-.439a.53.53 0 0 0 .08-.319v-.159l-.04-.2v-.04c0-.079.04-.159.12-.159.079 0 .04 0 .04.04l.079.28c.04.079.08.159.16.159s.24-.16.32-.32a1.11 1.11 0 0 0 .12-.517c0-.28.04-.36.12-.36.08 0 .04 0 .08.04l.04.16c0 .08.04.12.08.12a.774.774 0 0 0 .279-.32.163.163 0 0 0 .04-.119.222.222 0 0 0-.12-.16c-.12-.119-.16-.119-.16-.278a.736.736 0 0 1 .16-.439c.07-.097.124-.204.16-.318.16-.32.2-.4.28-.4.08 0 .08.04.08.12a.163.163 0 0 1-.04.12.279.279 0 0 0-.04.16.088.088 0 0 0 .08.08 1.41 1.41 0 0 0 .24-.08 1.6 1.6 0 0 1 .359-.16l.44-.16a.757.757 0 0 1 .479 0 .95.95 0 0 0 .28.04.188.188 0 0 0 .2-.17V9.16a.896.896 0 0 0-.2-.398c-.04-.04-.08-.08-.08-.12v-.04c0-.04.04-.04.08-.04.2.132.364.31.48.518 1.118 1.714 1.478 2.153 2.237 2.392.76.24.96.399.96.837-.041.338-.18.657-.4.917-.56.797-.68 1.076-.68 1.594v.08c.08-.04.12-.04.16-.08.12-.04.16-.08.2-.08l.32-.079c.08 0 .2-.16.2-.279v-.04l-.04-.279v-.04a.434.434 0 0 1 .12-.279c.04 0 .04-.04.08-.04s.079.04.119.08l.2.439c.04.159.12.279.4.398M2.966 5.342c-.08 0-.16.08-.16.239l-.04.239a1.452 1.452 0 0 0-.04.319c0 .2.04.319.12.319.08 0 .2-.16.28-.32a.796.796 0 0 0 .04-.278c0-.08-.04-.2-.04-.28-.04-.159-.12-.238-.16-.238" fill="#A7A1AB"/><path d="M1.885 3.468l.16.16c.333.415.49.944.44 1.474a6.364 6.364 0 0 1-.04.678c0 .2-.04.399-.04.518 0 1.595.52 2.79 1.198 2.79.2 0 .36-.12.56-.398.04-.04.08-.08.12-.08.04 0 .08.04.08.12l.04.279.04.239.04.279.04.24v.039c0 .08-.04.12-.08.12l-.24.04a.736.736 0 0 0-.36.159c-.2.12-.32.2-.32.24l-.16.278a.088.088 0 0 1-.08.08c-.08 0-.199-.12-.319-.359a1.623 1.623 0 0 1-.2-.399c0-.04.04-.04.12-.04h.44a.088.088 0 0 0 .08-.08.167.167 0 0 0-.04-.079l-.56-.239a1.161 1.161 0 0 1-.44-.438 1.99 1.99 0 0 1-.24-.559.108.108 0 0 1 .093-.12h.028c.04 0 .04 0 .08.04a.224.224 0 0 0 .16.04.088.088 0 0 0 .08-.08c0-.039-.04-.079-.12-.119a1.597 1.597 0 0 1-.76-1.076c0-.08.04-.16.08-.16h.08l.16.04c.08 0 .12-.04.12-.08s-.04-.079-.12-.119a2.037 2.037 0 0 0-.2-.12.375.375 0 0 1-.16-.199 2.86 2.86 0 0 1-.2-.398l-.16-.36a1.652 1.652 0 0 1-.12-.198.482.482 0 0 1-.08-.12.8.8 0 0 1 .4-.12c.16 0 .28.12.4.439.08.2.16.319.2.319.04 0 .04-.04.04-.16a1.504 1.504 0 0 0-.04-.398.728.728 0 0 1-.04-.28l-.04-.159-.16-.08c-.04 0-.08-.08-.12-.12a.518.518 0 0 1-.12-.278.549.549 0 0 1 .04-.24c.084-.272.137-.552.16-.836v-.12h.08zM3.407 12.716a2.137 2.137 0 0 1-.36-.08.543.543 0 0 1-.24-.12 1.436 1.436 0 0 0-.479-.119.849.849 0 0 0-.52.2l.12.079.24.16.24.199c.08.04.12.08.2.08a1.077 1.077 0 0 0 .799-.4M8.36 15.028a.932.932 0 0 1 .24-.32c.36-.318.52-.517.52-.717v-.279c0-.16.04-.199.119-.199.08 0 .08 0 .08.04l.08.16c0 .04.04.04.12.04.08 0 .12-.04.2-.16l.12-.16a.295.295 0 0 0 .08-.239.314.314 0 0 0-.04-.16c0-.04-.04-.08-.08-.199a.398.398 0 0 1-.04-.199.107.107 0 0 1 .091-.12h.028c.04 0 .08 0 .08.04l.12.12c.04.04.04.04.08.04a.128.128 0 0 0 .12-.12l.12-.2a.164.164 0 0 0 .04-.119c0-.04-.04-.08-.12-.12l-.16-.079a.997.997 0 0 1-.4-.837.135.135 0 0 1 .04-.12l.08-.199a.374.374 0 0 0 .04-.2.796.796 0 0 0-.12-.398c-.12-.16-.16-.24-.16-.279-.08-.2-.12-.24-.16-.24h-.08l-.08.04-.159.08-.16.2-.16.08c-.12.04-.2.279-.2.478 0 .319.04.438.48 1.196.14.218.235.462.28.717 0 .518-.48.877-1.399 1.116l-.6.16a1.075 1.075 0 0 0-.798.917.969.969 0 0 1 .559-.12h.24a.296.296 0 0 0 .32-.16.995.995 0 0 1 .44-.358l.199-.08.16-.08h.04c.04 0 .08 0 .08.04a.354.354 0 0 1-.12.2.626.626 0 0 0-.2.478c-.12.12-.08.16.04.319" fill="#A7A1AB"/><path d="M6.723 13.035c.15.099.285.22.4.358.12.16.16.2.279.2a.4.4 0 0 0 .2-.04l.12-.04c.2-.04.28-.08.28-.12 0-.04-.04-.08-.08-.12l-.16-.119-.16-.12a.732.732 0 0 0-.44-.159.96.96 0 0 0-.44.16M10.879 13.752h.36a.564.564 0 0 0 .559-.478c0-.08-.08-.12-.24-.12-.32-.08-.52.12-.68.598" fill="#A7A1AB"/><path d="M6.125 4.903c0 .12.08.2.12.2.04 0 .12-.16.24-.36.17-.224.293-.482.359-.757a.092.092 0 0 0-.08-.08l-.16.12c-.14.091-.287.171-.44.24-.16.04-.2.119-.2.199v.12l.08.198.08.12zM5.321 4.225l.2.12c.04.04.08.08.08.12v.08a.656.656 0 0 0 0 .278.215.215 0 0 1-.2.24h-.04c-.04 0-.04-.04-.12-.16l-.28-.319a1.222 1.222 0 0 1-.2-.558v-.04c0-.08.04-.08.08-.08s.08.04.16.08l.32.24zM5.842 5.58h-.24a.5.5 0 0 0-.16-.079.32.32 0 0 0-.2-.04.188.188 0 0 0-.199.16c.014.194.069.384.16.558l.16.398c.16.359.28.518.48.518.199 0 .199-.16.319-.438.24-.638.4-.718.4-.957 0-.16-.04-.199-.16-.199l-.12-.04-.2.12h-.24zM30.023 4.903c0 .12.08.2.12.2.04 0 .12-.2.28-.4a1.69 1.69 0 0 0 .32-.717.091.091 0 0 0-.08-.08l-.16.12c-.13.106-.28.188-.44.24-.16.04-.2.119-.2.199v.12l.12.238.04.08zM28.9 3.946a.336.336 0 0 0-.16-.08.088.088 0 0 0-.08.08v.04a1.1 1.1 0 0 0 .04.2c.037.126.09.246.16.358l.2.319a.399.399 0 0 0 .28.16.14.14 0 0 0 .08-.04l.04-.24.08-.239v-.04a.228.228 0 0 0-.08-.159l-.2-.12-.36-.239z" fill="#131108"/><path d="M12.235 33.125c.095.186.149.39.16.598l.04.518c.04.518.2.797.52.797.099.004.197-.024.28-.08l.159-.16h.04c.08 0 .12.04.12.16v.2c0 .2.012.4.04.597.03.171.044.345.04.519.02.22-.022.44-.12.637.09.244.145.499.16.758a.994.994 0 0 1-.16.638c.034.144.06.29.08.438.003.16-.01.32-.04.479a1.59 1.59 0 0 0-.04.597v.04c0 .08-.04.12-.08.12a.21.21 0 0 1-.16-.12c-.08-.12-.12-.12-.2-.12-.08 0-.12.04-.24.44a2.046 2.046 0 0 1-.32.477c-.09.113-.17.233-.239.36-.04.159-.08.238-.08.278 0 .04-.04.04-.08.08-.2 0-.44-.438-.72-1.315-.079-.24-.159-.36-.279-.36a.337.337 0 0 0-.24.16l-.08.16c0 .04-.04.04-.08.04-.12 0-.24-.2-.36-.439-.079-.19-.12-.392-.119-.598 0-.398.28-.717 1.199-1.196a1.132 1.132 0 0 0 .344-1.558 1.14 1.14 0 0 0-.304-.315 1.164 1.164 0 0 0-.56-.28.19.19 0 0 0-.18.105.187.187 0 0 0-.02.071v.024c0 .12.08.2.24.24.2.079.28.159.28.238-.043.169-.11.33-.2.479-.1.173-.236.322-.4.438a1.326 1.326 0 0 1-.599.837 1.73 1.73 0 0 1-.24.479l-.28.358a3.38 3.38 0 0 0-.2.399c-.039.2-.039.24-.119.24a1.377 1.377 0 0 1-.52-.44.585.585 0 0 1-.16-.438c-.12.12-.16.12-.439.16a2.616 2.616 0 0 0-.36.08.671.671 0 0 1-.28.119c-.04 0-.08-.04-.08-.12v-.279a1.99 1.99 0 0 1 .4-1.156 1.092 1.092 0 0 0-.639-.318c-.08 0-.08 0-.08-.04a.442.442 0 0 1 .12-.24.687.687 0 0 1 .24-.239c.216-.172.482-.27.76-.279.247.032.49.1.718.2.1.046.21.073.32.08a.21.21 0 0 0 .24-.18v-.06a3.94 3.94 0 0 0-.36-1.196 2.649 2.649 0 0 1-.24-.837 1.193 1.193 0 0 1 .48-1.036.4.4 0 0 0-.28-.08.933.933 0 0 0-.4.12c-.2.12-.28.199-.28.279 0 .08.04.08.12.12a.184.184 0 0 1 .12.199 1.492 1.492 0 0 1-.639.996 1.159 1.159 0 0 1-.68.917c-.032.222-.13.43-.279.598-.212.26-.374.558-.48.877-.04.12-.08.2-.12.2a.584.584 0 0 1-.279-.24 2.27 2.27 0 0 1-.2-.24 2.308 2.308 0 0 1-.16-.398.356.356 0 0 1-.2.04h-.32a1.787 1.787 0 0 0-.718.16.136.136 0 0 1-.12.04c-.08 0-.16-.16-.16-.4a1.99 1.99 0 0 1 .44-1.275.627.627 0 0 1-.24-.239c-.04-.04-.08-.08-.12-.08l-.16-.08c-.04-.04-.08-.04-.08-.08.11-.153.245-.288.4-.398a1.2 1.2 0 0 1 .639-.239c.2 0 .32.04.6.28.2.159.32.238.399.238.08 0 .12-.04.2-.12a.319.319 0 0 0 .08-.199 1.471 1.471 0 0 0-.6-.877 1.426 1.426 0 0 0-.759-.239.8.8 0 0 0-.8.479l-.159.279c-.04.08-.08.12-.12.12-.08 0-.12-.04-.4-.36l-.32-.398a.916.916 0 0 1-.199-.319c-.04-.08-.04-.16-.08-.16l-.12-.12a1.955 1.955 0 0 1-.56-1.075c0-.04-.04-.08-.04-.16a2.157 2.157 0 0 1-.519-1.275.279.279 0 0 1 .04-.16c-.2-.2-.2-.239-.36-.717a3.033 3.033 0 0 0-.28-.678.104.104 0 0 1-.04-.08c0-.08.12-.12.28-.16a.938.938 0 0 1 .24-.039h.24v-.359a1.59 1.59 0 0 1 .08-.598.796.796 0 0 0 .04-.279.998.998 0 0 0-.04-.239c0-.068-.024-.131-.04-.2-.016-.067-.04-.079-.04-.119a.088.088 0 0 1 .08-.08.316.316 0 0 1 .16.04c.24.12.4.24.56.32.402.288.686.713.799 1.195v.12a.84.84 0 0 1-.04.2c.014.07.04.137.08.198l.16.2c.116.149.185.33.2.518 0 .12-.04.16-.24.478a.943.943 0 0 0-.2.558c.007.283.09.558.24.798.16.279.32.398.479.398.28 0 .4-.24.44-.917.016-.321.056-.64.12-.956v-.16c0-.08-.04-.12-.12-.239l-.4-.438c-.36-.439-.48-.638-.48-.957a.553.553 0 0 1 .524-.598h.212v-.08c.015-.122.042-.242.08-.359a.956.956 0 0 1 .24-.478c.035.032.076.06.12.08.04 0 .08.04.239.08.084.031.164.071.24.12.05-.154.118-.3.2-.44a1.72 1.72 0 0 1 .4-.398c.04 0 .12.04.199.16l.24.239c.056.075.112.16.16.239l.04.12c.08-.04.12-.08.16-.08.08-.08.16-.08.2-.12l.239-.12a.482.482 0 0 0 .12-.08c.04 0 .08.08.16.519.06.18.087.369.08.558a.628.628 0 0 1 .607.638v.08a1.854 1.854 0 0 1-.64 1.275.4.4 0 0 0-.16.319c0 1.116.4 1.475 1.8 1.634a8.368 8.368 0 0 1 2.157.479c.35.121.711.201 1.079.239.24 0 .36-.08.36-.24 0-.238-.16-.318-1.2-.517-2.357-.479-3.316-1.316-3.316-2.87a1.903 1.903 0 0 1 .524-1.36c.348-.367.828-.58 1.334-.594h.1a3.36 3.36 0 0 1 1.639.558c.639.36.759.439.919.439.16 0 .24-.12.24-.399 0-.16.04-.279.16-.279s.239.12.399.28a.963.963 0 0 1 .28.717.899.899 0 0 1-.72.916l-.12.12a1.086 1.086 0 0 1-.919.399 2.187 2.187 0 0 1-1.119-.36l-.6-.438a1.096 1.096 0 0 0-.638-.278.36.36 0 0 0-.4.398.581.581 0 0 0 .44.558l.559.2c.188.071.376.15.56.239a.93.93 0 0 1 .28-.04c.377-.005.75.092 1.078.279a.676.676 0 0 1 .24.12l.32.08a1.954 1.954 0 0 1 1.318 1.793 1.387 1.387 0 0 1-.776 1.339c-.165.08-.344.128-.527.14a1.317 1.317 0 0 1-.215 0l-.344-.004z" fill="#160620"/><path d="M12.041 40.738l.08-.16.2-.199a.932.932 0 0 0 .24-.677 1.503 1.503 0 0 0-.08-.399.686.686 0 0 1-.04-.239.178.178 0 0 1 .12-.16.092.092 0 0 1 .08.08l.2.2a.528.528 0 0 0 .32.199v-.359a1.64 1.64 0 0 0-.28-.877c-.12-.12-.16-.2-.16-.239a.088.088 0 0 1 .08-.08.044.044 0 0 1 .04.04c.068.06.15.1.24.12.08 0 .12-.16.12-.32a1.242 1.242 0 0 0-.28-.717c-.08-.08-.12-.16-.16-.199-.04-.04-.04-.04-.04-.08s.04-.08.12-.08c.08 0 .08 0 .16.08a.104.104 0 0 0 .08.04c.08 0 .12-.16.12-.518v-.399c0-.279-.04-.319-.16-.319h-.12c-.64 0-.92-.398-1.08-1.474-.12-.758-.399-1.316-.759-1.435-.2-.08-.28-.12-.28-.16 0-.04.04-.08.12-.08a.998.998 0 0 1 .24.08c.417.184.864.292 1.319.319a1.045 1.045 0 0 0 1.079-1.005v-.031a1.663 1.663 0 0 0-.6-1.236 1.475 1.475 0 0 0-.32-.2h-.04l-.079.04.04.2.04.12v.04c0 .04-.04.04-.08.04s-.08 0-.08-.04l-.24-.36a1.282 1.282 0 0 0-.879-.518c-.12 0-.16.04-.16.12a.28.28 0 0 0 .08.16.37.37 0 0 1 .12.199v.04a.04.04 0 0 1-.04.04c-.08 0-.08-.04-.36-.36a1.56 1.56 0 0 0-.958-.518c-.04 0-.08 0-.08.04l-.04.04c0 .04.04.08.08.16s.16.159.16.199c0 .04-.04.04-.08.04a2.443 2.443 0 0 1-.56-.359 1.381 1.381 0 0 1-.68-1.156.844.844 0 0 1 .8-.877 1.4 1.4 0 0 1 .839.319l.64.478c.291.208.64.32.998.32a.502.502 0 0 0 .24-.04l.08-.08a.188.188 0 0 0-.12-.04.872.872 0 0 1-.52-.24l-.639-.478a4.637 4.637 0 0 0-.52-.359c-.319-.159-.399-.199-.399-.239a.14.14 0 0 1 .08-.04.163.163 0 0 1 .12.04l.32.16c.182.09.356.197.52.319.679.438 1.038.598 1.438.598a.644.644 0 0 0 .68-.602v-.036a.549.549 0 0 0-.04-.24l-.08-.119-.08-.08-.04.04-.04.28a.14.14 0 0 1-.04.079c-.04.04-.04.08-.08.12a.34.34 0 0 1-.24.08c-.2 0-.44-.12-1.04-.48a3.065 3.065 0 0 0-1.598-.597 1.692 1.692 0 0 0-1.678 1.674c0 1.276.8 1.874 3.237 2.392.919.2 1.359.478 1.359.877 0 .398-.32.598-.8.598a.84.84 0 0 1-.36-.04 12.367 12.367 0 0 1-1.318-.359 6.595 6.595 0 0 0-1.718-.239c-.96 0-1.599.279-2.038.917a.315.315 0 0 1-.12.12.135.135 0 0 1-.12-.04l-.16-.16a1.025 1.025 0 0 0-.48-.16.436.436 0 0 0-.28.12.482.482 0 0 0-.12.08c-.08 0-.199-.16-.319-.359a1.802 1.802 0 0 1-.2-.877c0-.12.04-.2.08-.2s.08.04.08.12l.12.36c.04.199.16.358.28.358.04 0 .12-.04.2-.16a.912.912 0 0 0 .12-.199c.08-.239.08-.279.16-.279s.12.04.16.28c.013.07.04.138.08.199.04.08.119.159.159.239.04.08.08.08.12.08.12 0 .2-.2.2-.4v-.278c0-.08 0-.12.08-.12s.04 0 .08.08a.376.376 0 0 0 .2.16.585.585 0 0 0 .2.08c.04 0 .079-.04.119-.08a.163.163 0 0 0 .04-.12c0-.04-.04-.08-.2-.24a1.195 1.195 0 0 1-.24-.518c-.04-.12-.08-.159-.12-.159a.14.14 0 0 0-.08.04l-.16.08-.12.04h-.04a.088.088 0 0 1-.079-.08c.058-.121.14-.23.24-.32a.398.398 0 0 0 .16-.358c0-.2.04-.399.08-.399l.04-.438c.028-.3.095-.595.2-.877a.14.14 0 0 1 .04-.08c.04 0 .08.08.08.2v.199c0 .16.04.24.08.24.039 0 .119-.08.159-.24l.12-.28a.54.54 0 0 0 .04-.238.398.398 0 0 0-.356-.439h-.084a.14.14 0 0 0-.08.04c-.08 0-.12-.08-.12-.16v-.438l-.04-.279v-.12l-.12.08-.16.12-.2.16-.159.159a.113.113 0 0 1-.08.04c-.08 0-.12-.04-.12-.24v-.04c0-.159-.08-.278-.32-.597l-.08-.08-.04.08-.16.239-.159.359-.04.239a.179.179 0 0 1-.04.12c-.04 0-.08-.04-.12-.08a.798.798 0 0 0-.56-.36l-.04.08c-.04.16-.08.24-.08.28v.438c0 .08-.04.12-.08.12l-.079-.08c-.04-.04-.08-.04-.16-.04-.24 0-.4.12-.4.319 0 .2.04.279.28.638.12.16.24.279.28.279.04 0 .04-.08.04-.2l-.04-.159a.398.398 0 0 1-.04-.2c0-.079.04-.119.08-.119.12 0 .24.319.28.797l.04.479c.014.182.069.359.16.518.08.176.187.337.32.478.12.08.199.16.199.2a.088.088 0 0 1-.08.08 1.887 1.887 0 0 0-.24-.08h-.12c-.24 0-.36.159-.36.597.04.62.311 1.204.76 1.635l.6.478c.28.231.466.558.519.917 0 .359-.4.757-1.119.996l-.44.16c-.32.12-.48.319-.599.957a1.56 1.56 0 0 1 .36-.08h.24a.268.268 0 0 0 .28-.24v-.119c0-.04.04-.08.12-.12a.433.433 0 0 0 .159-.08l.16-.119c.04 0 .04-.04.08-.04a.093.093 0 0 1 .08.08.163.163 0 0 1-.04.12c-.05.14-.077.289-.08.438-.022.255.05.51.2.718a.398.398 0 0 1 .04-.16c.052-.127.119-.247.2-.359.177-.231.287-.507.319-.797v-.04l-.04-.279a.279.279 0 0 1 .08-.16c.04-.039.04-.039.08-.039s.08.04.12.12c.02.043.047.084.08.12.04 0 .12-.12.2-.24.038-.09.065-.183.08-.279a.25.25 0 0 0-.04-.16.279.279 0 0 1-.04-.159c0-.04 0-.04.04-.08s.04-.04.08-.04.04 0 .08.04l.12.08a.136.136 0 0 0 .119.04c.04 0 .12-.04.2-.16.089-.105.156-.227.2-.358 0-.04-.04-.04-.08-.12a.998.998 0 0 1-.44-.678.434.434 0 0 1 .04-.199l.12-.359c.08-.159.08-.279.12-.279h.04a.092.092 0 0 1 .08.08.314.314 0 0 1-.04.16.549.549 0 0 0-.04.239c0 .08.04.16.12.16a.357.357 0 0 0 .2-.04c.277-.13.574-.21.879-.24.172.004.339.06.48.16a.136.136 0 0 0 .12.04c.039 0 .039 0 .079-.04s.04-.04.04-.08a.334.334 0 0 0-.08-.16.215.215 0 0 1-.08-.199.088.088 0 0 1 .08-.08c.2 0 .52.638.8 1.635.239.797.319.877 1.078 1.315.64.359.88.718.88 1.316a7.77 7.77 0 0 1-.48 2.272 1.91 1.91 0 0 0-.16.677c.02.203.06.403.12.598.04.16.08.28.08.28.24.159.28.238.32.318" fill="#A7A1AB"/><path d="M9.04 38.944c.08-.159.12-.199.24-.438.148-.184.245-.404.28-.638v-.2c0-.198.04-.278.12-.278.08 0 .04 0 .08.04l.08.12c0 .04.04.04.08.04a.224.224 0 0 0 .16-.12c.081-.135.136-.284.16-.439v-.319a.107.107 0 0 1 .091-.12h.028c.04 0 .08 0 .12.12a.48.48 0 0 0 .08.12c.04 0 .08-.04.12-.08l.12-.16.08-.119v-.08c0-.04-.04-.08-.08-.12a.989.989 0 0 1-.36-.916 2.567 2.567 0 0 0-.08-.718 4.905 4.905 0 0 0-.24-.558 2.923 2.923 0 0 1-.16-.478c-.04-.12-.08-.16-.16-.16a.612.612 0 0 0-.603.678c.02.361.116.714.28 1.037.168.337.276.701.32 1.076 0 .478-.2.677-.84.917-.719.279-1.078.637-1.198 1.315a.164.164 0 0 1 .12-.04c.08-.04.16-.04.16-.08l.2-.04a.616.616 0 0 0 .359-.238l.04-.16a.088.088 0 0 1 .08-.08l.12-.04.12-.04.04.04-.04.16c-.02.092-.033.185-.04.279a.708.708 0 0 0 .12.717M2.168 27.106c0 .08.04.12.04.16a1.423 1.423 0 0 1-.04.318l-.04.28c-.005.23.036.46.12.677a.772.772 0 0 1 .08.279v.04a.14.14 0 0 1-.04.08c-.04 0-.08-.04-.12-.08a.856.856 0 0 0-.48-.2.485.485 0 0 0-.2.04l.08.16.2.478.28.399.28.199c.04 0 .04.04.08.08.02.022.034.05.04.08a.04.04 0 0 1-.04.04h-.24a.14.14 0 0 0-.08.039c.027.136.068.27.12.399l.12.358.2.2.239.16a.223.223 0 0 1 .12.159.14.14 0 0 1-.04.08h-.12c-.04 0-.08.04-.08.119a.991.991 0 0 0 .24.478c.2.28.32.359.56.359h.2c.08 0 .159.04.159.12 0 .08-.04.08-.12.12-.16.039-.24.079-.24.159s.04.08.08.12l.12.159a.47.47 0 0 0 .24.199.347.347 0 0 0 .2-.12.912.912 0 0 1 .4-.279c.439-.12.519-.16.519-.279a.314.314 0 0 0-.04-.16.987.987 0 0 1-.2-.637c0-.16-.04-.279-.08-.279s-.08.04-.12.12a.594.594 0 0 1-.44.279c-.439 0-.958-.678-1.238-1.595a1.85 1.85 0 0 1-.08-.677c.009-.268.035-.534.08-.798a3.24 3.24 0 0 1 .16-.637v-.16a2.517 2.517 0 0 0-.88-1.036" fill="#A7A1AB"/><path d="M3.087 28.9a2.538 2.538 0 0 0-.2.837c0 .159.04.279.12.279.08 0 .04-.04.08-.08l.16-.24c.04-.04.04-.08.08-.159a.674.674 0 0 0 .08-.2.51.51 0 0 0-.32-.438M4.527 34.68l.08.08.12.119c.24.239.28.279.4.279.164-.02.325-.06.48-.12l.08-.08a.76.76 0 0 0-.12-.159l-.16-.12a1.138 1.138 0 0 0-.36-.199c-.16-.04-.28.04-.52.2M7.484 36.991a.677.677 0 0 1 .24.12c.064.043.131.083.2.12.065.019.132.032.2.04a.232.232 0 0 0 .16-.04l.28-.12.24-.08a.482.482 0 0 0 .119-.08.5.5 0 0 0-.16-.08.585.585 0 0 1-.2-.08c-.32-.119-.36-.159-.48-.159a1.052 1.052 0 0 0-.599.36M10.72 39.542c.08-.199.16-.239.44-.239s.64-.598.64-.996c0-.04 0-.08-.04-.08a.14.14 0 0 0-.08.04c-.08.08-.16.08-.2.12l-.36.159a.915.915 0 0 0-.48.717c0 .04.04.12.08.28z" fill="#A7A1AB"/><path d="M5.206 28.421l.12.2c.082.08.176.147.28.199.04 0 .04-.04.08-.12l.039-.2v-.198c0-.16-.08-.24-.44-.32-.08-.04-.12 0-.16-.08a.337.337 0 0 0-.16-.079c-.04 0-.04 0-.04.04v.04l.08.2.2.318zM6.56 28.421l-.16.279-.08.08c-.079 0-.119-.16-.159-.32l-.04-.238c0-.12.08-.16.24-.2.16-.04.2-.04.24-.08.12-.08.2-.119.2-.159h.04c.04 0 .04.04.04.08l-.08.2-.24.358zM6.246 29.298l.2-.12a.14.14 0 0 0 .08-.04.188.188 0 0 1 .16.2c-.045.23-.14.448-.28.638-.16.319-.28.518-.44.518-.16 0-.44-.28-.679-.797a1.09 1.09 0 0 1-.08-.36c0-.159.08-.238.2-.238a.253.253 0 0 1 .16.04l.12.08a.52.52 0 0 0 .32.119.26.26 0 0 0 .239-.04" fill="#131108"/><path d="M5.925 29.617l-.16-.04h-.04a.112.112 0 0 0-.12.096v.024c.042.2.123.39.24.558a.104.104 0 0 0 .08.04c.08 0 .16-.16.2-.399l.04-.2v-.039c0-.08-.04-.12-.08-.12h-.04" fill="#A7A1AB"/><path d="M34.54 32.965a1.142 1.142 0 0 0 .799.479c.08 0 .2-.04.36-.04.08 0 .12-.04.16-.04a.088.088 0 0 1 .08.08.99.99 0 0 1-.08.239.585.585 0 0 0-.08.24l-.04.278-.12.24-.16.159-.04.04v.16a.7.7 0 0 1-.36.677c-.04 0-.04.04-.08.08l-.04.12a1.193 1.193 0 0 1-.12.438c-.07.125-.15.245-.24.358a2.487 2.487 0 0 0-.32.519c-.039.12-.079.159-.159.159s-.24-.16-.28-.359c-.04.04-.04.08-.08.08l-.16.12-.24.159a1.3 1.3 0 0 0-.199.16l-.16.159c-.04.04-.04.04-.08.04s-.12-.12-.2-.32l-.12-.438a1.194 1.194 0 0 1-.04-.398.795.795 0 0 1 .08-.439c-.24.04-.32.04-.479.08-.04 0-.08.04-.12.04a.088.088 0 0 1-.08-.08c0-.064.028-.131.04-.2l.16-.438a1.13 1.13 0 0 1 .88-.638c.109.013.216.04.319.08a.4.4 0 0 0 .2.04.268.268 0 0 0 .28-.24c0-.079-.04-.158-.12-.158a2.505 2.505 0 0 1-.48-.16 1.234 1.234 0 0 1-.56-.438c-.16-.2-.24-.28-.32-.28a.088.088 0 0 0-.08.08v.24a2.515 2.515 0 0 1-.359 1.155l-.36.638a1.763 1.763 0 0 0-.24.797c0 .24.12.479.24.519l.2.04c.04 0 .04 0 .08.04s.04.04.04.08c0 .039-.04.079-.08.119-.074.097-.154.19-.24.279a1.199 1.199 0 0 1-.639.478 1.32 1.32 0 0 1-.839.757l-.04.08a1.005 1.005 0 0 1-.72.518h-.04a.994.994 0 0 1-.439.638c-.16.12-.28.2-.28.2a.483.483 0 0 0-.08.119c-.04.12-.12.2-.2.2-.08 0-.239-.12-.319-.36-.04.04-.08.04-.12.08-.075.06-.155.114-.24.16a1.224 1.224 0 0 1-.44.12c-.319.079-.599.199-.639.318l-.12.2-.04.04c-.08 0-.12-.08-.16-.2a2.723 2.723 0 0 1-.12-.717 1.592 1.592 0 0 1 .6-1.196v-.12a1.194 1.194 0 0 1 1.2-1.196h.247l.44.04h.04c.253-.004.496-.104.679-.279a.767.767 0 0 0 .4-.717 3.884 3.884 0 0 0-.12-.519 1.516 1.516 0 0 1-.08-.598 2.157 2.157 0 0 1 .919-1.554c.12-.08.24-.2.24-.28 0-.079 0-.039-.04-.039s-.08.04-.16.08-.16.12-.32.199l-.2.12-.24.08c-.08.04-.12.08-.12.119a.136.136 0 0 0 .04.12.12.12 0 0 0 .04.08c0 .04-.04.079-.08.159l-.16.279c-.119.219-.3.399-.519.518-.16.438-.36.638-.64.678a1.056 1.056 0 0 1-.878.717 1.195 1.195 0 0 1-.4.598c-.08.08-.16.16-.16.2-.12.159-.12.199-.16.199a.508.508 0 0 1-.28-.2.467.467 0 0 1-.12-.16l-.12-.199c-.04-.08-.079-.08-.119-.08h-.08l-.28.04c-.195.044-.375.14-.52.28l-.159.239c0 .04-.04.04-.08.04-.12 0-.2-.24-.2-.678-.03-.28.041-.563.2-.797l.36-.478c.04-.08.08-.12.08-.2a.334.334 0 0 0-.08-.16c-.08-.079-.16-.159-.2-.159l-.28-.04c-.04 0-.08 0-.08-.04s0-.04.04-.08c.088-.111.197-.206.32-.278a1.38 1.38 0 0 1 .76-.28c.237.017.47.085.678.2l.36.24a.224.224 0 0 0 .16.04.564.564 0 0 0 .44-.32c.105-.182.16-.388.16-.598a.815.815 0 0 0-.8-.837h-.04a1.201 1.201 0 0 0-.68.24c-.079.04-.119.08-.119.159l-.12.239-.08.08c-.08 0-.2-.2-.32-.439a1.277 1.277 0 0 1-.16-.478 1.922 1.922 0 0 1-.12-.638v-.359a1.417 1.417 0 0 1-.239-.797c-.003-.15.024-.299.08-.438a.82.82 0 0 1-.16-.558v-.16l.04-.16.04-.159a1.83 1.83 0 0 1-.28-.837 2.981 2.981 0 0 0-.16-.518.103.103 0 0 1-.04-.08c0-.08.16-.16.4-.16h.2a.541.541 0 0 1-.04-.238c.009-.175.035-.349.08-.518a.672.672 0 0 0 .08-.32c0-.159-.04-.318-.04-.398l-.12-.24a.134.134 0 0 1-.04-.119c0-.04 0-.04.08-.04a2.37 2.37 0 0 1 1.119.638 1.418 1.418 0 0 1 .48 1.156l-.04.28c.36.318.519.557.519.836a.769.769 0 0 1-.24.519 1.088 1.088 0 0 0-.44.956c0 .678.2 1.037.56 1.037.36 0 .6-.36.64-.877l.04-.479c.012-.161.04-.321.08-.478.027-.104.04-.211.04-.319 0-.16-.12-.399-.44-.797a1.542 1.542 0 0 1-.48-.957.641.641 0 0 1 .608-.673h.032a.348.348 0 0 1 .24.08.796.796 0 0 1 .16-.559.916.916 0 0 1 .239-.438c.03.005.058.018.08.04.04.04.12.12.16.12.043.02.084.046.12.079l.12.12a1.1 1.1 0 0 1 .399-.638c.16-.16.24-.24.28-.24.04 0 .04.04.08.08l.16.2.2.239a.64.64 0 0 1 .16.398l.12-.08.199-.119c.04-.04.08-.04.16-.12a.14.14 0 0 1 .08-.04c.04 0 .04.04.08.08l.08.28.16.318a.64.64 0 0 1 .08.319v.08h.08a.596.596 0 0 1 .479.638 1.872 1.872 0 0 1-.84 1.355 1.102 1.102 0 0 0-.04.359c0 .996.28 1.235 1.839 1.475.351.036.699.102 1.039.199.04 0 .4.12.999.319.242.096.499.15.759.16.2 0 .28-.04.28-.16s-.24-.32-1.04-.638l-1.118-.439c-1.119-.438-1.678-1.116-1.678-2.152a1.99 1.99 0 0 1 .526-1.432 2 2 0 0 1 1.388-.64h.163c.522.011 1.037.12 1.519.318.298.128.605.235.92.319.159 0 .239-.12.279-.319.04-.2.08-.279.16-.279.16 0 .32.16.44.399.111.207.167.441.16.677a.748.748 0 0 1-.64.797 1.198 1.198 0 0 1-1.04.519c-.519 0-.758-.12-1.638-.638a1.076 1.076 0 0 0-.679-.24.472.472 0 0 0-.52.4v.027c0 .24.2.399.6.518a1.2 1.2 0 0 1 .44.2.58.58 0 0 1 .2-.04c.504.053.979.262 1.358.598a2.14 2.14 0 0 1 1.478 1.794 1.489 1.489 0 0 1-1.438 1.474c.04.08-.4.04-.76-.04" fill="#160620"/><path d="M34.057 36.473l.04-.16.04-.199c0-.04.04-.12.16-.199.13-.187.2-.41.2-.638a.585.585 0 0 0-.08-.239.136.136 0 0 1-.038-.135.04.04 0 0 1 .037-.025.04.04 0 0 1 .04-.04c.04 0 .08.04.12.08a.287.287 0 0 0 .12.12c.04 0 .12-.08.16-.239a.167.167 0 0 1 .04-.12.769.769 0 0 0-.12-.358.136.136 0 0 1-.04-.12.088.088 0 0 1 .08-.08c.04 0 .08.04.16.12a.104.104 0 0 0 .08.04c.08 0 .12-.08.2-.28a.574.574 0 0 0 .04-.199c0-.04 0-.04-.04-.04h-.2a1.04 1.04 0 0 1-.72-.358l-.36-.439c-.119-.16-.319-.438-.319-.438l-.28-.2c-.04-.04-.08-.08-.08-.119 0-.04.04-.08.12-.08.234.057.462.137.68.24.407.165.84.26 1.279.278a1.116 1.116 0 0 0 1.118-1.076 1.593 1.593 0 0 0-.52-1.036.646.646 0 0 0-.239-.16.088.088 0 0 0-.08.08.278.278 0 0 0 .04.16c0 .04.04.08.04.12a.088.088 0 0 1-.08.079c-.08 0-.16-.12-.24-.359-.08-.279-.24-.438-.639-.638a2.144 2.144 0 0 0-.4-.16.04.04 0 0 0-.04.04.222.222 0 0 0 .04.16l.12.24a.088.088 0 0 1-.08.079c-.08 0-.12-.04-.28-.319a1.286 1.286 0 0 0-.559-.438.495.495 0 0 0-.2-.04.14.14 0 0 0-.08.04c.027.034.041.076.04.12v.079a.087.087 0 0 1-.08.08 1.599 1.599 0 0 1-.519-.399 1.234 1.234 0 0 1-.32-.757 1 1 0 0 1 1-.917c.11.004.22.031.32.08l.439.239.52.358c.285.196.614.319.958.36.137-.001.273-.028.4-.08.12-.04.2-.08.2-.12l-.04-.04-.28-.04a1.887 1.887 0 0 1-.8-.358l-.599-.4-.52-.198a.088.088 0 0 1-.08-.08c0-.04.04-.04.08-.04a.799.799 0 0 1 .16.04l.48.16c.208.074.409.168.6.278.338.216.72.352 1.118.399a.496.496 0 0 0 .52-.466c0-.08-.04-.24-.04-.36a.334.334 0 0 0-.08-.159c-.04-.04-.04-.04-.08-.04s-.04.04-.04.12v.16c0 .239-.08.318-.36.318a3.47 3.47 0 0 1-1.158-.358 3.72 3.72 0 0 0-1.359-.32 1.804 1.804 0 0 0-1.798 1.675c0 .757.52 1.355 1.558 1.794l1.08.438c.918.359 1.238.638 1.238.997 0 .279-.28.478-.68.478a2.25 2.25 0 0 1-.838-.2 7.818 7.818 0 0 0-2.278-.438 2.755 2.755 0 0 0-2.158.837c-.08.08-.12.08-.16.08-.04 0-.08 0-.2-.08a.777.777 0 0 0-.28-.08.608.608 0 0 0-.32.16l-.12.16c-.04.04-.08.08-.119.08a.95.95 0 0 1-.36-.36.613.613 0 0 1-.12-.318c0-.08-.04-.2-.04-.36v-.238l.04-.24c0-.068.013-.136.04-.199 0-.04.04-.04.08-.04s.08.08.08.2v.12c0 .358.16.677.32.677s.24-.24.32-.678c0-.08.04-.16.08-.16s.08.08.12.24c.047.141.115.276.2.399a.209.209 0 0 0 .16.12c.119 0 .159-.16.239-.519.04-.16.08-.24.12-.24.04 0 .04 0 .04.04a.498.498 0 0 1 .08.16c.044.051.098.092.16.12a.28.28 0 0 0 .16.04.137.137 0 0 0 .12-.04c.04-.04.08-.08.08-.12a.48.48 0 0 1-.08-.12 1.029 1.029 0 0 1-.24-.438.668.668 0 0 0-.12-.279c-.04-.04-.04-.08-.08-.08h-.12s-.12.04-.28.08h-.08c-.04 0-.04-.04-.04-.08s.04-.08.12-.16a1.87 1.87 0 0 0 .6-1.315c0-.27.083-.535.24-.757l.08-.08c.04 0 .079.04.079.12a.47.47 0 0 1-.04.2c0 .04-.04.119-.04.159v.04l.04.08.16-.04.16-.16c.092-.158.147-.336.16-.518a.374.374 0 0 0-.12-.28c-.08-.079-.12-.119-.2-.119h-.16c-.08 0-.12-.04-.12-.08l.04-.08v-.159l-.08-.319-.08-.16-.04-.119-.08.08-.2.12c-.04.04-.12.08-.16.16-.199.238-.199.238-.279.238-.08 0-.08 0-.08-.04v-.04a.796.796 0 0 0 .04-.279 1.239 1.239 0 0 0-.36-.757 1.029 1.029 0 0 0-.4.797v.16c0 .04 0 .08-.04.08a.088.088 0 0 1-.08-.08l-.159-.2a1.952 1.952 0 0 0-.2-.159c-.04 0-.04-.04-.12-.08l-.04.12a1.217 1.217 0 0 0-.16.598c0 .16-.04.239-.08.239a.103.103 0 0 1-.08-.04c-.2-.12-.199-.12-.279-.12a.375.375 0 0 0-.4.351.097.097 0 0 0 0 .048.955.955 0 0 0 .16.439c.12.199.28.398.36.398.08 0 .04 0 .04-.08v-.239l-.04-.159v-.04c0-.04 0-.08.04-.08.12 0 .2.32.32.997.019.453.187.888.48 1.236l.119.12a.04.04 0 0 1-.04.039c-.04 0-.08-.04-.16-.08a.164.164 0 0 0-.12-.04.348.348 0 0 0-.28.32l-.12.717-.08 1.036c-.007.255.02.51.08.758.04.279.08.478.08.598a1.644 1.644 0 0 1-1.278 1.594l-.84.24c-.519.159-.759.477-.838 1.115.12-.12.16-.12.36-.16l.239-.039a.229.229 0 0 0 .2-.08c.04 0 .08-.08.16-.16l.2-.238c.08-.08.16-.16.2-.16.04 0 .04.04.04.08a.67.67 0 0 1-.08.2.433.433 0 0 0-.08.318.82.82 0 0 0 .2.518.314.314 0 0 0 .039-.16c.04-.039.08-.119.2-.278a2.2 2.2 0 0 0 .32-.558c0-.2.04-.28.08-.28s.04 0 .08.12c0 .04 0 .04.04.08s.04.04.08.04a.267.267 0 0 0 .12-.04.949.949 0 0 0 .199-.16l.12-.239c.033-.077.06-.157.08-.239v-.16c0-.04 0-.079.04-.079s.08.08.12.16c.04.08.04.08.08.08s.08-.04.12-.04a.797.797 0 0 0 .24-.479v-.24l-.04-.198a.088.088 0 0 1 .08-.08c.04 0 .119.08.199.279.04.08.08.12.12.12.08 0 .12-.04.24-.2l.12-.16a.203.203 0 0 0 0-.238l-.12-.16c0-.04-.04-.08-.04-.12.024-.21.092-.414.2-.597a2.16 2.16 0 0 0 .16-.32c.04-.04.04-.079.08-.079s.04.04.04.08v.398c0 .04.04.08.119.08a.136.136 0 0 0 .12-.04l.32-.12c.097-.046.19-.099.28-.159a1.66 1.66 0 0 1 .918-.319 1.2 1.2 0 0 1 .6.2.18.18 0 0 0 .12.04c.04 0 .08-.04.12-.08a.14.14 0 0 0 .04-.08.25.25 0 0 0-.04-.16.581.581 0 0 1-.08-.199.04.04 0 0 1 .04-.04.092.092 0 0 1 .08.08c.04.08.12.24.28.518.17.361.469.646.838.798l.56.12c.16.039.2.119.2.318a1.118 1.118 0 0 1-.52.957l-.48.279a.887.887 0 0 0-.319.637c.01.228.037.454.08.678l.08-.08.2-.12.2-.199.12-.279.12-.239c.04-.12.12-.199.16-.199.04 0 .079.08.079.2v.079c.12-.08.16 0 .28.28" fill="#A7A1AB"/><path d="M26.504 40.14c0-.598.24-.877 1.119-1.315 1.758-.877 2.677-1.674 2.677-2.312a2.5 2.5 0 0 0-.16-.678 1.911 1.911 0 0 1-.12-.558c.058-.38.24-.73.52-.996l.24-.2a.737.737 0 0 0 .24-.398v-.12c0-.12.04-.16.2-.2h.12a.14.14 0 0 0 .08-.039c.04 0 .08.04.119.08l.08.12.08.119c.04.04.04.04.08.04a.112.112 0 0 0 .08-.04.317.317 0 0 1 .16-.04.112.112 0 0 1 .12.096v.024a1.931 1.931 0 0 1-.48 1.036c-.48.678-.64 1.036-.64 1.435-.011.316.088.626.28.877a.15.15 0 0 1 .04.08c0 .04-.04.08-.08.16a.308.308 0 0 1-.08.119c-.12.16-.16.199-.24.199-.08 0-.08-.04-.12-.12l-.04-.12a.091.091 0 0 0-.08-.079l-.04.04c-.04.04-.04.08-.04.16v.199a.55.55 0 0 1-.079.239c-.04.08-.12.12-.16.2-.04.079-.08.079-.12.079-.04 0-.08-.04-.08-.12l-.08-.239a.091.091 0 0 0-.08-.08c-.04 0-.08.08-.08.2-.04.279-.08.478-.16.518l-.2.16a.28.28 0 0 1-.159.08c-.04 0-.08 0-.08-.04l-.08-.2a.044.044 0 0 0-.04-.04c-.04 0-.08.12-.12.28a.935.935 0 0 1-.4.836.841.841 0 0 0-.319.359.795.795 0 0 1-.16-.518c0-.12 0-.2.04-.24a.67.67 0 0 0 .08-.199.044.044 0 0 0-.04-.04.14.14 0 0 0-.08.04.51.51 0 0 1-.16.12.463.463 0 0 0-.32.438.601.601 0 0 1-.599.558c-.44.08-.48.08-.6.24l-.04-.2zM25.663 26.946v.32a.375.375 0 0 1-.04.199 1.117 1.117 0 0 0 .12.877c.071.135.112.285.12.438a.14.14 0 0 1-.04.08c-.04 0-.04 0-.08-.04l-.12-.16c-.08-.12-.16-.16-.36-.16h-.24c.08.2.12.32.16.44.12.398.12.438.36.637.24.2.24.24.24.319 0 .08-.04.12-.08.12h-.12c-.08 0-.12.12-.12.279.012.11.039.216.08.319.04.08.08.12.08.159l.12.12a.162.162 0 0 1 .04.12c0 .079-.04.119-.08.119a.136.136 0 0 1-.12-.04.12.12 0 0 1-.08-.04c-.04 0-.08.04-.08.12l.04.199.08.319c0 .08.08.16.16.239.055.066.123.12.2.16l.24.119c.04 0 .04.04.04.12a.088.088 0 0 1-.08.08.252.252 0 0 1-.12-.04h-.12c-.12 0-.12 0-.12.119a.338.338 0 0 0 .04.2l.04.199c.04.199.12.319.2.319a.113.113 0 0 0 .08-.04c.234-.168.51-.264.799-.28.202-.002.404.024.599.08a.18.18 0 0 0 .12.04c.04 0 .04-.04.04-.16l.04-.238.04-.399.04-.279v-.16c-.04.04-.08.08-.12.08a.76.76 0 0 1-.6.28c-.599 0-.919-.678-.919-1.794.021-.642.088-1.282.2-1.914.028-.117.041-.238.04-.359a1.396 1.396 0 0 0-.72-1.116" fill="#A7A1AB"/><path d="M26.543 29.816l.12-.12.12-.119a.72.72 0 0 0 .16-.399.398.398 0 0 0-.04-.199c-.04-.08-.12-.2-.2-.2-.08 0-.08.12-.08.28l-.04.2-.04.198v.36zM25.39 35.038c.12.04.16.08.28.24a.542.542 0 0 0 .52.238.356.356 0 0 0 .2-.04l.16-.04.12-.04c.08 0 .12-.039.12-.079s-.12-.12-.24-.2c-.1-.066-.207-.12-.32-.159a1.12 1.12 0 0 0-.28-.08.985.985 0 0 0-.56.16zM27.14 38.626a.852.852 0 0 1 .92-.758c.24 0 .4.04.4.12 0 .08-.12.16-.36.279a1.755 1.755 0 0 0-.36.2c-.17.123-.359.217-.56.278l-.04-.12zM32.34 35.556c.2-.04.24-.08.32-.08h.24c.04 0 .08-.04.16-.119.08-.08.119-.08.159-.12.24-.159.28-.199.28-.239 0-.04-.12-.12-.32-.12-.4 0-.64.2-.84.678" fill="#A7A1AB"/><path d="M28.463 27.743l.2.12c.082.049.163.102.24.16.2.08.279.12.279.199a.314.314 0 0 1-.04.16 1.187 1.187 0 0 0-.04.198.187.187 0 0 1-.176.2h-.024c-.08 0-.16-.12-.32-.399a1.812 1.812 0 0 1-.2-.518v-.04a.087.087 0 0 1 .08-.08M30.22 28.222l-.28.279a.358.358 0 0 0-.12.279.14.14 0 0 1-.079.04.108.108 0 0 1-.12-.092v-.427c0-.08.04-.12.12-.159l.28-.08.28-.16a.4.4 0 0 1 .12-.039.092.092 0 0 1 .08.08.14.14 0 0 1-.04.08l-.24.199zM28.898 29.059l.2.16a.224.224 0 0 0 .16.04c.11-.012.217-.039.32-.08l.159-.08a.14.14 0 0 0 .08-.04.224.224 0 0 1 .2.24c-.036.252-.147.488-.32.677l-.16.279c-.12.16-.2.199-.28.199-.16 0-.24-.08-.44-.518a1.624 1.624 0 0 1-.239-.678c0-.12.08-.239.16-.239a.28.28 0 0 0 .16.04z" fill="#131108"/><path d="M29.063 29.776v.24a.184.184 0 0 0 .176.199h.024c.12 0 .2-.16.24-.439a.712.712 0 0 0 .04-.16c0-.079-.04-.119-.16-.119h-.2c-.08 0-.12.08-.12.24" fill="#A7A1AB"/><path d="M14.68 23.997h1.239v2.55h1.478v-2.55h3.716v2.55h1.479v-2.55h1.239V17.38h-1.439l-.04-.08a.83.83 0 0 0-.68-.399.757.757 0 0 0-.678.479h-1.04A.754.754 0 0 0 19 16.94a.748.748 0 0 0-.424.423h-1.119a.798.798 0 0 0-.72-.479.716.716 0 0 0-.679.479H14.7l-.02 6.633z" fill="#131108"/><path d="M23.347 17.938h-8.152v5.58h8.152v-5.58z" fill="#504458"/><path d="M16.032 19.213a.4.4 0 0 0-.4.399.398.398 0 0 0 .683.282.398.398 0 0 0-.283-.68z" fill="#A7A1AB"/><path d="M16.033 20.05a.44.44 0 0 1-.44-.438.438.438 0 0 1 .44-.439.44.44 0 0 1 .44.439.442.442 0 0 1-.44.438zm0-.797a.32.32 0 0 0-.32.319.318.318 0 0 0 .32.319.32.32 0 0 0 .32-.319c.04-.16-.12-.319-.32-.319z" fill="#160620"/><path d="M22.427 19.213a.4.4 0 0 0-.283.68.4.4 0 0 0 .683-.281.398.398 0 0 0-.4-.399z" fill="#A7A1AB"/><path d="M22.428 20.05a.44.44 0 0 1-.44-.438.438.438 0 0 1 .44-.439.44.44 0 0 1 .44.439.442.442 0 0 1-.44.438zm0-.797a.32.32 0 0 0-.32.319.318.318 0 0 0 .32.319.32.32 0 0 0 .32-.319c.04-.16-.12-.319-.32-.319z" fill="#000"/><path d="M16.032 22.243a.4.4 0 0 0-.4.398.398.398 0 0 0 .4.399.368.368 0 0 0 .36-.37v-.029a.35.35 0 0 0-.292-.398h-.068z" fill="#A7A1AB"/><path d="M16.033 23.08a.44.44 0 0 1-.44-.439.438.438 0 0 1 .751-.31.438.438 0 0 1 .129.31.442.442 0 0 1-.44.439zm0-.797a.316.316 0 0 0-.32.31.326.326 0 0 0 .332.323h.028a.344.344 0 0 0 .32-.319.35.35 0 0 0-.36-.314z" fill="#000"/><path d="M22.427 22.243a.4.4 0 0 0-.4.398.398.398 0 0 0 .4.399.4.4 0 0 0 .282-.68.4.4 0 0 0-.282-.117z" fill="#A7A1AB"/><path d="M22.428 23.08a.44.44 0 0 1-.44-.439.438.438 0 0 1 .75-.31.438.438 0 0 1 .13.31.442.442 0 0 1-.44.439zm0-.797a.32.32 0 0 0-.32.319.318.318 0 0 0 .32.318.32.32 0 0 0 .32-.319c.04-.159-.12-.318-.32-.318z" fill="#000"/><path d="M17.273 21.087a2.5 2.5 0 0 0 1.998.996c.76 0 1.28-.279 1.879-.996a2.478 2.478 0 0 0-1.918-.877 2.243 2.243 0 0 0-1.959.877" fill="#A7A1AB"/><path d="M17.633 21.087a2.329 2.329 0 0 1 3.117 0 1.998 1.998 0 0 1-1.559.677 2.4 2.4 0 0 1-1.558-.677z" fill="#160620"/><path opacity=".25" d="M18.313 20.927c.258.179.564.276.879.28.329.012.653-.086.919-.28a2.003 2.003 0 0 0-.92-.239c-.303.033-.6.114-.878.24" fill="#fff"/><path d="M23.466 18.217h-8.392v.279h8.392v-.28z" fill="#131108"/><path d="M23.466 18.536h-8.392v-.32h8.392v.32zm-8.352-.04h8.352v-.24h-8.352v.24z" fill="#000"/><path d="M16.355 17.858v.797a.326.326 0 0 0 .332.323h.028c.24 0 .36-.12.36-.319v-.797c0-.319-.12-.478-.32-.478a.248.248 0 0 0-.16.04.14.14 0 0 0-.08.04c-.04.04-.04.08-.08.119a.278.278 0 0 0-.04.16M18.871 18.535v.16a.325.325 0 0 0 .206.3c.04.015.083.023.126.023h.028c.24 0 .36-.12.36-.32v-.796c0-.32-.12-.479-.32-.479s-.36.2-.36.479M21.309 17.858v.797a.324.324 0 0 0 .206.3.33.33 0 0 0 .125.023h.028c.24 0 .36-.12.36-.319v-.797c0-.319-.12-.478-.32-.478a.248.248 0 0 0-.16.04.14.14 0 0 0-.08.04c-.04.04-.04.08-.08.119a.278.278 0 0 0-.04.16M16.955 24.595h-.76v.996h.76v-.997zM16.955 25.79h-.76v.32h.76v-.32zM22.15 24.595h-.76v.996h.76v-.997zM22.15 25.79h-.76v.32h.76v-.32z" fill="#A7A1AB"/><path d="M63.227.837v.598h-.4c-.559 0-1.518 0-1.518 1.794v7.294c0 4.465-1.958 6.617-5.954 6.617-4.515 0-6.633-1.793-6.633-5.66V3.189c0-1.794-.96-1.794-1.839-1.794h-.2V.797h6.754v.598h-.2c-.839 0-1.878 0-1.878 1.794v7.892c0 3.389 1.439 5.063 4.356 5.063 2.837 0 4.356-1.794 4.356-5.142V3.189c0-1.794-1-1.794-1.719-1.794h-.36V.797c.24.04 5.076.04 5.236.04M70.543 16.223v.598h-5.715v-.598h.24c1.878 0 2.118-1.435 2.118-3.029V3.587c0-1.514-.88-2.152-2.118-2.152h-.2V.837h4.476l9.71 11.879V3.667c0-2.033-1.438-2.272-2.038-2.272h-.4V.797h5.755v.598h-.24c-.999 0-2.078.24-2.078 3.03V16.86h-.839L68.144 3.587v9.607c0 1.594.24 3.03 2.159 3.03M101.154 13.433l3.516-9.806c.64-1.674.24-2.192-1.239-2.192h-.279V.837h4.559v.598h-.12c-.479 0-1.079.16-1.518 1.236l-5.315 14.19h-.999l-5.794-14.07c-.48-1.157-1-1.356-1.958-1.356h-.12V.837h6.593v.598h-.44c-1.118 0-1.358.717-1.038 1.554M130.328.837c3.556 0 5.315 1.315 5.315 3.986 0 2.272-1.759 3.428-3.157 3.986l-.12.04 3.916 5.94c.639.956 1.159 1.355 2.238 1.394v.599h-4.076l-4.755-7.494h-1.759v4.982c0 1.794.799 1.953 1.918 1.953h.32v.598h-6.953v-.598h.32c.759 0 1.678-.358 1.678-1.355v-11.6c0-1.833-1.079-1.833-1.678-1.833h-.32V.837h7.113m-2.478.757V8.65h1.359c2.478 0 3.597-1.116 3.597-3.707 0-2.113-1.359-3.468-3.397-3.468-.48.04-1.119.04-1.559.12zM146.949 13.792c0-1.953-1.678-2.71-3.237-3.508-1.838-.957-3.916-1.913-3.916-4.863 0-2.87 2.158-4.704 5.275-4.704a16.13 16.13 0 0 1 3.357.399l.2 3.11-.6.079c-.279-1.635-1.119-2.87-2.957-2.87-1.718 0-2.997 1.076-2.997 2.95 0 1.793 1.678 2.55 3.197 3.308 1.918.957 4.076 1.953 4.076 4.903 0 3.308-2.957 4.783-5.675 4.783a7.64 7.64 0 0 1-3.796-.917l-.399-3.467.599-.12c.44 2.312 1.918 3.627 3.836 3.627 1.838 0 3.037-1.116 3.037-2.71zM158.334.837v.598h-.24c-.919 0-1.758.16-1.758 1.395v11.958c0 1.236.839 1.395 1.758 1.395h.24v.599h-6.67v-.599h.24c.919 0 1.758-.159 1.758-1.395V2.83c0-1.236-.839-1.395-1.758-1.395h-.24V.837h6.674M90.927.837v.598h-.24c-.918 0-1.758.16-1.758 1.395v11.958c0 1.236.84 1.395 1.759 1.395h.24v.599h-6.674v-.599h.24c.919 0 1.758-.159 1.758-1.395V2.83c0-1.236-.84-1.395-1.758-1.395h-.24V.837h6.673zM224.07 23.877l.04 4.226-.679.159c-.16-1.834-.56-3.348-3.557-3.348h-3.996v7.812h3.437c1.678 0 2.118-.956 2.317-2.55h.68v6.537h-.68c-.119-1.555-.479-2.79-2.317-2.79h-3.437v6.855c0 1.994 1.718 1.994 3.557 1.994 3.276 0 4.795-.2 5.714-3.508.12.04.679.16.679.16l-.919 4.424h-14.901v-.718h.28c1.158 0 2.197-.2 2.197-1.754V26.35c0-1.555-1.039-1.754-2.197-1.754h-.28v-.718h14.066M142.908 23.877c4.436 0 6.634 1.634 6.634 4.983 0 2.83-2.238 4.305-3.996 4.982l-.12.04 4.915 7.454c.799 1.196 1.439 1.674 2.797 1.754v.757h-5.155l-5.954-9.407h-2.198v6.219c0 2.272.999 2.431 2.438 2.431h.4v.718h-8.712v-.718h.4c.959 0 2.118-.438 2.118-1.674v-14.55c0-2.311-1.359-2.311-2.118-2.311h-.4v-.718c.2.04 8.951.04 8.951.04m-3.077.957v8.849h1.719c3.117 0 4.515-1.395 4.515-4.624 0-2.63-1.718-4.345-4.276-4.345-.654 0-1.308.04-1.958.12zM162.732 23.877v.718h-.28c-1.159 0-2.198.199-2.198 1.754v15.027c0 1.555 1.039 1.754 2.198 1.754h.28v.718h-8.392v-.718h.28c1.158 0 2.197-.2 2.197-1.754V26.35c0-1.555-1.039-1.754-2.197-1.754h-.28v-.718h8.392zM161.811.837h10.59c.519 0 1.199-.12 1.319-.837h.519l-.4 4.146h-.559c-.04-.957-.16-2.352-1.718-2.352h-3.237V14.11c0 1.913.919 2.073 1.958 2.073h.32v.598h-7.273v-.598h.319c1.199 0 1.958-.08 1.958-2.033V1.794h-3.276c-1.679 0-1.839.717-2.158 2.352h-.56l.36-4.106h.479c.2.677.8.797 1.359.797M190.585.837v.598c-.919.04-1.479.678-1.878 1.275l-4.076 6.259v5.102c0 2.033.719 2.192 1.958 2.192h.32v.598h-7.269v-.598h.319c1.279 0 1.958-.319 1.958-1.993V9.367l-4.395-6.298c-.68-.957-1.199-1.594-2.238-1.594h-.12V.877h6.594v.598h-.2c-1.279 0-1.359.677-.839 1.435l3.396 5.261 3.037-4.783c.68-1.036.88-1.953-.839-1.953h-.28V.837M195.418 8.929c0-4.744 3.596-8.45 8.192-8.45 5.035 0 8.512 3.228 8.512 7.892 0 5.062-3.517 8.77-8.392 8.77-4.795 0-8.312-3.429-8.312-8.212zm2.997-.797c0 3.946 1.758 8.171 5.595 8.171 3.516 0 5.195-2.431 5.195-7.414 0-3.667-1.959-7.574-5.595-7.574-4.835 0-5.191 5.222-5.191 6.817h-.004zM214.008 16.782v-.599h.24c.919 0 1.758-.159 1.758-1.395V2.83c0-1.236-.839-1.395-1.758-1.395h-.24V.837h11.189l.04 3.388a1.97 1.97 0 0 1-.52.12c-.119-1.356-.439-2.671-2.357-2.671h-3.637v6.258h3.197c1.319 0 1.519-1.036 1.519-1.873h.519v5.102h-.519c0-.996-.24-2.272-1.879-2.272h-2.837v5.9c0 1.394 1.199 1.394 2.238 1.394h.2v.599M47.965 33.882c0-2.99 1.199-5.9 3.277-7.773a10.912 10.912 0 0 1 7.352-2.71 15.786 15.786 0 0 1 6.794 1.435l.2 4.624-.64.08c-.759-2.671-1.998-5.143-6.274-5.143-4.355 0-7.073 3.468-7.073 9.009 0 4.943 2.198 9.606 7.513 9.606 2.997 0 5.115-1.116 6.714-3.188l.519.996c-1.798 2.352-4.596 3.588-7.792 3.588-6.434 0-10.59-3.787-10.59-10.524M91.239 27.744l-.68 12.357c-.12 2.75.72 2.99 2.558 3.029h.16v.717h-6.75v-.717h.24c2.278-.08 2.438-1.355 2.518-3.189l.799-12.636c.12-1.714-.84-2.71-2.438-2.71h-.24v-.718h5.675c.08.16 6.793 15.147 6.793 15.147s6.394-14.988 6.434-15.187h5.555v.718h-.12c-2.238 0-2.638.717-2.478 3.547l.759 13.274c.12 1.555.92 1.674 2.478 1.754v.717h-8.312v-.717h.04c1.359-.08 2.318-.12 2.318-1.515l-.04-1.435-.6-12.795s-6.873 16.462-6.953 16.622h-.6c.08-.12-7.112-16.263-7.112-16.263M165.891 43.887v-.717h.279c1.159 0 2.198-.2 2.198-1.754V26.388c0-1.555-1.039-1.754-2.198-1.754h-.279v-.717h8.955c3.317 0 6.114.837 8.072 2.63 1.958 1.794 2.957 4.306 2.957 7.295 0 2.793-1.106 5.472-3.077 7.454-1.958 1.953-4.715 2.591-7.513 2.591m-3.476-19.053v15.705c0 2.113.919 2.471 3.037 2.471 5.075 0 7.393-4.344 7.393-8.61 0-6.617-2.758-9.646-8.392-9.646-.52 0-1.559.04-2.038.08zM202.973 42.85v-4.902c0-1.076-.799-1.634-2.277-1.634h-.24v-.718h7.712v.718h-.239c-1.079 0-1.639.558-1.639 1.634v5.461a23.268 23.268 0 0 1-7.033 1.076c-6.634 0-10.909-4.265-10.909-10.922 0-7.055 5.634-10.244 10.949-10.244 2.169.011 4.324.347 6.394.996l.319 4.784h-.679c-.839-3.428-2.358-4.784-5.834-4.784-4.676 0-7.473 3.428-7.473 8.93 0 5.062 2.398 10.084 7.713 10.084a7.176 7.176 0 0 0 3.236-.478M121.375 33.523v7.056c0 1.953.639 2.511 2.677 2.511 2.438 0 4.276-1.993 4.276-4.744 0-3.069-1.878-4.823-5.035-4.823h-1.918zm0-8.889v8.052h1.518c2.758 0 4.276-1.355 4.276-3.906 0-2.83-1.319-4.146-3.996-4.146h-1.798zm4.076 8.371c2.517.2 3.876.757 4.995 1.913a4.612 4.612 0 0 1 1.319 3.349c0 3.149-2.878 5.66-6.634 5.66h-9.826v-.717h.399c.959 0 2.118-.479 2.118-1.715V26.986c0-2.312-1.358-2.312-2.118-2.312h-.399v-.718h8.911c4.196 0 6.474 1.515 6.474 4.385.04 3.07-2.758 4.265-5.235 4.664M75.253 23.877l-6.354 17.26c-.48 1.236-1.319 1.993-2.557 1.993h-.08v.758h6.114v-.758h-.28c-1.478 0-2.478-.478-1.838-2.352l1.438-4.026h6.314l1.599 4.385c.44 1.395-.12 2.033-1.639 2.033h-.16v.757h7.753v-.757h-.08c-1.039 0-1.758-.558-2.238-1.913l-6.514-17.38m-1.838 4.066l2.798 7.813h-5.595l2.797-7.813zM119.975.837l.04 3.388c-.182.06-.369.1-.559.12-.12-1.475-.44-2.671-2.838-2.671h-3.196v6.218h2.717c1.319 0 1.718-.757 1.838-2.033h.56v5.222h-.56c-.08-1.235-.36-2.232-1.838-2.232h-2.717v5.5c0 1.595 1.358 1.595 2.837 1.595 2.597 0 3.836-.16 4.555-2.79.12.04.52.12.52.12l-.719 3.508h-11.869v-.599h.24c.919 0 1.758-.159 1.758-1.395V2.83c0-1.236-.839-1.395-1.758-1.395h-.24V.837h11.229" fill="#fff"/><path d="M5.788 5.82h-.16c-.04 0-.04 0-.08.04l-.04.08.08.318.04.28c.04.159.08.198.2.198.12 0 .2-.08.2-.239l.04-.279a.66.66 0 0 1 .04-.279c0-.04 0-.04-.04-.08a.14.14 0 0 0-.08-.04h-.2z" fill="#A7A1AB"/><path d="M37.574 2.392H24.387v13.473h13.187V2.392z" stroke="#000" stroke-width=".208" stroke-miterlimit="10"/><path d="M38.531 1.435H23.426v15.386H38.53V1.436z" fill="#504458"/><path d="M35.255 9.009l.04.199a2.3 2.3 0 0 0 .12.399c.16.717.28.916.64.916a.489.489 0 0 0 .439-.279l.08-.239c0-.04.08-.08.12-.08.12 0 .2.16.2.479 0 .08.04.319.08.637.03.185.044.372.04.559a.716.716 0 0 1-.08.398c.044.264.07.53.08.798.019.262-.036.525-.16.757.044.156.07.316.08.478.004.147-.01.295-.04.439-.04.319-.08.398-.08.438a.223.223 0 0 0 .04.16.314.314 0 0 1 .04.159c0 .04 0 .08-.04.08l-.24-.12-.28-.16a.655.655 0 0 1-.28-.238c-.24.239-.32.239-.959.438a.972.972 0 0 0-.28.12l-.16.08c-.12 0-.16-.16-.16-.559.001-.241.028-.482.08-.717a1.531 1.531 0 0 0-.439-.12.85.85 0 0 0-.2.04h-.04c-.04 0-.08-.04-.08-.12a1.39 1.39 0 0 1 .08-.279l.12-.319a.842.842 0 0 1 .32-.358c.093-.085.202-.153.32-.2l.479-.08c.28-.04.44-.199.44-.398 0-.2-.12-.319-.4-.399l-.56-.199a1.81 1.81 0 0 1-.519-.239c-.32-.2-.36-.2-.44-.2-.08 0-.16.08-.16.24a.362.362 0 0 0 .332.399h.028a.135.135 0 0 0 .12-.04.398.398 0 0 1 .12-.04.092.092 0 0 1 .08.08v.04l-.04.199a2.34 2.34 0 0 1-.4.757l-.12.16c-.106.4-.345.75-.679.996a.6.6 0 0 0-.16.12.672.672 0 0 1-.12.16c-.04.039-.12.158-.24.318a1.935 1.935 0 0 1-.319.279c-.16.12-.24.2-.24.24l-.12.198c-.04.04-.08.08-.12.08-.12 0-.2-.12-.28-.319-.08-.199-.08-.199-.2-.199a.8.8 0 0 0-.239.04l-.16.04h-.48a3.597 3.597 0 0 0-.718.12.188.188 0 0 1-.12.04c-.04 0-.04 0-.08-.08a.135.135 0 0 1-.04-.12c.043-.374.18-.73.4-1.037a1.23 1.23 0 0 1 .359-.398.588.588 0 0 0-.36-.439l-.2-.08c-.04 0-.04-.04-.04-.08 0-.039.12-.159.28-.238.223-.116.468-.184.72-.2.24.013.467.112.639.28.36.279.44.318.6.318a.529.529 0 0 0 .519-.518 1.219 1.219 0 0 0-.32-.678 1.652 1.652 0 0 1-.48-1.036c.005-.209.06-.414.16-.598l.12-.2a.164.164 0 0 0 .04-.119c0-.08-.08-.16-.24-.16a2.77 2.77 0 0 0-.919.32.4.4 0 0 0-.24.279.12.12 0 0 0 .04.08l.16.08.04.04a.14.14 0 0 0-.04.079l-.24.319c-.15.205-.325.393-.519.558a.315.315 0 0 0-.12.12c-.035.069-.075.135-.12.199a1.82 1.82 0 0 1-.559.558c-.08.08-.16.12-.16.16 0 .039-.04.079-.12.159-.046.096-.1.19-.16.279a1.821 1.821 0 0 1-.32.398l-.359.359c-.174.238-.296.51-.36.797-.08.28-.16.439-.2.439-.04 0-.04-.04-.12-.08-.239-.28-.479-.478-.599-.478-.04 0-.08.04-.16.08a.73.73 0 0 1-.36.119l-.479.08a1.068 1.068 0 0 0-.719.398c-.04.04-.08.08-.12.08-.04 0-.08-.08-.08-.16v-.119l.08-.359c.057-.285.137-.565.24-.837l.2-.399a.673.673 0 0 0 .08-.199.733.733 0 0 0-.68-.598c-.08 0-.12-.04-.12-.08.059-.12.14-.228.24-.318.229-.184.507-.295.8-.32.195.013.386.068.559.16l.28.12c.088.04.183.067.28.08.279 0 .599-.28.958-.877.13-.19.212-.41.24-.638 0-.32-.16-.518-.4-.518a.8.8 0 0 0-.559.239.617.617 0 0 0-.2.398v.2c0 .12-.04.199-.12.199-.08 0-.28-.16-.799-.797a1.62 1.62 0 0 1-.48-1.116c-.439-.558-.559-.798-.559-1.196v-.28a1.153 1.153 0 0 1-.4-.876.478.478 0 0 1 .08-.32 1.258 1.258 0 0 1-.24-.477l-.08-.28a1.402 1.402 0 0 0-.199-.478c-.12-.16-.12-.199-.12-.239 0-.16.12-.2.56-.319 0-.092-.024-.187-.04-.279-.003-.108.01-.215.04-.319l.08-.478a1.9 1.9 0 0 0 .04-.399 1.14 1.14 0 0 0-.08-.398.668.668 0 0 0-.12-.28l-.08-.159a.088.088 0 0 1 .08-.08c.3.097.573.26.799.479.72.598.879.837.999 1.594a.54.54 0 0 0 .04.24 1.07 1.07 0 0 1 .52.916 1.667 1.667 0 0 1-.24.837l-.24.399a.772.772 0 0 0-.12.438c.008.27.091.532.24.758.2.359.36.478.56.478.319 0 .639-.598.639-1.236v-.318a1.794 1.794 0 0 1 .04-.439 2.1 2.1 0 0 0 .04-.359V5.7a.362.362 0 0 0-.12-.239l-.28-.319a2.1 2.1 0 0 1-.64-1.156.641.641 0 0 1 .604-.674h.036a.849.849 0 0 1 .28.04v-.08c0-.557.12-.996.28-.996h.08l.239.2.28.159.08.08c0-.16 0-.16.16-.36.057-.076.11-.156.16-.238a.398.398 0 0 0 .12-.2c.04-.04.04-.08.08-.12.04-.04.079-.079.119-.079.04 0 .08.04.12.2.04.08.04.119.28.318l.16.16c.04.04.04.12.12.239 0 .04.04.04.04.12.069-.09.15-.17.24-.24l.199-.12c.08-.04.12-.08.16-.08l.08.08c.04.04.04.12.12.2a1.4 1.4 0 0 1 .2.478v.28c.439.119.559.358.559.797a1.593 1.593 0 0 1-.52 1.076c-.24.279-.24.319-.24.478 0 .957.68 1.475 1.839 1.515h.839c.476 0 .95.08 1.398.239.306.13.63.21.96.24a.232.232 0 0 0 .16-.04c.04-.04.08-.08.08-.12 0-.16-.32-.32-1.36-.598-2.117-.598-2.996-1.435-2.996-2.83a1.95 1.95 0 0 1 1.244-1.784c.24-.093.496-.139.754-.134h.084c.433.005.864.072 1.278.2l.52.199a.605.605 0 0 0 .28.04c.16 0 .28-.16.28-.439 0-.16.04-.199.16-.199.119 0 .359.2.599.478.187.246.31.533.36.837a.752.752 0 0 1-.44.678 1.237 1.237 0 0 1-1.12.638c-.359 0-.878-.2-1.758-.718-.32-.159-.44-.239-.599-.239-.24 0-.36.12-.36.32 0 .198.16.318.52.438.349.084.667.263.919.518.486.07.95.246 1.359.518 1.119.359 1.838 1.116 1.838 1.993a1.385 1.385 0 0 1-1.295 1.475h-.104a.672.672 0 0 1-.68.08" fill="#160620"/><path d="M36.535 14.629a1.073 1.073 0 0 1-.04-.319v-.12l.04-.199v-.16c0-.136-.028-.271-.08-.398l-.16-.2-.12-.238c0-.04-.04-.08-.04-.12a.088.088 0 0 1 .08-.08c.04 0 .04 0 .16.08a.135.135 0 0 0 .12.04c.08 0 .12-.12.12-.359a.796.796 0 0 0-.08-.438l-.2-.2-.16-.159c-.04-.04-.08-.08-.08-.12 0-.04.04-.08.12-.08.096.016.19.042.28.08h.04c.04 0 .08-.04.08-.12v-.039l-.04-.279-.08-.279c-.04-.08-.04-.12-.08-.12h-.04l-.32.08h-.04a1.105 1.105 0 0 1-.998-.797l-.24-.837a2.037 2.037 0 0 0-.6-.797.676.676 0 0 0-.24-.12l-.24-.04a.088.088 0 0 1-.08-.08c0-.04.04-.08.16-.08l.44.04c.232.03.46.083.68.16.282.108.578.176.879.2a.921.921 0 0 0 1.03-.798v-.128a1.557 1.557 0 0 0-.519-1.116 1.2 1.2 0 0 0-.44-.279.088.088 0 0 0-.08.08v.16c0 .08-.04.12-.08.12s-.119-.08-.239-.24a1.196 1.196 0 0 0-1.039-.797c-.08 0-.12.04-.12.08s.04.08.08.199l.12.239c.02.038.033.078.04.12l-.04.04a.265.265 0 0 1-.2-.12l-.2-.2-.16-.239a1.198 1.198 0 0 0-.519-.438 2.66 2.66 0 0 0-.32-.16.252.252 0 0 0-.16-.04.088.088 0 0 0-.08.08.135.135 0 0 0 .04.12c.08.16.12.2.12.239a.087.087 0 0 1-.08.08c-.08 0-.32-.2-.479-.479a1.246 1.246 0 0 1-.24-.717.92.92 0 0 1 .883-.957h.076c.342.022.673.132.96.32l.599.358c.217.135.464.217.72.239.122-.01.243-.038.359-.08a.28.28 0 0 0 .16-.08c.04-.04.08-.04.08-.08 0-.039 0-.04-.04-.04l-.08-.039-.28-.04a.873.873 0 0 1-.36-.12l-.64-.318c-.199-.12-.359-.2-.439-.24-.08-.04-.16-.08-.16-.119 0-.04 0-.04.04-.04a.165.165 0 0 1 .12.04.929.929 0 0 0 .48.16l.56.199c.273.083.554.136.838.16a.444.444 0 0 0 .44-.44.967.967 0 0 0-.24-.557l-.08-.08c-.04 0-.08.04-.08.12v.12l.04.159a.267.267 0 0 1-.24.279.377.377 0 0 1-.2-.04l-.838-.28a3.88 3.88 0 0 0-1.36-.278 1.645 1.645 0 0 0-1.745 1.522.531.531 0 0 0 0 .076c0 .997.719 1.674 2.477 2.272 1.758.598 1.998.758 1.998 1.196a.562.562 0 0 1-.56.478.801.801 0 0 1-.319-.04c-.04 0-.36-.08-.879-.199a6.966 6.966 0 0 0-1.598-.2c-1.24 0-1.958.24-2.558.798-.16.16-.2.16-.36.16h-.28a.4.4 0 0 0-.359.239c-.08.111-.148.232-.2.359a.203.203 0 0 1-.16.08c-.12 0-.2-.08-.32-.4a1.469 1.469 0 0 0-.279-.398l-.24-.24-.08-.079a.134.134 0 0 1 .04-.12c.077-.099.144-.206.2-.318.04-.16.04-.16.12-.16.08 0 .12.08.12.359.013.127.054.25.12.359l.16.319c0 .04.08.08.12.08.12 0 .32-.32.36-.638.039-.32.079-.36.119-.36.04 0 .04 0 .04.04l.12.24c.04.076.094.144.16.2.08.039.12.079.16.079.12 0 .12-.08.16-.32v-.119l-.04-.199v-.12c0-.08.04-.12.08-.12s.08 0 .08.04l.12.12a.326.326 0 0 0 .239.12c.12 0 .16-.04.16-.12 0-.08-.04-.12-.12-.279l-.08-.16c-.12-.198-.2-.278-.28-.278h-.12l-.16.08c-.04 0-.08.04-.12.04a.036.036 0 0 1-.04-.04c.033-.184.1-.36.2-.519.137-.314.205-.654.2-.996.04-.678.12-1.116.24-1.116s.08.04.08.199v.279a.424.424 0 0 0 .04.2c.12 0 .24-.16.36-.44.038-.088.065-.182.08-.278V4.3l-.24-.478-.24-.08a.12.12 0 0 1-.08-.04v-.319l-.04-.2-.04-.119-.08-.16a1.463 1.463 0 0 0-.52.4c-.12.119-.16.199-.2.199a.088.088 0 0 1-.08-.08.397.397 0 0 1 .04-.2v-.079a.845.845 0 0 0-.439-.718l-.08.12-.08.12-.16.199a1.345 1.345 0 0 0-.12.24c0 .039-.04.119-.04.159v.08c0 .119 0 .119-.04.119h-.04l-.08-.12-.159-.16-.2-.159-.12-.08a.136.136 0 0 0-.04.12.65.65 0 0 0-.08.2v.438c0 .12-.04.16-.08.16s-.08-.04-.16-.08a.32.32 0 0 0-.2-.04c-.199 0-.319.12-.319.359-.003.24.067.477.2.677l.16.2c.04.04.12.12.12.08l.04-.28-.04-.199V4.5c0-.08.04-.12.08-.12s.12.08.16.28l.12.478.12.598c.038.177.091.35.16.518.119.24.159.399.199.439.16.199.16.199.16.239a.04.04 0 0 1-.04.04.136.136 0 0 1-.12-.04c-.04-.04-.08-.04-.16-.04h-.12c-.2 0-.24.16-.24 1.036.004.527.085 1.051.24 1.555l.28.678c.044.1.07.209.08.319 0 .916-1.239 2.391-2.598 3.069a1.028 1.028 0 0 0-.719 1.036v.16c.125-.1.28-.156.44-.16.4-.08.44-.16.52-.319l.04-.16c0-.079.04-.079.359-.238a.455.455 0 0 0 .2-.16c.08-.12.12-.16.16-.16.04 0 .04 0 .04.04v.04l-.12.36v.079a.712.712 0 0 0 .44.638c.008-.184.063-.362.159-.518l.24-.36a.962.962 0 0 0 .12-.557 1.352 1.352 0 0 0-.04-.399v-.12c0-.08.04-.119.08-.119s.08 0 .08.04l.04.239c0 .04.08.08.12.08.12 0 .279-.16.439-.439a.53.53 0 0 0 .08-.319v-.159l-.04-.2v-.04c0-.079.04-.159.12-.159.08 0 .04 0 .04.04l.08.28c.04.079.08.159.16.159s.24-.16.32-.32c.079-.16.12-.338.119-.517 0-.28.04-.36.12-.36.08 0 .04 0 .08.04l.04.16c0 .08.04.12.08.12a.773.773 0 0 0 .28-.32.162.162 0 0 0 .04-.119.222.222 0 0 0-.12-.16c-.12-.119-.16-.119-.16-.278a.736.736 0 0 1 .16-.439c.068-.098.122-.205.16-.319.16-.319.2-.398.28-.398.079 0 .079.04.079.12a.164.164 0 0 1-.04.119.278.278 0 0 0-.04.16.088.088 0 0 0 .08.08 1.41 1.41 0 0 0 .24-.08 1.6 1.6 0 0 1 .36-.16l.439-.16a.757.757 0 0 1 .48 0 .93.93 0 0 0 .28.04.188.188 0 0 0 .2-.171v-.028a.941.941 0 0 0-.2-.399c-.04-.04-.08-.08-.08-.12v-.039c0-.04.04-.04.08-.04.199.132.363.31.479.518 1.119 1.714 1.478 2.153 2.238 2.392.759.24.959.399.959.837-.04.338-.18.657-.4.917-.56.797-.68 1.076-.68 1.594v.08c.08-.04.12-.04.16-.08.12-.04.16-.08.2-.08l.32-.079c.08 0 .2-.16.2-.28v-.039l-.04-.279v-.04a.434.434 0 0 1 .12-.279c.04 0 .04-.04.08-.04s.08.04.12.08l.2.438c.04.16.12.28.399.4M26.224 5.342c-.08 0-.16.08-.16.239l-.04.239a1.446 1.446 0 0 0-.04.319c0 .2.04.319.12.319.08 0 .2-.16.28-.32a.796.796 0 0 0 .04-.278c0-.08-.04-.2-.04-.28-.04-.159-.12-.238-.16-.238" fill="#A7A1AB"/><path d="M25.147 3.468l.16.16c.333.415.49.944.44 1.474a6.367 6.367 0 0 1-.04.678c0 .2-.04.399-.04.518 0 1.595.519 2.79 1.198 2.79.2 0 .36-.12.56-.398.04-.04.08-.08.12-.08.04 0 .08.04.08.12l.04.279.04.239.04.279.04.24v.039c0 .08-.04.12-.08.12l-.24.04a.735.735 0 0 0-.36.159c-.2.12-.32.2-.32.24l-.16.278a.088.088 0 0 1-.08.08c-.08 0-.2-.12-.32-.359a1.625 1.625 0 0 1-.199-.399c0-.04.04-.04.12-.04h.44a.088.088 0 0 0 .08-.08.168.168 0 0 0-.04-.079l-.56-.239a1.161 1.161 0 0 1-.44-.438 1.992 1.992 0 0 1-.24-.559.108.108 0 0 1 .093-.12h.027c.04 0 .04 0 .08.04a.224.224 0 0 0 .16.04.088.088 0 0 0 .08-.08c0-.039-.04-.079-.12-.119a1.597 1.597 0 0 1-.759-1.076c0-.08.04-.16.08-.16h.08l.16.04c.08 0 .12-.04.12-.08s-.04-.079-.12-.119a2.046 2.046 0 0 0-.2-.12.375.375 0 0 1-.16-.199 2.856 2.856 0 0 1-.2-.398l-.16-.36a1.65 1.65 0 0 1-.12-.198.482.482 0 0 1-.08-.12.8.8 0 0 1 .4-.12c.16 0 .28.12.4.439.08.2.16.319.2.319.04 0 .04-.04.04-.16a1.502 1.502 0 0 0-.04-.398.727.727 0 0 1-.04-.28l-.04-.159-.16-.08c-.04 0-.08-.08-.12-.12a.518.518 0 0 1-.12-.278.55.55 0 0 1 .04-.24 3.93 3.93 0 0 0 .16-.836v-.12h.08zM26.665 12.716a2.136 2.136 0 0 1-.36-.08.543.543 0 0 1-.24-.12 1.436 1.436 0 0 0-.48-.119.849.849 0 0 0-.519.2l.12.079.24.16.24.199c.08.04.12.08.2.08a1.077 1.077 0 0 0 .799-.4M31.622 15.028a.932.932 0 0 1 .24-.32c.359-.318.519-.517.519-.717v-.279c0-.16.04-.199.12-.199.08 0 .08 0 .08.04l.08.16c0 .04.04.04.12.04.08 0 .12-.04.2-.16l.12-.16a.307.307 0 0 0 .079-.239.314.314 0 0 0-.04-.16c0-.04-.04-.08-.08-.199a.374.374 0 0 1-.04-.199.107.107 0 0 1 .092-.12h.028c.04 0 .08 0 .08.04l.12.12c.04.04.04.04.08.04a.128.128 0 0 0 .12-.12l.12-.2a.163.163 0 0 0 .04-.119c0-.04-.04-.08-.12-.12l-.16-.079a.99.99 0 0 1-.4-.837.137.137 0 0 1 .04-.12l.08-.199a.373.373 0 0 0 .04-.2.795.795 0 0 0-.12-.398c-.12-.16-.16-.24-.16-.279-.08-.2-.12-.24-.16-.24h-.08l-.08.04-.16.08-.16.2-.159.08c-.12.04-.2.279-.2.478 0 .319.04.438.48 1.196.14.218.235.462.28.717 0 .518-.48.877-1.4 1.116l-.598.16a1.075 1.075 0 0 0-.8.917.969.969 0 0 1 .56-.12h.24a.296.296 0 0 0 .32-.16.995.995 0 0 1 .439-.358l.2-.08.16-.08h.04c.04 0 .08 0 .08.04a.399.399 0 0 1-.12.2.625.625 0 0 0-.2.478c-.12.12-.08.16.04.319" fill="#A7A1AB"/><path d="M29.98 13.035c.15.099.286.22.4.358.12.16.16.2.28.2a.4.4 0 0 0 .2-.04l.12-.04c.2-.04.28-.08.28-.12 0-.04-.04-.08-.08-.12l-.16-.119-.16-.12a.74.74 0 0 0-.44-.159.96.96 0 0 0-.44.16M34.14 13.752h.36a.564.564 0 0 0 .56-.478c0-.08-.08-.12-.24-.12-.32-.08-.52.12-.68.598" fill="#A7A1AB"/><path d="M29.386 4.903c0 .12.08.2.12.2.04 0 .12-.16.24-.36a2.04 2.04 0 0 0 .36-.757.091.091 0 0 0-.08-.08l-.16.12c-.14.09-.287.17-.44.24-.16.04-.2.119-.2.199v.12l.08.198.08.12zM28.59 4.225l.2.12c.04.04.08.08.08.12v.08a.55.55 0 0 0 0 .278.217.217 0 0 1-.117.215.22.22 0 0 1-.082.024h-.04c-.04 0-.04-.04-.12-.159l-.28-.319a1.222 1.222 0 0 1-.2-.558v-.04c0-.08.04-.08.08-.08s.08.04.16.08l.32.24zM29.1 5.58h-.24a.5.5 0 0 0-.16-.079.32.32 0 0 0-.2-.04.188.188 0 0 0-.2.16c.015.194.07.384.16.558l.16.398c.16.359.28.518.48.518.2 0 .2-.16.32-.438.24-.638.4-.718.4-.957 0-.16-.04-.199-.16-.199l-.12-.04-.2.12h-.24z" fill="#131108"/><path d="M29.038 5.82h-.16c-.04 0-.04 0-.08.04l-.04.08.08.318.04.28c.04.159.08.198.2.198.12 0 .2-.08.2-.239l.04-.279a.661.661 0 0 1 .04-.279c0-.04 0-.04-.04-.08a.14.14 0 0 0-.08-.04h-.2z" fill="#A7A1AB"/></g><defs><clipPath id="a"><path fill="#fff" transform="translate(.172)" d="M0 0h225.66v46H0z"/></clipPath></defs></svg>