<svg width="139" height="42" viewBox="0 0 139 42" fill="none" xmlns="http://www.w3.org/2000/svg"><g clip-path="url(#a)" fill="#fff"><path d="M50.567 8.885v18.468h-3.013l-.215-1.79c-1.005 1.557-2.62 2.094-4.216 2.094-3.838 0-6.726-2.541-6.726-6.818 0-4.492 2.834-6.818 6.654-6.818 1.382 0 3.516.734 4.288 2.094V8.903h3.228v-.018zM39.625 20.839c0 2.273 1.633 3.83 3.713 3.83 2.045 0 3.785-1.486 3.785-3.83a3.714 3.714 0 0 0-2.22-3.495 3.74 3.74 0 0 0-1.421-.317h-.144c-2.062 0-3.695 1.45-3.713 3.812zM55.626 22.011c.215 1.61 1.614 2.774 3.892 2.774 1.184 0 2.762-.448 3.498-1.217l2.063 2.04c-1.381 1.432-3.624 2.112-5.615 2.112-4.502 0-7.175-2.774-7.175-6.944 0-3.954 2.709-6.818 6.942-6.818 4.377 0 7.103 2.702 6.601 8.053H55.626zm7.085-2.666c-.215-1.7-1.543-2.541-3.39-2.541-1.74 0-3.175.84-3.66 2.54h7.05zM70.532 22.011c.215 1.61 1.614 2.774 3.892 2.774 1.184 0 2.763-.448 3.498-1.217l2.063 2.04c-1.381 1.432-3.623 2.112-5.615 2.112-4.502 0-7.175-2.774-7.175-6.944 0-3.954 2.709-6.818 6.942-6.818 4.377 0 7.104 2.702 6.601 8.053H70.532zm7.103-2.666c-.215-1.7-1.543-2.541-3.39-2.541-1.74 0-3.175.84-3.66 2.54h7.05zM82.406 32.81V14.344h3.014l.215 1.79c1.005-1.45 2.762-2.076 4.233-2.076 4.036 0 6.71 2.988 6.71 6.818 0 3.83-2.405 6.818-6.602 6.818-1.381 0-3.408-.43-4.34-1.843v6.979l-3.23-.018zm10.942-11.953c0-2.04-1.38-3.704-3.713-3.704-2.332 0-3.713 1.664-3.713 3.704s1.507 3.704 3.713 3.704c2.206 0 3.713-1.664 3.713-3.704zM106.675 17.797c-.932-.877-1.991-1.163-3.228-1.163-1.543 0-2.386.483-2.386 1.288s.771 1.324 2.439 1.432c2.458.16 5.597.716 5.597 4.17 0 2.308-1.883 4.276-5.614 4.276-2.063 0-4.126-.34-6.046-2.326l1.597-2.29c.933 1.037 3.049 1.789 4.502 1.825 1.22.017 2.35-.609 2.35-1.557 0-.895-.735-1.27-2.601-1.378-2.457-.18-5.4-1.074-5.4-4.045 0-3.006 3.122-4.062 5.508-4.062 2.045 0 3.569.394 5.076 1.718l-1.794 2.112zM113.385 22.011c.216 1.61 1.615 2.774 3.893 2.774 1.184 0 2.762-.448 3.498-1.217l2.062 2.04c-1.381 1.432-3.623 2.112-5.614 2.112-4.502 0-7.175-2.774-7.175-6.944 0-3.954 2.708-6.818 6.942-6.818 4.377 0 7.103 2.702 6.601 8.053h-10.207zm7.104-2.666c-.216-1.7-1.543-2.541-3.391-2.541-1.74 0-3.175.84-3.659 2.54h7.05zM135.898 14.343h3.103V27.38h-3.049l-.162-1.897c-.735 1.539-2.78 2.272-4.233 2.308-3.875.018-6.727-2.344-6.727-6.925 0-4.492 2.996-6.836 6.816-6.818 1.758 0 3.409.823 4.162 2.111l.09-1.816zm-7.839 6.496c0 2.487 1.722 3.955 3.874 3.955 5.077 0 5.077-7.892 0-7.892-2.152 0-3.874 1.45-3.874 3.937zM22.01 24.937a7.145 7.145 0 0 0-.951-9.037 7.45 7.45 0 0 0-1.005-.823l-.09-.072c-.143-.09-.268-.179-.412-.25a1.207 1.207 0 0 1-.197-.126c-.108-.053-.233-.107-.34-.16a2.555 2.555 0 0 0-.324-.144c-.107-.036-.161-.054-.25-.09l-.431-.16-.144-.036a7.125 7.125 0 0 0-3.874 0l-.144.035c-.146.04-.29.088-.43.144-.09.035-.18.053-.252.09-.071.035-.197.088-.305.142-.107.054-.233.108-.358.18-.054.035-.126.07-.18.107a3.779 3.779 0 0 0-.359.214l-3.067-3.078a11.546 11.546 0 0 1 15.193.985l2.117-2.112A14.552 14.552 0 0 0 6.762 9.744l-2.51-2.506a18.114 18.114 0 0 1 12.423-4.24 18.107 18.107 0 0 1 12.026 5.26l2.116-2.111A21.093 21.093 0 0 0 15.93 0 21.093 21.093 0 0 0 1.04 6.147L0 7.203l9.884 9.86a7.145 7.145 0 0 0 .95 9.037c.31.309.646.59 1.005.841l.072.054.43.268c.072.036.126.072.198.108.107.053.233.107.34.16.098.056.2.104.305.144.108.036.18.071.251.09.141.055.285.103.43.142.055.018.108.018.144.036a7.125 7.125 0 0 0 3.875 0l.143-.036c.147-.04.29-.087.431-.143.09-.035.18-.053.251-.09.072-.035.197-.089.305-.142.108-.054.233-.108.34-.161.073-.036.126-.072.198-.108.108-.071.233-.125.341-.197l3.085 3.078a11.546 11.546 0 0 1-15.193-.975l-2.117 2.112a14.57 14.57 0 0 0 19.445.984l2.511 2.505A18.114 18.114 0 0 1 15.2 39.011a18.107 18.107 0 0 1-12.025-5.26l-2.117 2.102A21.093 21.093 0 0 0 15.947 42c5.583 0 10.938-2.21 14.888-6.147l1.058-1.056-9.883-9.86zm-3.552-.18a.136.136 0 0 1-.072.037c-.23.142-.47.268-.717.375l-.036.018a4.526 4.526 0 0 1-3.354 0 .062.062 0 0 1-.036-.018 5.446 5.446 0 0 1-.718-.375c-.018-.018-.054-.018-.072-.036a4.543 4.543 0 0 1-2.012-3.767 4.53 4.53 0 0 1 2.012-3.767.136.136 0 0 1 .072-.036c.23-.143.47-.268.718-.376l.053-.018a4.526 4.526 0 0 1 3.355 0l.036.018c.248.108.488.233.717.376.018.018.054.018.072.036a4.52 4.52 0 0 1 2.02 3.772 4.508 4.508 0 0 1-2.038 3.762z"/></g><defs><clipPath id="a"><path fill="#fff" d="M0 0h139v42H0z"/></clipPath></defs></svg>