<svg id="logo_hesso_negatif" data-name="logo hesso negatif" xmlns="http://www.w3.org/2000/svg" width="136.435" height="37.36" viewBox="0 0 136.435 37.36">
  <g id="Groupe_422" data-name="Groupe 422">
    <g id="Groupe_420" data-name="Groupe 420" transform="translate(77.987)">
      <path id="Tracé_931" data-name="Tracé 931" d="M1391.222,206.84l-7.406,15.772a3.825,3.825,0,0,0-.573,1.9,2.493,2.493,0,0,0,2.476,2.562c1.625,0,2.262-1.267,2.727-2.193l7.69-16.315a3.726,3.726,0,0,0,.427-1.668,2.482,2.482,0,0,0-2.5-2.507c-1.656,0-2.339,1.413-2.837,2.445m-7.127,17.676a2.956,2.956,0,0,1,.473-1.5l7.382-15.728c.5-1.045.99-2.043,2.109-2.043a1.616,1.616,0,0,1,1.649,1.653,2.975,2.975,0,0,1-.343,1.306s-7.681,16.286-7.686,16.3c-.423.845-.86,1.721-1.961,1.721a1.653,1.653,0,0,1-1.624-1.71" transform="translate(-1383.243 -204.395)" fill="#fff"/>
      <path id="Tracé_932" data-name="Tracé 932" d="M1426.421,206.841c-.043.089-7.406,15.771-7.406,15.771a3.845,3.845,0,0,0-.574,1.9,2.494,2.494,0,0,0,2.475,2.562c1.633,0,2.266-1.267,2.728-2.2l7.691-16.311a3.758,3.758,0,0,0,.426-1.668,2.481,2.481,0,0,0-2.5-2.507c-1.657,0-2.339,1.415-2.838,2.446m-7.127,17.675a2.943,2.943,0,0,1,.473-1.5c.021-.046,7.383-15.728,7.383-15.728.505-1.043.989-2.043,2.108-2.043a1.62,1.62,0,0,1,1.654,1.653,2.871,2.871,0,0,1-.35,1.3s-7.677,16.284-7.686,16.3c-.42.848-.856,1.723-1.96,1.723a1.65,1.65,0,0,1-1.622-1.71" transform="translate(-1411.393 -204.395)" fill="#fff"/>
      <path id="Tracé_933" data-name="Tracé 933" d="M1502.133,217.06a1.062,1.062,0,0,1-.079-.414.838.838,0,0,1,.861-.809.848.848,0,0,1,.766.55l1.735,4.663,1.739-4.663a.837.837,0,0,1,1.623.259,1.081,1.081,0,0,1-.077.414l-2.454,6.246a.856.856,0,0,1-1.661,0Z" transform="translate(-1478.263 -213.545)" fill="#fff"/>
      <path id="Tracé_934" data-name="Tracé 934" d="M1533.391,218.192a1.318,1.318,0,0,1,1.2-.929,1.267,1.267,0,0,1,1.2.929l2.2,6.1a1.284,1.284,0,0,1,.089.417.745.745,0,0,1-.773.739.788.788,0,0,1-.818-.583l-.338-1.055h-3.114l-.339,1.043a.776.776,0,0,1-.8.595.8.8,0,0,1-.828-.784,1.025,1.025,0,0,1,.074-.372Zm.123,4.07h2.13l-1.044-3.25h-.02Z" transform="translate(-1501.463 -214.685)" fill="#fff"/>
      <path id="Tracé_935" data-name="Tracé 935" d="M1569.831,218.466a.842.842,0,1,1,1.683,0v5.628h2a.764.764,0,0,1,.809.807.789.789,0,0,1-.809.742h-2.8a.832.832,0,0,1-.874-.92Z" transform="translate(-1532.469 -214.947)" fill="#fff"/>
      <path id="Tracé_936" data-name="Tracé 936" d="M1596.411,218.192a1.319,1.319,0,0,1,1.2-.929,1.269,1.269,0,0,1,1.2.929l2.2,6.1a1.331,1.331,0,0,1,.09.417.748.748,0,0,1-.775.739.786.786,0,0,1-.816-.583l-.341-1.055h-3.112l-.337,1.043a.782.782,0,0,1-.809.595.8.8,0,0,1-.826-.784.927.927,0,0,1,.08-.372Zm.122,4.07h2.132l-1.043-3.25h-.024Z" transform="translate(-1551.862 -214.685)" fill="#fff"/>
      <path id="Tracé_937" data-name="Tracé 937" d="M1632.867,218.466a.842.842,0,1,1,1.682,0v6.368a.842.842,0,1,1-1.682,0Z" transform="translate(-1582.883 -214.947)" fill="#fff"/>
      <path id="Tracé_938" data-name="Tracé 938" d="M1651.609,218.478a.778.778,0,0,1-.754.828c-.46,0-.816-.337-1.488-.337-.483,0-.92.258-.92.729,0,1.155,3.745.416,3.745,3.308a2.665,2.665,0,0,1-2.871,2.6c-.864,0-2.721-.2-2.721-1.257a.747.747,0,0,1,.75-.8c.524,0,1.153.437,1.88.437s1.143-.414,1.143-.965c0-1.322-3.74-.527-3.74-3.128a2.592,2.592,0,0,1,2.782-2.543c.624,0,2.194.234,2.194,1.121" transform="translate(-1593.866 -214.76)" fill="#fff"/>
      <path id="Tracé_939" data-name="Tracé 939" d="M1498.127,267.3a1.374,1.374,0,0,1-.045-.382.765.765,0,0,1,.8-.74.854.854,0,0,1,.895.809l.954,4.763h.022l1.457-4.911a.908.908,0,0,1,1.748,0l1.457,4.911h.024l.952-4.763a.859.859,0,0,1,.894-.809.764.764,0,0,1,.8.74,1.392,1.392,0,0,1-.043.382l-1.419,6.12a1.094,1.094,0,0,1-1.114.874,1.145,1.145,0,0,1-1.108-.819l-1.3-4.325h-.024l-1.3,4.325a1.144,1.144,0,0,1-1.109.819,1.092,1.092,0,0,1-1.11-.874Z" transform="translate(-1475.087 -253.8)" fill="#fff"/>
      <path id="Tracé_940" data-name="Tracé 940" d="M1548.839,266.772a1.314,1.314,0,0,1,1.2-.933,1.27,1.27,0,0,1,1.2.933l2.2,6.1a1.361,1.361,0,0,1,.089.413.747.747,0,0,1-.775.74.783.783,0,0,1-.817-.582l-.339-1.051h-3.113l-.339,1.042a.781.781,0,0,1-.809.591.8.8,0,0,1-.825-.784,1.026,1.026,0,0,1,.078-.37Zm.12,4.068h2.132l-1.044-3.252h-.017Z" transform="translate(-1513.817 -253.529)" fill="#fff"/>
      <path id="Tracé_941" data-name="Tracé 941" d="M1585.289,267.051a.842.842,0,1,1,1.683,0v5.628h2a.758.758,0,0,1,.8.811.783.783,0,0,1-.8.739h-2.8a.835.835,0,0,1-.876-.921Z" transform="translate(-1544.832 -253.8)" fill="#fff"/>
      <path id="Tracé_942" data-name="Tracé 942" d="M1610.262,267.051a.841.841,0,1,1,1.68,0v5.628h2a.763.763,0,0,1,.805.811.785.785,0,0,1-.805.739h-2.8a.833.833,0,0,1-.875-.921Z" transform="translate(-1564.804 -253.8)" fill="#fff"/>
      <path id="Tracé_943" data-name="Tracé 943" d="M1635.218,267.051a.842.842,0,1,1,1.682,0v6.369a.842.842,0,1,1-1.682,0Z" transform="translate(-1584.763 -253.8)" fill="#fff"/>
      <path id="Tracé_944" data-name="Tracé 944" d="M1652.212,266.966a.776.776,0,0,1-.753.828c-.457,0-.816-.336-1.49-.336-.482,0-.919.257-.919.729,0,1.154,3.746.414,3.746,3.308a2.663,2.663,0,0,1-2.87,2.6c-.864,0-2.724-.2-2.724-1.257a.748.748,0,0,1,.751-.8c.527,0,1.152.438,1.884.438s1.141-.417,1.141-.964c0-1.326-3.741-.528-3.741-3.131a2.591,2.591,0,0,1,2.776-2.543c.63,0,2.2.236,2.2,1.122" transform="translate(-1594.347 -253.533)" fill="#fff"/>
    </g>
    <g id="Groupe_421" data-name="Groupe 421" transform="translate(0 2.954)">
      <path id="Tracé_945" data-name="Tracé 945" d="M1264.742,245.169c1.017.311,3.324,1.05,3.324,3.585a3.483,3.483,0,0,1-1.421,2.821,6.532,6.532,0,0,1-4.058,1.147,9.791,9.791,0,0,1-3.474-.6c-.127-.046-.255-.1-.383-.141l-.124-.217c.1-.932.1-1.052.153-2.005l.251-.074a5.622,5.622,0,0,0,3.526,1.147c2.006,0,2.739-1.053,2.739-1.793,0-1.1-1.089-1.456-2.635-1.936l-.811-.262c-1.041-.309-3.322-1-3.322-3.464s2.282-3.681,5.122-3.681a10.2,10.2,0,0,1,3.651.668l.126.168c-.1.885-.126.979-.206,1.887l-.226.1a5.854,5.854,0,0,0-3.271-.955,4.346,4.346,0,0,0-1.092.118,1.612,1.612,0,0,0-1.4,1.437c0,1.025,1.039,1.338,2.616,1.79Z" transform="translate(-1205.497 -235.578)" fill="#fff"/>
      <path id="Tracé_946" data-name="Tracé 946" d="M1326.676,246.125a6.913,6.913,0,0,1-.586,3.18,3.123,3.123,0,0,1-2.888,1.6,3.532,3.532,0,0,1-1.5-.312c-2.007-.955-2.031-3.369-2.031-4.325a6.019,6.019,0,0,1,.762-3.369,3.221,3.221,0,0,1,2.787-1.386,3.007,3.007,0,0,1,2.717,1.361,7.159,7.159,0,0,1,.735,3.251m2.764-.1a6.866,6.866,0,0,0-1.547-4.612,6.141,6.141,0,0,0-4.541-1.72,5.936,5.936,0,0,0-6.466,6.522,6.705,6.705,0,0,0,1.749,4.875,6.306,6.306,0,0,0,4.54,1.6,6.112,6.112,0,0,0,4.386-1.459,5.555,5.555,0,0,0,1.649-2.893,9.647,9.647,0,0,0,.231-2.318" transform="translate(-1252.187 -235.578)" fill="#fff"/>
      <path id="Tracé_947" data-name="Tracé 947" d="M1232,266.256a1.509,1.509,0,1,1-1.509-1.51,1.509,1.509,0,0,1,1.509,1.51" transform="translate(-1181.883 -255.609)" fill="#fff"/>
      <path id="Tracé_948" data-name="Tracé 948" d="M1009.142,219.283c-.023,1.837-.049,2.961-.049,4.634,0,4.017.074,8.007.277,12.024l-.125.143c-2.156-.026-2.662,0-4.564.072l-.128-.145c.128-3.37.128-4.157.076-7.382-1.016-.025-2.03-.05-3.041-.05-.992,0-1.93.025-3.045.073.026,3.463.05,4.326.2,7.289l-.127.143c-2.232-.026-2.689,0-4.54.072l-.126-.145c.049-2.007.1-3.178.1-5.329,0-5.928-.154-8.867-.282-11.329l.152-.143c2.206,0,2.587,0,4.539-.072l.128.145-.05,6.308c.887,0,1.8.024,2.687.024,1.142,0,2.258-.024,3.373-.049-.024-2.82-.024-3.512-.2-6.214l.128-.143c2.13,0,2.459,0,4.489-.072Z" transform="translate(-993.774 -219.138)" fill="#fff"/>
      <path id="Tracé_949" data-name="Tracé 949" d="M1088.87,244.2a2.8,2.8,0,0,1,1.219-2.32,1.894,1.894,0,0,1,1.014-.262,1.839,1.839,0,0,1,1.623.836,2.775,2.775,0,0,1,.378,1.65Zm7.687,4.277a8.111,8.111,0,0,1-3.959,1.028,3.606,3.606,0,0,1-3.17-1.317,3.242,3.242,0,0,1-.557-1.454l8.193-.146.153-.164a13.153,13.153,0,0,0-.408-3.563,4.792,4.792,0,0,0-3.7-3.587,6.925,6.925,0,0,0-1.8-.215c-3.981,0-6.62,2.463-6.62,6.6a7.594,7.594,0,0,0,.607,3.131c1.473,3.227,4.92,3.514,6.749,3.514a10.34,10.34,0,0,0,4.359-.86l.154-.194.177-2.7Z" transform="translate(-1066.482 -235.066)" fill="#fff"/>
      <path id="Tracé_950" data-name="Tracé 950" d="M1168.85,244.192c1.4.5,3.347,1.2,3.347,3.823a3.687,3.687,0,0,1-.026.526c-.454,3.417-4.258,3.752-6.187,3.752a11.1,11.1,0,0,1-4.159-.813l-.125-.214c.1-1.2.125-1.46.175-2.7l.229-.095a5.619,5.619,0,0,0,1.017.671,6.664,6.664,0,0,0,2.687.667c1.418,0,2-.644,2-1.243,0-.858-1.117-1.218-1.8-1.434l-.962-.334c-1.192-.428-3.3-1.192-3.3-3.751a3.455,3.455,0,0,1,.685-2.1c1.318-1.792,3.806-1.89,5.048-1.89a13.653,13.653,0,0,1,3.878.6l.127.143-.253,2.6-.228.075a5.71,5.71,0,0,0-3.17-1.006c-1.577,0-1.778.789-1.778,1.076,0,.667.687.931,1.55,1.218Z" transform="translate(-1128.074 -235.062)" fill="#fff"/>
    </g>
  </g>
  <path id="Tracé_951" data-name="Tracé 951" d="M1432.728,333.386h-9.753a.88.88,0,0,0-.879.88v9.758a.88.88,0,0,0,.879.88h9.753a.88.88,0,0,0,.88-.88v-9.758A.88.88,0,0,0,1432.728,333.386Zm-2.511,7.826-.1.834H1425.3c-.067,0-.12,0-.138-.044-.026-.066,0-.12.054-.18.082-.1,1.25-1.589,1.742-2.325.122-.185.2-.322.179-.414a3.183,3.183,0,0,0-.343-.578c-.529-.8-1.522-2.058-1.568-2.123-.063-.088-.082-.131-.055-.19.017-.038.055-.038.1-.038h4.95s.012.313.032.638c.021.344.048.7.047.731a.129.129,0,0,1-.084.131c-.054.019-.113-.02-.127-.127a1.482,1.482,0,0,0-.116-.4.9.9,0,0,0-.409-.37,1.671,1.671,0,0,0-.665-.111h-2.049c.493.717,1.192,1.707,1.352,1.986.068.117.066.267-.151.578s-1.411,1.873-1.411,1.873h2.333a1.867,1.867,0,0,0,.762-.116.852.852,0,0,0,.309-.463c.027-.1.04-.2.161-.2.078,0,.095.1.1.162C1430.3,340.5,1430.257,340.868,1430.218,341.212Z" transform="translate(-1336.33 -307.544)" fill="#fff"/>
  <path id="Tracé_952" data-name="Tracé 952" d="M1497.913,333.386h-9.753a.879.879,0,0,0-.879.88v9.758a.88.88,0,0,0,.879.88h9.753a.88.88,0,0,0,.88-.88v-9.758A.88.88,0,0,0,1497.913,333.386Zm-3.534,6.948a.986.986,0,0,0,.213.367.771.771,0,0,0,.4.194.583.583,0,0,0,.474-.146.661.661,0,0,0,.194-.235.96.96,0,0,0,.077-.254c.01-.081.029-.195.032-.222s0-.128.112-.137.126.092.137.2a2.765,2.765,0,0,1-.141.774,2.074,2.074,0,0,1-.33.615,1.359,1.359,0,0,1-.373.337,1.137,1.137,0,0,1-.485.153.756.756,0,0,1-.507-.129,1.68,1.68,0,0,1-.576-.868,3.277,3.277,0,0,1-.123-.912,8.8,8.8,0,0,1,.036-1.107l.2-1.916h-1.33c-.066.771-.129,1.427-.191,1.919s-.12.867-.176,1.221-.119.678-.18.969a1.353,1.353,0,0,1-.221.532.751.751,0,0,1-.424.267.572.572,0,0,1-.461-.092.6.6,0,0,1-.272-.357.682.682,0,0,1-.017-.261.582.582,0,0,1,.063-.2,1.053,1.053,0,0,1,.1-.167c.035-.049.077-.1.118-.149l.2-.235a2.176,2.176,0,0,0,.273-.389,2.71,2.71,0,0,0,.26-.693,14.721,14.721,0,0,0,.2-2.367h-.559a1,1,0,0,0-.457.127,1.111,1.111,0,0,0-.322.271c-.059.074-.212.321-.248.368s-.108.157-.163.141-.047-.086-.038-.141.12-.33.2-.537a2.781,2.781,0,0,1,.337-.607,1.39,1.39,0,0,1,.448-.4,1.182,1.182,0,0,1,.656-.182h4.073a.442.442,0,0,1,.453.477.462.462,0,0,1-.453.485h-1.157a26.86,26.86,0,0,0-.145,2.791A1.446,1.446,0,0,0,1494.38,340.334Z" transform="translate(-1388.462 -307.544)" fill="#fff"/>
  <path id="Tracé_953" data-name="Tracé 953" d="M1563.1,333.386h-9.753a.88.88,0,0,0-.879.88v9.758a.88.88,0,0,0,.879.88h9.753a.88.88,0,0,0,.88-.88v-9.758A.88.88,0,0,0,1563.1,333.386Zm-1.762,6.437a1.583,1.583,0,0,1-.641,1.159,1.467,1.467,0,0,1-.678.272,3.725,3.725,0,0,1-1.05-.111,9.782,9.782,0,0,1-1.016-.39c-.249-.1-.44-.2-.567-.235a2.726,2.726,0,0,0-.862-.157,1.774,1.774,0,0,0-.8.248,1.291,1.291,0,0,0-.436.472c-.038.072-.089.126-.14.1-.07-.032-.068-.168,0-.376a2.112,2.112,0,0,1,.329-.608,1.954,1.954,0,0,1,.616-.5,1.766,1.766,0,0,1,.713-.129,4.387,4.387,0,0,1,1.484.428,4.325,4.325,0,0,0,1.42.365,1.888,1.888,0,0,0,1.1-.315.958.958,0,0,0,.371-.424c.029-.058.067-.071.106-.048C1561.353,339.614,1561.35,339.7,1561.334,339.823Zm0-2.545a1.582,1.582,0,0,1-.641,1.158,1.463,1.463,0,0,1-.678.273,3.736,3.736,0,0,1-1.05-.111,9.837,9.837,0,0,1-1.016-.39c-.249-.1-.44-.2-.567-.235a2.744,2.744,0,0,0-.862-.157,1.779,1.779,0,0,0-.8.248,1.289,1.289,0,0,0-.436.472c-.038.072-.089.126-.14.1-.07-.031-.068-.168,0-.376a2.116,2.116,0,0,1,.329-.608,1.962,1.962,0,0,1,.616-.5,1.767,1.767,0,0,1,.713-.129,4.393,4.393,0,0,1,1.484.428,4.331,4.331,0,0,0,1.42.365,1.893,1.893,0,0,0,1.1-.315.958.958,0,0,0,.371-.424c.029-.059.067-.071.106-.048C1561.353,337.069,1561.35,337.16,1561.334,337.279Z" transform="translate(-1440.592 -307.544)" fill="#fff"/>
  <path id="Tracé_954" data-name="Tracé 954" d="M1628.279,333.386h-9.753a.88.88,0,0,0-.88.88v9.758a.88.88,0,0,0,.88.88h9.753a.88.88,0,0,0,.88-.88v-9.758A.88.88,0,0,0,1628.279,333.386Zm-1.884,8.506a.172.172,0,0,1-.149.112h-.837L1625.4,342l-.715-.794a2.308,2.308,0,0,1-.517.572,1.9,1.9,0,0,1-1.128.422c-.088.007-.176.01-.262.01a2.111,2.111,0,0,1-1.383-.435,1.447,1.447,0,0,1-.52-1.12,1.737,1.737,0,0,1,.594-1.2,6.011,6.011,0,0,1,.89-.761l-.1-.1a3.441,3.441,0,0,1-.416-.48,1.577,1.577,0,0,1-.274-.872,1.305,1.305,0,0,1,.3-.8,1.536,1.536,0,0,1,1-.5,2.631,2.631,0,0,1,.3-.019,1.473,1.473,0,0,1,.578.114,1.4,1.4,0,0,1,.454.284,1.069,1.069,0,0,1,.266.374,1.131,1.131,0,0,1,.1.52,1.405,1.405,0,0,1-.4.928,3.979,3.979,0,0,1-.61.589l1.1,1.2a1.648,1.648,0,0,0,.082-.225c.035-.131.055-.383.071-.482,0-.016.006-.044.011-.077.01-.077.024-.159.039-.231a.187.187,0,0,1,.078-.105.165.165,0,0,1,.145.007.282.282,0,0,1,.1.194,2.81,2.81,0,0,1-.022.9,3.726,3.726,0,0,1-.108.444l1.227,1.329C1626.3,341.689,1626.423,341.8,1626.4,341.892Z" transform="translate(-1492.724 -307.544)" fill="#fff"/>
  <path id="Tracé_955" data-name="Tracé 955" d="M1641.619,350.409a7.013,7.013,0,0,0,.5.583,4.026,4.026,0,0,0,.558-.558.648.648,0,0,0,.152-.736.59.59,0,0,0-.37-.318,1.032,1.032,0,0,0-.293-.04.927.927,0,0,0-.26.034.674.674,0,0,0-.368.244.514.514,0,0,0-.1.379A1.074,1.074,0,0,0,1641.619,350.409Z" transform="translate(-1511.747 -320.302)" fill="#fff"/>
  <path id="Tracé_956" data-name="Tracé 956" d="M1639.426,363.125a.859.859,0,0,0-.248.645.87.87,0,0,0,.333.7,1.046,1.046,0,0,0,.66.208l.076,0a1.562,1.562,0,0,0,.749-.2,1.381,1.381,0,0,0,.444-.41l-1.365-1.52A3.335,3.335,0,0,0,1639.426,363.125Z" transform="translate(-1509.943 -330.867)" fill="#fff"/>
  <path id="Tracé_957" data-name="Tracé 957" d="M1367.544,333.386h-9.753a.88.88,0,0,0-.879.88v9.758a.88.88,0,0,0,.879.88h9.753a.88.88,0,0,0,.88-.88v-9.758A.88.88,0,0,0,1367.544,333.386Zm-6.775,8.48a1.136,1.136,0,1,1,1.135-1.136A1.135,1.135,0,0,1,1360.769,341.866Zm0-3.485a1.136,1.136,0,1,1,1.135-1.136A1.136,1.136,0,0,1,1360.769,338.381Z" transform="translate(-1284.198 -307.544)" fill="#fff"/>
</svg>
