<svg width="172" height="34" viewBox="0 0 172 34" fill="none" xmlns="http://www.w3.org/2000/svg"><path d="M60.434 26.63c0-.582-.02-1.663-.178-1.944-.067-.114-.236-.18-.47-.199l-.235-.018c-.056-.067-.039-.188.017-.226.359.02.706.028 1.073.028.394 0 .647-.009.986-.028.076.047.066.169.02.226l-.227.018c-.234.02-.413.104-.47.227-.13.31-.13 1.39-.13 1.917v1.063c0 .817-.132 1.681-.659 2.244-.405.443-1.101.688-1.796.688-.648 0-1.296-.124-1.756-.517-.498-.414-.733-1.1-.733-2.218v-2.219c0-.978-.02-1.138-.565-1.185l-.233-.018c-.057-.038-.039-.198.017-.226.47.02.79.028 1.166.028.385 0 .696-.009 1.155-.028.057.028.076.188.02.226l-.226.018c-.545.047-.564.207-.564 1.185v2.031c0 1.512.47 2.508 1.907 2.508 1.363 0 1.88-1.07 1.88-2.499v-1.081zM72.715 28.878c0 .281 0 1.4.028 1.644-.018.056-.075.104-.178.104-.113-.16-.385-.49-1.203-1.42l-2.18-2.48c-.255-.293-.894-1.062-1.09-1.27h-.02c-.037.113-.047.33-.047.61v2.049c0 .443.01 1.665.17 1.947.056.103.244.159.48.177l.29.03c.057.074.048.186-.019.234a24.7 24.7 0 0 0-1.099-.029c-.395 0-.648.01-.977.029-.067-.048-.076-.178-.02-.234l.254-.03c.218-.028.367-.084.414-.188.132-.336.122-1.484.122-1.936V25.4c0-.264-.009-.46-.206-.677-.132-.132-.359-.197-.583-.225l-.159-.02c-.057-.056-.057-.197.018-.235.394.028.893.028 1.061.028.152 0 .31-.009.433-.028.188.48 1.298 1.721 1.607 2.068l.911 1.025c.65.723 1.11 1.25 1.553 1.702h.017c.039-.048.039-.199.039-.396V26.63c0-.442-.01-1.664-.188-1.945-.056-.086-.207-.142-.584-.188l-.16-.02c-.065-.056-.056-.207.02-.235.432.02.752.028 1.109.028.403 0 .648-.009.967-.028.076.047.076.18.02.235l-.132.02c-.301.046-.49.121-.527.196-.159.34-.141 1.504-.141 1.937v2.247zM79.716 25.7c0-.997-.02-1.156-.574-1.203l-.235-.019c-.057-.038-.037-.208.02-.236.469.02.789.028 1.184.028.375 0 .694-.008 1.165-.028.056.028.075.198.019.236l-.235.02c-.555.046-.574.205-.574 1.202v3.346c0 .996.02 1.127.574 1.192l.235.03c.056.037.037.206-.02.234-.47-.017-.789-.028-1.164-.028-.395 0-.715.01-1.185.028-.056-.028-.076-.177-.019-.234l.235-.03c.555-.065.574-.196.574-1.192V25.7zM87.327 25.268c-.216-.526-.357-.724-.761-.77l-.171-.02c-.065-.056-.056-.188.02-.236.272.02.573.03.977.03.413 0 .742-.01 1.138-.03.065.04.084.18.019.236l-.142.02c-.357.046-.432.102-.441.177.019.095.177.603.469 1.317.432 1.09.865 2.17 1.336 3.242.29-.62.686-1.587.902-2.086.272-.639.714-1.701.874-2.105a.986.986 0 0 0 .085-.367c0-.066-.095-.142-.424-.179l-.169-.019c-.066-.056-.047-.197.02-.236.262.02.62.03.975.03.311 0 .603-.01.913-.03.065.04.065.188.02.236l-.283.02c-.226.017-.367.131-.49.328-.262.442-.63 1.205-1.052 2.162l-.508 1.155c-.376.867-.817 1.955-.977 2.454a.191.191 0 0 1-.102.028.398.398 0 0 1-.143-.028 11.003 11.003 0 0 0-.432-1.25l-1.653-4.08zM98.642 25.683c0-.98-.02-1.12-.574-1.185l-.15-.02c-.057-.038-.038-.207.018-.235.405.02.724.028 1.11.028h1.767c.601 0 1.156 0 1.268-.028.056.16.113.837.151 1.252-.038.056-.188.074-.235.017-.141-.441-.225-.77-.715-.893-.196-.047-.497-.056-.912-.056h-.677c-.28 0-.28.02-.28.376v1.88c0 .264.029.264.309.264h.546c.394 0 .686-.02.798-.057.115-.038.18-.095.227-.33l.076-.385c.045-.056.204-.056.242.009 0 .226-.038.593-.038.95 0 .338.038.697.038.9-.038.068-.197.068-.242.012l-.087-.366c-.036-.17-.101-.31-.289-.357-.132-.039-.359-.048-.725-.048h-.546c-.28 0-.308.01-.308.255v1.324c0 .498.028.818.176.976.113.113.31.217 1.139.217.724 0 .995-.037 1.203-.141.169-.093.422-.423.666-.91.067-.049.199-.02.235.066-.065.328-.3 1.051-.423 1.304-.846-.017-1.681-.028-2.519-.028h-.845c-.404 0-.725.01-1.28.028-.056-.028-.074-.177-.018-.233l.31-.03c.537-.046.584-.188.584-1.173v-3.383zM108.825 25.692c0-.894-.028-1.054-.412-1.102l-.302-.036c-.065-.048-.065-.199.011-.236a23.122 23.122 0 0 1 2.094-.076c.584 0 1.138.048 1.571.283.449.235.779.659.779 1.318 0 .892-.704 1.38-1.174 1.568-.047.056 0 .151.047.227.75 1.212 1.249 1.964 1.89 2.499.16.14.395.244.648.262.048.02.055.095.009.131a1.46 1.46 0 0 1-.413.048c-.8 0-1.28-.236-1.945-1.184-.246-.348-.631-.996-.923-1.419-.141-.207-.292-.3-.666-.3-.424 0-.442.008-.442.207v1.184c0 .985.018 1.099.564 1.173l.196.03c.056.045.039.205-.017.233a25.735 25.735 0 0 0-1.119-.028c-.396 0-.735.01-1.175.028-.056-.028-.076-.168-.019-.233l.234-.03c.545-.065.564-.188.564-1.173v-3.374zm.772 1.343c0 .169 0 .272.028.31.028.029.169.047.648.047.339 0 .696-.037.968-.245.254-.196.47-.525.47-1.164 0-.743-.459-1.449-1.505-1.449-.581 0-.609.038-.609.302v2.199zM120.185 30.625c-.788 0-1.287-.244-1.467-.348-.112-.207-.233-.874-.253-1.315.048-.067.188-.085.227-.028.141.479.526 1.399 1.616 1.399.789 0 1.176-.515 1.176-1.08 0-.414-.086-.875-.772-1.315l-.891-.583c-.472-.312-1.016-.847-1.016-1.617 0-.893.696-1.617 1.916-1.617.292 0 .63.056.875.121.122.039.252.056.328.056.084.227.169.753.169 1.149-.037.056-.188.084-.234.028-.122-.452-.375-1.064-1.279-1.064-.919 0-1.118.612-1.118 1.045 0 .546.451.939.799 1.155l.752.47c.592.367 1.175.912 1.175 1.805 0 1.034-.78 1.739-2.003 1.739zM128.576 25.7c0-.997-.017-1.156-.573-1.203l-.235-.019c-.057-.038-.038-.208.018-.236.471.02.79.028 1.185.028.377 0 .695-.008 1.167-.028.056.028.075.198.017.236l-.236.02c-.552.046-.571.205-.571 1.202v3.346c0 .996.019 1.127.571 1.192l.236.03c.058.037.039.206-.017.234-.472-.017-.79-.028-1.167-.028-.395 0-.714.01-1.185.028-.056-.028-.075-.177-.018-.234l.235-.03c.556-.065.573-.196.573-1.192V25.7zM139.013 29.066c0 .985.017 1.127.561 1.173l.302.03c.057.037.037.205-.019.234a34.722 34.722 0 0 0-1.231-.029c-.376 0-.705.01-1.308.029-.057-.029-.074-.189 0-.234l.339-.03c.536-.046.584-.188.584-1.173v-4.203c0-.291 0-.3-.283-.3h-.517c-.403 0-.92.02-1.156.235-.225.207-.32.414-.423.65-.074.056-.208.008-.245-.066a9.666 9.666 0 0 0 .357-1.401c.03-.019.151-.028.179 0 .057.3.368.29.801.29h3.807c.506 0 .59-.018.732-.262.047-.018.15-.01.168.028-.104.385-.168 1.146-.14 1.43-.038.074-.198.074-.245.017-.028-.234-.095-.582-.234-.686-.216-.16-.573-.235-1.092-.235h-.667c-.281 0-.27.009-.27.32v4.183zM149.723 29.046c0 1.004.056 1.155.564 1.192l.359.03c.054.057.037.206-.02.234a39.382 39.382 0 0 0-1.279-.028c-.396 0-.732.01-1.231.028-.056-.028-.076-.177-.02-.234l.293-.03c.544-.056.562-.188.562-1.192v-.48c0-.516-.028-.639-.299-1.164l-1.11-2.163c-.32-.62-.46-.667-.742-.714l-.263-.047c-.056-.066-.047-.197.019-.236.299.02.638.028 1.09.028.432 0 .77-.009 1.006-.028.084.028.084.18.028.236l-.121.02c-.33.046-.396.092-.396.168 0 .094.245.63.292.725.346.694.694 1.436 1.062 2.087.29-.5.601-1.045.883-1.59.263-.489.61-1.128.61-1.241 0-.056-.169-.122-.394-.15l-.169-.019c-.065-.066-.056-.197.019-.236a14.116 14.116 0 0 0 1.776 0c.076.048.085.18.02.236l-.264.047c-.489.085-.772.678-1.242 1.486l-.59 1.024c-.415.715-.443.8-.443 1.522v.49zM23.86 3.99c-.024-.047-1.482-.77-1.482-.77-1.854-.388-4.91-.218-7.04.566h-.008c-2.132-.784-5.184-.954-7.04-.565 0 0-1.459.722-1.48.768L4.55 8.976c-.074.14.042.258.17.232 3.436-.652 7.38-.853 10.612-.853h.003c3.231 0 7.177.2 10.612.853.13.026.244-.093.171-.232L23.861 3.99zM14.8 7.58c-2.449-.098-6.675-.098-8.794.66l1.506-3.768 1.027-.55-1.09 3.105c2.207-.417 4.65-.572 7.357.314l-.006.238zm1.033 0v-.24c2.706-.885 5.15-.73 7.356-.313l-1.095-3.105 1.028.55 1.506 3.769c-2.01-.758-6.237-.758-8.795-.662z" fill="#fff"/><path d="M29.342 2.124l-.015-.006-.096-.022A66.563 66.563 0 0 0 1.42 2.1l-.045.01-.042.013c-.73.18-1.265.864-1.265 1.655L.07 6.253c0 17.86 11.05 25.104 14.438 26.9.27.143.552.217.83.217.282 0 .56-.074.828-.22 3.378-1.79 14.432-9.038 14.432-26.897V3.777c0-.772-.52-1.45-1.256-1.653zm-14.631 30c-3.735-2.06-11.234-7.905-13.174-19.888l.091-.019a66.46 66.46 0 0 1 13.083-1.416v21.324zM26.525 20.64l-.006.013a27.36 27.36 0 0 1-2.636 4.378l-.003.004a26.729 26.729 0 0 1-2.64 3.067v-4.83l-2.643-1.759v8.885a22.364 22.364 0 0 1-2.64 1.728V19.754l2.64 1.758v-6.148l2.642 1.756v-6.062c.883.078 1.764.169 2.641.282v7.538l2.639 1.757v-8.896a65.42 65.42 0 0 1 2.522.474l.09.02c-.523 3.236-1.453 6.02-2.606 8.406zm-10.568-7.035v-2.803c.881.007 1.762.03 2.64.073v4.49l-2.64-1.76zm13.642-7.35c0 1.626-.099 3.161-.275 4.613a68.059 68.059 0 0 0-27.98.005 38.075 38.075 0 0 1-.275-4.619l-.002-2.477c0-.336.231-.617.545-.695l.016-.006a65.444 65.444 0 0 1 13.706-1.447c4.695 0 9.273.501 13.686 1.444l.01.003c.327.067.57.356.57.701v2.477z" fill="#fff"/><path d="M23.88 18.878l-2.64-1.757v6.15l2.64 1.756v-6.149zM9.062 22.752a4.84 4.84 0 0 0 4.834-4.833 4.84 4.84 0 0 0-4.834-4.834 4.839 4.839 0 0 0-4.833 4.834 4.838 4.838 0 0 0 4.833 4.833zm.88-.702a6.4 6.4 0 0 0 1.152-1.756c.466.1.865.225 1.192.348a4.22 4.22 0 0 1-2.344 1.408zm2.71-1.916a8.547 8.547 0 0 0-1.342-.417c.142-.45.24-.946.268-1.493h1.693a4.187 4.187 0 0 1-.62 1.91zm0-4.429c.349.565.568 1.212.619 1.91h-1.693a5.914 5.914 0 0 0-.268-1.493c.539-.122.984-.272 1.341-.417zm-.366-.51a8.292 8.292 0 0 1-1.192.35 6.381 6.381 0 0 0-1.152-1.756c.93.198 1.75.704 2.344 1.407zm-2.92-1.124c.33.338.766.872 1.103 1.583a9.65 9.65 0 0 1-1.103.093v-1.676zm0 2.287c.482-.014.93-.057 1.337-.121.138.413.234.873.265 1.378H9.366v-1.257zm0 1.865h1.602c-.03.505-.127.964-.268 1.378a10.256 10.256 0 0 0-1.334-.12v-1.258zm0 1.869c.394.012.76.044 1.1.092a5.93 5.93 0 0 1-1.1 1.58v-1.672zm-3.528.55a8.44 8.44 0 0 1 1.193-.348 6.394 6.394 0 0 0 1.156 1.758 4.22 4.22 0 0 1-2.35-1.41zm2.918 1.118a6.06 6.06 0 0 1-1.096-1.577c.339-.048.704-.08 1.096-.092v1.67zm0-2.279c-.48.015-.925.055-1.33.12a5.15 5.15 0 0 1-.267-1.377h1.597v1.257zm0-1.866H7.16c.029-.504.126-.964.267-1.378.405.064.85.107 1.33.12v1.258zm0-1.868a9.748 9.748 0 0 1-1.096-.092 6.018 6.018 0 0 1 1.096-1.577v1.669zm-.57-1.96c-.372.404-.818.99-1.155 1.758a8.356 8.356 0 0 1-1.192-.35 4.226 4.226 0 0 1 2.348-1.408zm-2.714 1.918a8.67 8.67 0 0 0 1.345.417 5.85 5.85 0 0 0-.27 1.493H4.854c.049-.698.27-1.346.619-1.91zm-.62 2.518h1.696c.028.546.125 1.044.267 1.493-.539.121-.985.272-1.343.417a4.162 4.162 0 0 1-.62-1.91zM39.322 7.402c0-2.396-.214-2.654-1.489-2.763l-.538-.042c-.13-.087-.086-.475.043-.54 1.25.043 1.984.065 2.89.065.864 0 1.598-.022 2.46-.064.13.064.173.452.044.539l-.324.042c-1.272.174-1.316.474-1.316 2.763v8.005c0 1.703-.087 3.192-.496 4.184-.712 1.728-2.244 3.108-4.251 3.108-.258 0-.927-.022-.927-.453 0-.367.322-.994.776-.994.26 0 .519.043.8.13.301.086.603.151.905.151.453 0 .713-.259.864-.56.495-1.015.56-4.25.56-5.416V7.402zM42.687 12.483c0-3.64 2.73-6.426 6.48-6.426 4.204 0 6.315 3.04 6.315 6.244 0 3.676-2.803 6.351-6.316 6.351-4.04 0-6.48-2.893-6.48-6.17zm10.975.382c0-3.003-1.328-6.243-4.804-6.243-1.894 0-4.35 1.293-4.35 5.279 0 2.692 1.31 6.189 4.895 6.189 2.185 0 4.26-1.639 4.26-5.225zM59.617 12.482c-.874 0-.91.038-.91.585v2.564c0 1.912.09 2.166 1.11 2.276l.527.055c.11.072.073.4-.036.454a57.55 57.55 0 0 0-2.312-.054c-.782 0-1.4.037-2.11.054-.11-.054-.145-.346-.038-.454l.31-.055c1.019-.182 1.056-.364 1.056-2.276V9.08c0-1.911-.127-2.22-1.074-2.294l-.474-.036c-.109-.073-.072-.4.037-.455.892.017 1.511.055 2.293.055.71 0 1.329-.018 2.111-.055.11.055.147.382.037.455l-.346.036c-1.055.11-1.091.383-1.091 2.294v2.094c0 .563.036.582.91.582h5.206c.873 0 .91-.019.91-.582V9.079c0-1.911-.037-2.184-1.11-2.294l-.346-.036c-.11-.073-.074-.4.036-.455.836.037 1.456.055 2.202.055.71 0 1.329-.018 2.148-.055.108.055.145.382.037.455l-.384.036c-1.054.11-1.09.383-1.09 2.294v6.552c0 1.912.036 2.148 1.09 2.276l.437.055c.11.072.073.4-.037.454a48.57 48.57 0 0 0-2.2-.054c-.747 0-1.401.017-2.203.054-.11-.054-.146-.346-.036-.454l.345-.055c1.111-.182 1.111-.364 1.111-2.276v-2.565c0-.546-.037-.584-.91-.584h-5.206zM81.187 15.267c0 .547 0 2.713.053 3.185-.035.11-.144.2-.345.2-.217-.308-.746-.945-2.33-2.748L74.343 11.1c-.491-.564-1.73-2.057-2.112-2.456h-.035c-.074.218-.092.636-.092 1.182v3.969c0 .854.018 3.221.327 3.766.11.202.475.31.93.347l.564.055c.109.145.09.364-.037.454a46.201 46.201 0 0 0-2.13-.054c-.764 0-1.255.018-1.892.054-.128-.09-.145-.346-.037-.454l.492-.055c.418-.055.709-.164.801-.364.253-.655.236-2.875.236-3.75v-5.26c0-.51-.018-.893-.4-1.31-.255-.255-.692-.383-1.13-.438l-.309-.035c-.109-.11-.109-.382.037-.456.765.055 1.729.055 2.056.055.292 0 .602-.018.838-.055.364.929 2.511 3.332 3.113 4.005l1.766 1.983c1.254 1.402 2.146 2.421 3.002 3.295h.037c.073-.09.073-.382.073-.765v-3.895c0-.855-.018-3.22-.365-3.768-.109-.163-.4-.273-1.128-.364l-.31-.035c-.127-.11-.108-.401.037-.456.837.037 1.456.055 2.148.055.782 0 1.255-.018 1.874-.055.147.092.147.347.037.456l-.255.035c-.582.091-.947.238-1.02.383-.309.655-.272 2.912-.272 3.75v4.35zM85.998 18.652c-1.53 0-2.495-.472-2.84-.672-.219-.402-.456-1.693-.492-2.548.091-.129.365-.165.438-.055.272.927 1.018 2.712 3.13 2.712 1.528 0 2.275-1.001 2.275-2.093 0-.801-.163-1.693-1.493-2.549l-1.729-1.129c-.91-.6-1.966-1.638-1.966-3.13 0-1.73 1.348-3.13 3.713-3.13.565 0 1.22.11 1.694.236.235.074.49.11.635.11.164.436.329 1.456.329 2.22-.073.11-.364.164-.456.055-.236-.874-.727-2.057-2.475-2.057-1.784 0-2.166 1.183-2.166 2.022 0 1.054.874 1.818 1.547 2.238l1.457.909c1.146.71 2.275 1.765 2.275 3.495 0 2.002-1.51 3.366-3.876 3.366zM100.678 11.393c-1.035 0-1.078.042-1.078.69v3.042c0 2.264.107 2.567 1.315 2.698l.627.065c.129.085.086.474-.045.537a70.953 70.953 0 0 0-2.738-.063c-.93 0-1.663.042-2.504.063-.13-.063-.174-.41-.043-.537l.366-.066c1.208-.216 1.251-.433 1.251-2.697V7.357c0-2.265-.15-2.632-1.272-2.718l-.561-.043c-.13-.086-.086-.475.043-.54 1.057.022 1.79.065 2.72.065.84 0 1.574-.021 2.502-.064.129.064.172.453.042.539l-.41.043c-1.25.13-1.293.453-1.293 2.718V9.84c0 .669.043.69 1.078.69h6.171c1.035 0 1.079-.021 1.079-.69V7.357c0-2.265-.044-2.587-1.318-2.718l-.41-.043c-.129-.086-.086-.475.045-.54.99.044 1.725.065 2.609.065.842 0 1.576-.021 2.547-.064.129.064.173.453.043.539l-.453.043c-1.251.13-1.295.453-1.295 2.718v7.768c0 2.264.044 2.546 1.295 2.698l.518.065c.129.085.086.474-.044.537a60.069 60.069 0 0 0-2.611-.063c-.884 0-1.66.02-2.609.063-.131-.063-.174-.41-.045-.537l.41-.066c1.318-.216 1.318-.433 1.318-2.697v-3.043c0-.647-.044-.689-1.079-.689h-6.171z" fill="#fff"/><path d="M111.372 12.483c0-3.64 2.732-6.426 6.479-6.426 4.205 0 6.316 3.04 6.316 6.244 0 3.676-2.802 6.351-6.316 6.351-4.039 0-6.479-2.893-6.479-6.17zm10.975.382c0-3.003-1.327-6.243-4.805-6.243-1.892 0-4.349 1.293-4.349 5.279 0 2.692 1.311 6.189 4.896 6.189 2.184 0 4.258-1.639 4.258-5.225zM127.461 15.632c0 1.91.037 2.147 1.201 2.275l.492.054c.11.09.074.4-.037.455a61.675 61.675 0 0 0-2.366-.054c-.764 0-1.419.017-2.22.054-.11-.054-.145-.346-.035-.455l.382-.054c1.054-.145 1.091-.364 1.091-2.275V8.916c0-1.548-.037-1.858-.856-1.949l-.655-.073c-.127-.109-.11-.382.038-.454.964-.129 2.093-.147 3.602-.147 1.511 0 2.639.2 3.496.729.837.528 1.456 1.474 1.456 2.73 0 1.674-1.037 2.513-1.821 2.894-.801.383-1.765.546-2.512.546-.128-.053-.128-.327-.018-.363 1.966-.365 2.675-1.476 2.675-3.059 0-1.766-1.036-2.911-2.929-2.911-.965 0-.984.071-.984.655v8.118zM135.036 9.079c0-1.911-.037-2.203-1.091-2.293l-.457-.036c-.108-.074-.071-.401.037-.456.892.037 1.474.055 2.293.055.71 0 1.328-.018 2.112-.055.108.055.146.382.036.456l-.346.036c-1.055.109-1.092.382-1.092 2.293v2.095c0 .345.037.69.238.69.163 0 .38-.109.508-.2.255-.218.729-.692.929-.874l1.966-1.947c.345-.328 1.237-1.257 1.419-1.51.091-.129.129-.22.129-.293 0-.072-.073-.126-.311-.181l-.491-.11c-.127-.127-.11-.363.036-.455.637.037 1.366.055 2.002.055.637 0 1.257-.018 1.801-.055.129.092.147.347.037.456-.472.036-1.181.218-1.691.51-.51.29-1.53 1.145-2.55 2.11l-1.638 1.547c-.255.257-.419.42-.419.564 0 .13.11.274.347.565 1.728 1.983 3.13 3.622 4.55 5.114.437.437.769.675 1.387.747l.351.055c.129.09.092.4-.037.455a22.358 22.358 0 0 0-1.828-.055c-.745 0-1.384.018-2.221.055-.127-.037-.182-.347-.072-.455l.418-.074c.256-.036.436-.09.436-.18 0-.11-.127-.256-.254-.42-.347-.437-.82-.928-1.511-1.711l-1.456-1.638c-1.037-1.165-1.329-1.528-1.766-1.528-.272 0-.309.236-.309.873v2.348c0 1.91.037 2.165 1.055 2.275l.493.055c.107.073.072.4-.038.455a50.305 50.305 0 0 0-2.22-.055c-.747 0-1.365.018-2.111.055-.109-.055-.146-.328-.037-.455l.365-.055c.964-.145 1.001-.364 1.001-2.275V9.08zM147.528 9.115c0-1.93-.035-2.24-1.111-2.33l-.453-.036c-.11-.074-.074-.4.035-.456.91.037 1.529.056 2.294.056.729 0 1.347-.019 2.257-.056.11.056.145.382.037.456l-.456.036c-1.074.09-1.109.4-1.109 2.33v6.48c0 1.93.035 2.184 1.109 2.312l.456.054c.108.073.073.4-.037.455a51.845 51.845 0 0 0-2.257-.055c-.765 0-1.315.018-2.224.055-.109-.055-.145-.346-.036-.455l.384-.054c1.076-.128 1.111-.383 1.111-2.313V9.115zM163.273 15.267c0 .547 0 2.713.056 3.185-.037.11-.147.2-.347.2-.218-.308-.746-.945-2.33-2.748L156.43 11.1c-.491-.564-1.73-2.057-2.112-2.456h-.036c-.073.218-.091.636-.091 1.182v3.969c0 .854.018 3.221.327 3.766.11.202.474.31.929.347l.565.055c.107.145.09.364-.037.454a46.264 46.264 0 0 0-2.129-.054c-.765 0-1.256.018-1.893.054-.128-.09-.147-.346-.037-.454l.492-.055c.418-.055.709-.164.801-.364.254-.655.235-2.875.235-3.75v-5.26c0-.51-.017-.893-.399-1.31-.255-.255-.692-.383-1.129-.438l-.31-.035c-.109-.11-.109-.382.037-.456.765.055 1.729.055 2.056.055.292 0 .602-.018.838-.055.365.929 2.511 3.332 3.111 4.005l1.767 1.983c1.256 1.402 2.147 2.421 3.003 3.295h.037c.073-.09.073-.382.073-.765v-3.895c0-.855-.018-3.22-.365-3.768-.109-.163-.4-.273-1.127-.364l-.309-.035c-.129-.11-.11-.401.035-.456a45.87 45.87 0 0 0 2.147.055c.785 0 1.257-.018 1.874-.055.147.092.148.347.038.456l-.255.035c-.583.091-.947.238-1.02.383-.309.655-.273 2.912-.273 3.75v4.35zM168.055 18.652c-1.531 0-2.495-.472-2.841-.672-.218-.402-.455-1.693-.492-2.548.092-.129.366-.165.437-.055.274.927 1.02 2.712 3.132 2.712 1.528 0 2.275-1.001 2.275-2.093 0-.801-.165-1.693-1.493-2.549l-1.728-1.129c-.911-.6-1.967-1.638-1.967-3.13 0-1.73 1.347-3.13 3.714-3.13.564 0 1.219.11 1.693.236.237.074.49.11.635.11.164.436.329 1.456.329 2.22-.074.11-.364.164-.456.055-.236-.874-.727-2.057-2.474-2.057-1.785 0-2.167 1.183-2.167 2.022 0 1.054.874 1.818 1.546 2.238l1.458.909c1.147.71 2.275 1.765 2.275 3.495 0 2.002-1.511 3.366-3.876 3.366z" fill="#fff"/></svg>