<svg width="220" height="25" viewBox="0 0 220 25" fill="none" xmlns="http://www.w3.org/2000/svg"><path fill-rule="evenodd" clip-rule="evenodd" d="M14.153 13.275c0 1.284.019 2.438-.935 3.428-1.063 1.064-2.695 1.394-4.161 1.394-1.467 0-3.374-.367-4.162-1.669-.587-.953-.532-2.823-.532-3.96v-7.26c0-1.613-.128-2.108 1.669-2.108.238 0 .66 0 .66-.33 0-.275-.202-.367-.44-.367-.972 0-1.962.11-2.934.11-.971 0-1.906-.11-2.878-.11-.257 0-.44.074-.44.367 0 .33.403.33.642.33 1.796 0 1.668.495 1.668 2.108v8.067c0 1.705-.018 3.172 1.522 4.272 1.283.898 3.263 1.191 4.785 1.191 1.705 0 3.556-.256 4.84-1.356 1.393-1.21 1.411-2.439 1.411-4.089v-8.03c0-1.191-.128-2.163 1.339-2.163.238 0 .825 0 .825-.367 0-.311-.33-.33-.532-.33-.678 0-1.338.11-1.998.11-.77 0-1.54-.11-2.31-.11-.257 0-.532.074-.532.367 0 .367.458.33.697.33.586 0 1.228.018 1.54.587.311.513.275 1.925.275 2.548v7.04h-.019zM18.719 15.805c0 1.1.238 1.98-1.155 2.108-.275.019-.715-.018-.715.367 0 .202.183.257.366.257.789 0 1.614-.11 2.439-.11.77 0 1.595.11 2.42.11.183 0 .311-.074.311-.275 0-.33-.458-.312-.715-.33-1.393-.129-1.155-1.009-1.155-2.109v-4.326c0-1.027.074-1.595.825-2.365a3.508 3.508 0 0 1 2.549-1.1c.971 0 1.925.403 2.42 1.155.458.696.458 1.723.458 2.548v4.088c0 1.1.238 1.98-1.155 2.109-.275.018-.715-.019-.715.366 0 .202.183.257.367.257.806 0 1.613-.11 2.438-.11.77 0 1.595.11 2.42.11.183 0 .312-.073.312-.275 0-.33-.459-.312-.715-.33-1.394-.128-1.155-1.008-1.155-2.108v-4.07c0-1.229.055-2.494-.77-3.557-.715-.917-1.742-1.393-3.044-1.393-2.346 0-3.776 2.108-4.216 2.108V7.225c0-.183.018-.403-.239-.403-.201 0-.33.201-.458.33-.403.495-1.522 1.155-2.127 1.338-.238.073-.586.128-.586.44 0 .147.146.202.311.202h.33c.202 0 .587.018.752.201.275.275.257 1.284.257 1.65v4.84l-.055-.018zM35.364 7.207c0-.184.019-.404-.238-.404-.202 0-.33.202-.458.33-.404.495-1.522 1.155-2.127 1.339-.238.073-.587.128-.587.44 0 .146.147.201.312.201h.33c.202 0 .587.019.752.202.275.275.256 1.284.256 1.65v4.84c0 1.1.239 1.98-1.155 2.108-.275.019-.715-.018-.715.367 0 .202.184.257.367.257.807 0 1.613-.11 2.438-.11.77 0 1.595.11 2.42.11.184 0 .312-.073.312-.275 0-.33-.458-.312-.715-.33-1.393-.128-1.155-1.008-1.155-2.108V7.206h-.037zm-.898-2.659c.752 0 1.137-.586 1.137-1.283 0-.623-.404-1.228-1.082-1.228s-1.155.623-1.155 1.283c0 .66.403 1.228 1.1 1.228zM44.128 16.08l-2.622-6.435c-.128-.312-.403-.953-.403-1.283 0-.495.495-.715.953-.715.183 0 .715.073.715-.239 0-.311-.257-.275-.495-.275h-4.657c-.201 0-.385-.018-.385.239 0 .275.275.275.495.275 1.082.055 1.21.531 1.595 1.485l3.722 9.002.147.33c.018.11.11.256.238.256.202 0 .385-.513.44-.586l3.685-7.976c.44-.953.898-2.365 2.108-2.511.202-.019.642-.019.642-.33 0-.239-.128-.184-.33-.184H46.2c-.201 0-.385 0-.385.239 0 .275.459.275.697.275.458 0 1.008.183 1.008.696 0 .312-.201.825-.33 1.1l-3.043 6.637h-.018zM60.078 11.424c.256 0 .311-.239.311-.44 0-.844-.385-1.962-.898-2.604-.898-1.1-2.31-1.595-3.703-1.595-1.742 0-3.337.587-4.638 1.723-1.357 1.192-1.852 2.549-1.852 4.29 0 3.209 2.493 5.922 5.866 5.922 1.596 0 2.86-.403 4.07-1.448.184-.147 1.009-.843 1.009-1.155 0-.11-.074-.202-.202-.202-.33 0-1.283 1.669-3.813 1.669-3.117 0-4.987-2.494-4.987-5.372 0-.844.257-.807 1.063-.807h7.792l-.018.019zm-7.774-.624c-.275 0-.88.073-.88-.33s.44-1.21.642-1.485c.788-1.082 2.035-1.723 3.337-1.723.825 0 1.668.201 2.236.788.367.385.66.972.66 1.522 0 .623-.385.898-.953 1.027-.752.183-2.181.201-2.988.201h-2.09.036zM62.974 15.805c0 1.1.239 1.98-1.154 2.108-.276.019-.715-.018-.715.367 0 .202.183.257.366.257.807 0 1.614-.11 2.439-.11.77 0 1.594.11 2.42.11.183 0 .311-.073.311-.275 0-.33-.458-.312-.715-.33-1.393-.128-1.155-1.008-1.155-2.108v-4.07c0-1.027-.055-1.705.587-2.567.275-.385.751-.917 1.32-.917.715 0 .77.972 1.65.972.623 0 1.081-.385 1.081-1.027 0-.77-.696-1.228-1.466-1.228-1.778 0-2.787 2.053-3.043 2.053-.184 0-.129-.44-.129-.532V7.243c0-.183.019-.403-.238-.403-.202 0-.33.202-.459.33-.403.495-1.521 1.155-2.126 1.338-.239.074-.587.129-.587.44 0 .147.147.202.312.202h.33c.202 0 .587.018.752.202.274.275.256 1.283.256 1.65v4.84l-.037-.037zM79.842 8.05c.11-.128.403-.532.403-.752 0-.238-.312-.183-.458-.183h-6.27c-.642 0-1.32.055-1.32-.752 0-.183-.018-.403-.257-.403-.256 0-.403.568-.458.715l-.66 1.962s-.183.495-.183.586c0 .129.11.202.238.202.202 0 .33-.257.44-.403.275-.404.825-.844 1.283-1.064.624-.275 1.412-.201 2.054-.201h2.566c.129 0 .44 0 .44.183 0 .147-.238.458-.311.568l-6.839 9.057c-.055.11-.366.44-.366.587 0 .385.715.256.935.256h8.745c.513.055.385-.586.385-.898l.054-1.265c0-.183.129-.972-.238-.972-.257 0-.312.33-.367.514-.256.66-.513 1.283-1.154 1.65-.679.366-1.797.385-2.567.385H73.7c-.11 0-.898.055-.898-.202 0-.183.312-.532.403-.642l6.637-8.928zM85.58 13.092c-1.449.678-3.814 1.778-3.814 3.593 0 1.284 1.21 2.035 2.42 2.035 2.237 0 3.905-1.961 4.144-1.961.366 0 .495 1.796 1.741 1.796.66 0 1.32-.385 1.834-.752.183-.146.623-.513.623-.806 0-.11-.073-.202-.183-.202-.239 0-.514.642-1.155.642-.935 0-.899-1.485-.899-2.054V9.316c0-.697.11-1.338-.513-1.87-.587-.513-1.54-.678-2.347-.678-1.65 0-3.391.696-4.601 1.778-.495.403-1.082 1.155-1.082 1.834 0 .256.128.311.33.311.312 0 .843-.201 1.1-.33.403-.183.532-.532.715-.917.587-1.32 1.393-2.163 2.952-2.163 1.558 0 1.65 1.063 1.65 2.31v1.137c0 .971-.019 1.008-.954 1.448l-1.98.917h.019zm2.475-.66s.201-.11.275-.11c.256 0 .183.623.183.715v1.54c0 .843-.018 1.283-.642 1.925-.623.623-1.485 1.027-2.401 1.027-.954 0-1.779-.514-1.779-1.522 0-1.229 1.009-1.907 1.999-2.42l2.346-1.192.019.037zM107.324 9.425c.238-.587.495-1.21.495-1.852 0-.586-.312-.916-.899-.916-.66 0-1.485.531-1.998.916-.825.624-1.265 1.064-1.852 1.87-.073.129-.33.459-.33.624 0 .11.055.201.147.201.128 0 .257-.146.312-.238.33-.513 1.723-2.127 2.365-2.127.238 0 .366.147.366.385 0 .275-.275.88-.385 1.137l-1.851 4.583c-.257.642-.715 1.852-.715 2.512 0 1.595.843 2.218 2.346 2.218 4.217 0 8.544-6.654 8.544-10.486 0-.624-.257-1.852-1.064-1.852-.531 0-.88.678-.88 1.137 0 .513.239.88.495 1.265.239.366.312.623.312 1.063 0 2.75-3.703 8.048-6.655 8.048-.77 0-1.32-.586-1.32-1.338 0-.623.275-1.356.513-1.961l2.09-5.17-.036-.019zM131.725 15.677c.055-.184.147-.495.147-.697 0-.146-.11-.238-.257-.238-.275 0-.44.458-.532.66-1.265 2.566-3.116 2.365-5.61 2.365-.44 0-1.063.11-1.063-.514 0-.238.128-.641.202-.88l3.501-11.403c.385-1.228.532-1.98 2.274-1.962.256 0 .77.055.77-.33 0-.275-.257-.311-.495-.311-1.009.018-2.035.11-3.044.11-.806 0-1.595-.074-2.383-.11-.202 0-.807-.129-.807.201 0 .385.367.459.642.44.532-.073 1.265-.11 1.265.66 0 .33-.202.954-.312 1.265l-3.318 10.835c-.183.569-.385 1.394-.88 1.742-.367.275-.917.275-1.357.275-.275.018-.678.018-.678.404 0 .33 1.082.183 1.357.183h8.763c.898 0 .935 0 1.192-.825l.586-1.925.037.055z" fill="#fff"/><path fill-rule="evenodd" clip-rule="evenodd" d="M140.323 3.302c0-.495-.312-.899-.825-.899-.752 0-1.32.972-1.32 1.614 0 .513.256.971.806.971.789 0 1.339-.971 1.339-1.705v.019zm-1.834 6.141c.147-.458.44-1.393.44-1.851 0-.569-.183-.954-.788-.954-.972 0-2.365 1.265-3.007 1.87-.201.184-1.283 1.32-1.283 1.65 0 .129.055.202.183.202.33 0 1.742-2.237 2.64-2.237.239 0 .312.257.312.459 0 .201-.183.641-.238.843L132.971 21.8c-.238.788-.513 2.09-1.577 2.09-1.063 0-.971-1.595-2.035-1.595a.884.884 0 0 0-.88.898c0 .972 1.174 1.284 1.98 1.284 1.137 0 2.292-.569 3.08-1.357 1.027-1.063 1.595-2.64 1.999-4.015l2.933-9.68.018.018zM150.168 11.864l-1.137 3.648c-.183.623-.458 1.613-.458 2.255 0 .44.146.953.696.953 1.21 0 2.787-1.283 3.52-2.127.202-.238 1.32-1.613 1.32-1.98 0-.11-.073-.183-.183-.183-.128 0-.238.184-.312.275-.403.697-1.833 2.548-2.695 2.548-.275 0-.403-.274-.403-.513 0-.311.128-.77.238-1.081l2.494-8.159c.055-.147.146-.44.146-.623 0-.385-.66-.257-.88-.257-.971 0-.788.128-1.081 1.082-.807 2.566-2.054 4.858-3.832 6.893-.715.843-2.86 2.952-4.07 2.952-.458 0-.697-.275-.697-.715 0-.367.184-.899.275-1.229l2.054-6.141c.183-.514.385-1.155.385-1.705s-.184-1.137-.825-1.137c-.954 0-2.237 1.1-2.824 1.705-.256.275-1.393 1.668-1.393 2.109 0 .11.018.146.128.146.239 0 .459-.403.569-.568.33-.495 1.485-1.999 2.163-1.999.275 0 .367.202.367.44 0 .257-.202.77-.275 1.009l-1.999 5.848c-.201.587-.495 1.467-.495 2.09 0 .77.275 1.338 1.1 1.338 1.577 0 3.319-1.32 4.419-2.31 1.576-1.411 2.31-2.603 3.501-4.29l.184-.256v-.018zM156.988 12.743c-.275.954-.678 1.98-.678 3.007 0 2.035 1.466 2.988 3.391 2.988 4.345 0 8.47-4.326 8.47-8.634 0-1.614-.751-3.447-2.621-3.447-2.494 0-5.61 3.832-6.747 5.867L162.36.771c0-.184-.074-.257-.239-.257a.37.37 0 0 0-.256.11c-.899.568-1.614.642-2.659.642-.256 0-.788.055-.788.403 0 .312.752.257.898.257.404 0 .697.11.697.586 0 .312-.202.972-.312 1.284l-2.731 8.947h.018zm9.258-2.658c0 3.08-3.19 8.213-6.581 8.213-1.064 0-1.907-.513-1.907-1.65 0-2.438 4.4-8.818 7.04-8.818 1.192 0 1.448 1.338 1.448 2.255zM169.748 15.475c-.201.66-.458 1.54-.458 2.255 0 .587.128 1.008.788 1.008 1.082 0 2.549-1.485 3.135-2.236.257-.312 1.082-1.357 1.082-1.833 0-.11-.018-.184-.128-.184-.202 0-.312.202-.385.33-.312.532-1.614 2.347-2.237 2.347-.257 0-.367-.238-.367-.44 0-.367.147-.715.257-1.027l4.4-14.355c.018-.11.147-.495.147-.623 0-.129-.074-.239-.202-.239-.073 0-.183.074-.238.11-.844.642-1.925.917-2.952.972-.257 0-.77-.018-.77.33 0 .183.128.275.312.275h.403c.44-.055 1.008.018 1.008.623 0 .239-.183.825-.256 1.064l-3.557 11.605.018.018zM182.912 3.302c0-.495-.312-.899-.825-.899-.752 0-1.32.972-1.32 1.614 0 .513.257.971.807.971.788 0 1.338-.971 1.338-1.705v.019zm-1.833 6.141c.146-.458.44-1.393.44-1.851 0-.569-.184-.954-.789-.954-.971 0-2.365 1.265-3.006 1.87-.202.184-1.284 1.32-1.284 1.65 0 .129.055.202.184.202.33 0 1.741-2.237 2.658-2.237.238 0 .312.257.312.459 0 .201-.184.641-.239.843L175.579 21.8c-.239.788-.514 2.09-1.577 2.09s-.972-1.595-2.035-1.595a.884.884 0 0 0-.88.898c0 .972 1.192 1.284 1.98 1.284 1.137 0 2.292-.569 3.08-1.357 1.027-1.063 1.595-2.64 1.998-4.015l2.934-9.68v.018zM193.563 7.537c-.531-.697-1.1-.899-1.98-.899-2.346 0-4.656 1.467-6.233 3.117-1.467 1.54-2.952 4.143-2.952 6.325 0 1.265.587 2.64 2.035 2.64 3.044 0 6.49-4.913 7.92-7.278l-1.576 5.096c-.129.44-.294.954-.294 1.449 0 .44.239.752.697.752 1.027 0 2.42-1.21 3.062-1.907.311-.33 1.356-1.668 1.356-2.127 0-.11-.073-.201-.183-.201-.183 0-.367.33-.44.458-.312.495-1.522 2.108-2.163 2.108-.202 0-.257-.183-.257-.385 0-.238.147-.641.202-.843l2.658-8.69c.018-.11.128-.385.128-.514 0-.366-.715-.238-.88-.238-.843 0-.788.128-1.063.935l-.073.238.036-.036zm-.385.916c0 1.192-2.108 4.126-2.823 5.024-.898 1.136-3.19 3.886-4.767 3.886-.825 0-1.191-.843-1.191-1.576 0-1.614 1.356-4.217 2.346-5.445 1.082-1.412 2.897-3.209 4.785-3.209.88 0 1.65.385 1.65 1.339v-.019zM210.227 9.957c.202-.532.495-1.284.495-1.87 0-.935-.715-1.449-1.595-1.449-3.318 0-6.325 4.529-7.737 7.095l-.055-.055 1.1-3.52c.202-.696.44-1.521.44-2.255 0-.733-.256-1.265-1.063-1.265-1.082 0-2.42 1.284-3.062 2.054-.201.201-1.1 1.393-1.1 1.668 0 .128.11.183.202.183.147 0 .238-.146.275-.275.312-.531 1.723-2.255 2.383-2.255.385 0 .514.275.514.624 0 .44-.184 1.008-.312 1.411l-2.292 7.48c-.055.129-.146.459-.146.587 0 .44.531.312.788.312.825 0 .825-.128 1.063-.88.624-1.999 2.604-5.427 3.96-7.04.789-.917 2.42-2.824 3.777-2.824.587 0 .898.33.898.899 0 .458-.201.953-.366 1.393l-1.834 4.858c-.311.789-.696 1.87-.696 2.75 0 .752.33 1.155 1.1 1.155 1.063 0 2.603-1.485 3.263-2.236.202-.202 1.155-1.394 1.155-1.724 0-.11-.11-.183-.183-.183-.147 0-.257.147-.312.257-.44.641-1.87 2.438-2.695 2.438-.312 0-.495-.183-.495-.513 0-.367.257-.972.385-1.32l2.09-5.5h.055zM214.611 15.438c-.183.624-.458 1.595-.458 2.255 0 .587.128 1.027.788 1.027 1.082 0 2.53-1.485 3.135-2.255.257-.33 1.082-1.393 1.082-1.833 0-.11-.018-.184-.147-.184-.183 0-.275.184-.366.33-.312.514-1.614 2.347-2.255 2.347-.239 0-.33-.201-.33-.458 0-.33.128-.697.238-1.027l1.907-6.178c.146-.459.44-1.394.44-1.87 0-.569-.184-.954-.789-.954-.971 0-2.383 1.265-3.043 1.87-.202.202-1.265 1.339-1.265 1.669 0 .128.055.202.147.202.33 0 1.778-2.274 2.658-2.274.257 0 .312.257.312.458 0 .239-.147.66-.202.88l-1.833 5.977-.019.018zm5.409-12.136c0-.495-.33-.899-.844-.899-.751 0-1.302.972-1.302 1.65 0 .495.257.954.789.954.806 0 1.357-.972 1.357-1.705z" fill="#fff"/></svg>