<svg width="127" height="56" viewBox="0 0 127 56" fill="none" xmlns="http://www.w3.org/2000/svg"><g clip-path="url(#a)"><path opacity=".25" d="M56.315 0H0v56h56.315V0z" fill="#fff"/><path d="M68.09 22.663c2.172-.02 3.991.627 5.57 1.927.664.546 1.178 1.214 1.4 2.059.37 1.399.08 2.67-.813 3.8-.453.55-1.001 1.014-1.619 1.367a10.462 10.462 0 0 1-3.905 1.4c-1.592.254-3.218.18-4.78-.215-1.095-.286-2.085-.775-2.888-1.592a4.592 4.592 0 0 1-1.248-2.46 5.606 5.606 0 0 1-.072-1.727c.122-.95.587-1.704 1.292-2.325.645-.57 1.395-.964 2.188-1.281a12.586 12.586 0 0 1 3.665-.864c.442-.041.887-.066 1.21-.089zm3.145 5.604a4.959 4.959 0 0 0-.15-1.358c-.319-1.268-1.021-2.241-2.244-2.75a4.318 4.318 0 0 0-3.464.013 3.156 3.156 0 0 0-1.868 2.087c-.103.384-.147.78-.13 1.178a5.19 5.19 0 0 0 1.198 3.313c.57.693 1.281 1.16 2.179 1.306a5.51 5.51 0 0 0 2.325-.138c1.049-.28 1.703-.955 1.968-2.014a6.362 6.362 0 0 0 .186-1.637zM113.15 31.524a.739.739 0 0 1-.286.414 4.968 4.968 0 0 1-.689.432c-.602.297-1.251.46-1.9.621-1.32.32-2.656.5-4.023.414-1.486-.095-2.92-.4-4.255-1.093a5.503 5.503 0 0 1-1.492-1.09 4.005 4.005 0 0 1-1.084-2.446c-.103-1.077.23-2.003.905-2.823a7.212 7.212 0 0 1 2.063-1.682 12.802 12.802 0 0 1 4.93-1.608 9.522 9.522 0 0 1 3.676.284c.455.123.881.337 1.254.627a.381.381 0 0 1 .162.36c-.046.567-.305.846-.867.942a3.391 3.391 0 0 1-1.539-.129c-.402-.117-.799-.257-1.196-.395-.491-.17-.984-.346-1.502-.397-1.238-.12-2.319.225-3.164 1.174-.462.517-.632 1.147-.613 1.836a.244.244 0 0 0 .159.226c.32.155.666.247 1.02.273.882.103 1.763.023 2.643-.028 1.078-.063 2.155-.173 3.237-.122.344.03.686.078 1.024.145.072.016.141.04.206.072.339.145.441.302.413.67a.323.323 0 0 1-.103.214 1.474 1.474 0 0 1-.435.27 3.796 3.796 0 0 1-.891.191c-.618.036-1.237.047-1.856.033-1.162-.025-2.323-.089-3.486-.104a7.625 7.625 0 0 0-1.249.14c-.16.036-.314.096-.458.176a.31.31 0 0 0-.182.321 1.8 1.8 0 0 0 .296.932c.187.287.425.536.703.736.866.636 1.817 1.071 2.888 1.209a3.77 3.77 0 0 0 1.589-.154c.402-.123.8-.258 1.195-.401.546-.212 1.108-.38 1.681-.5.303-.04.61-.025.908.043.114.017.211.138.318.217zM91.42 33.377a11.12 11.12 0 0 1-3.308-.465 5.754 5.754 0 0 1-2.21-1.223c-.236-.217-.261-.32-.08-.594.28-.422.645-.696 1.19-.66a6.774 6.774 0 0 1 1.872.434c.643.233 1.274.5 1.913.74a7.943 7.943 0 0 0 1.909.503c.837.094 1.599-.126 2.301-.58a.275.275 0 0 0 .126-.228 1.409 1.409 0 0 0-.218-.9 2.662 2.662 0 0 0-.682-.712 6.109 6.109 0 0 0-1.336-.757c-1.164-.484-2.332-.962-3.495-1.45a5.76 5.76 0 0 1-1.528-.906 2.107 2.107 0 0 1-.572-.708c-.214-.459-.161-.883.174-1.266.234-.257.514-.468.825-.622a8.807 8.807 0 0 1 1.687-.64c1.105-.332 2.24-.56 3.388-.677 1.298-.119 2.586-.062 3.843.331a4.619 4.619 0 0 1 1.488.768c.248.194.264.666.02.87a1.451 1.451 0 0 1-1.213.365 11.266 11.266 0 0 1-2.073-.558 15.24 15.24 0 0 0-1.823-.541c-.906-.202-1.732.012-2.517.453a1.24 1.24 0 0 0-.332.291.421.421 0 0 0 0 .59c.142.169.31.315.498.433.392.244.8.463 1.219.655 1.38.608 2.77 1.195 4.156 1.792.58.242 1.125.56 1.62.946.233.183.444.392.63.622.326.414.329.866.103 1.33a1.954 1.954 0 0 1-.573.674c-.428.326-.905.58-1.414.754-1.01.36-2.054.618-3.115.768a15.57 15.57 0 0 1-2.473.168zM119.475 28.21a.59.59 0 0 1 .31-.462c.235-.135.482-.25.737-.341.53-.18 1.069-.336 1.604-.5.27-.077.524-.204.749-.373.435-.337.5-.82.171-1.264a2.089 2.089 0 0 0-.685-.56 6.23 6.23 0 0 0-1.782-.642c-.46-.095-.923-.17-1.397-.103-.255.04-.495.147-.695.31a.795.795 0 0 0-.345.691c.015 2.541 0 5.081.016 7.621a.485.485 0 0 1-.31.498 2.836 2.836 0 0 1-.999.257c-.469.045-.942.063-1.398-.08a3.328 3.328 0 0 1-.552-.268.288.288 0 0 1-.153-.289c.006-.082 0-.165 0-.248l-.07-5.188c-.011-.744-.018-1.49-.042-2.234a1.429 1.429 0 0 1 .529-1.174c.287-.238.609-.428.956-.562a9.79 9.79 0 0 1 2.269-.598 10.37 10.37 0 0 1 2.245-.097 12.77 12.77 0 0 1 4.593 1.16c.417.187.8.44 1.134.752.31.278.526.646.619 1.053.074.338.008.636-.269.845a6.572 6.572 0 0 1-.89.576c-.681.357-1.408.603-2.137.84-.826.267-1.651.523-2.511.643a2.73 2.73 0 0 1-1.388-.13c-.107-.038-.202-.086-.309-.133z" fill="#FEFFFF"/><path d="M76.18 28.612c.02-.86.032-1.721.063-2.581.018-.53.066-1.057.103-1.586a.572.572 0 0 1 .2-.406 5.04 5.04 0 0 1 2.597-1.242c.7-.115 1.41-.167 2.119-.156.722 0 1.452 0 2.177.01.799.005 1.594.098 2.372.278.274.067.38.276.487.483a.33.33 0 0 1-.054.35c-.156.2-.31.36-.603.37-.733.025-1.463.113-2.195.129-1.032.023-2.063.01-3.095 0-.29 0-.47.174-.67.322-.043.031-.045.137-.043.207.023.725.054 1.438.074 2.158a.23.23 0 0 0 .184.253c.2.052.402.09.606.116.838.08 1.68.05 2.52.026.841-.024 1.684-.04 2.52.08.244.033.483.095.713.184.27.103.376.234.268.62a.792.792 0 0 1-.763.565c-.33.014-.659.027-.989.035-.89.023-1.78.045-2.671.066-.627.015-1.253.038-1.88.047-.245 0-.37.197-.544.311-.122.082-.09.224-.092.344-.025.968-.053 1.936-.064 2.904a.558.558 0 0 1-.225.466 1.77 1.77 0 0 1-.975.384 3.68 3.68 0 0 1-1.444-.143 1.853 1.853 0 0 1-.273-.113.536.536 0 0 1-.322-.44c-.05-.502-.127-1.004-.134-1.506-.012-.844.023-1.688.038-2.532l-.005-.003zM69.295 42.493c-.103-.005-.215-.006-.321-.019-.642-.074-1.082-.46-1.2-1.101a2.522 2.522 0 0 1-.02-.812c.104-.665.525-1.069 1.194-1.175a2.05 2.05 0 0 1 .907.05c.545.159.875.53.953 1.086.04.295.034.594-.02.886-.115.628-.588 1.022-1.22 1.073-.092.007-.183 0-.273 0v.012zm-.676-1.536c.02.168.055.334.103.495.094.25.297.36.564.359.266-.001.46-.09.552-.333a1.52 1.52 0 0 0 .02-1.041.579.579 0 0 0-.598-.387.56.56 0 0 0-.554.408c-.04.165-.068.331-.087.5zM76.207 46.793l.834-.041c.03.079.052.147.083.212a.54.54 0 0 0 .714.25.31.31 0 0 0 .195-.264.28.28 0 0 0-.171-.279 3.027 3.027 0 0 0-.35-.121c-.232-.078-.476-.136-.7-.236-.358-.162-.536-.449-.504-.777a.815.815 0 0 1 .605-.74 2.088 2.088 0 0 1 1.34.01c.347.118.516.385.569.761-.276.061-.538.034-.81.061-.03-.046-.06-.09-.088-.138a.484.484 0 0 0-.594-.218.224.224 0 0 0-.164.198.193.193 0 0 0 .142.207c.103.036.206.062.31.091.235.07.479.121.709.207.357.138.593.386.6.796a.935.935 0 0 1-.565.913c-.321.156-.669.164-1.016.14-.083-.007-.164-.023-.246-.035-.596-.08-.868-.527-.893-.997zM81.312 40.388c-.095.207-.161.341-.232.49-.056-.01-.104-.024-.15-.03-.206-.023-.337.042-.395.25a2.856 2.856 0 0 0-.087.585c-.014.238 0 .477 0 .736h-.807v-2.145h.734l.035.273c.059-.062.103-.103.137-.147a.496.496 0 0 1 .204-.156c.08-.033.168-.045.254-.033.303.02.607.032.91.046h.193l.42 1.341h.048c.142-.437.282-.875.426-1.325h.816c-.31.725-.608 1.442-.91 2.156h-.741l-.855-2.041zM106.146 46.65v1.117h-.873c-.048-.189-.06-2.676-.011-2.99a2.03 2.03 0 0 1 .206-.023h1.285c.107-.006.215.004.319.03.157.042.306.11.442.198.385.285.434 1.33-.277 1.57a2.332 2.332 0 0 1-.531.093c-.173.016-.346.005-.56.005zm.013-.58c.156-.007.311-.022.465-.045a.307.307 0 0 0 .265-.334.309.309 0 0 0-.281-.321c-.15-.01-.3-.01-.449 0v.7zM71.37 39.423h.78c.034.328 0 .656.024 1.008l.186-.103a.879.879 0 0 1 1.302.498c.12.357.108.745-.034 1.094-.237.602-.905.757-1.39.33-.028-.025-.06-.048-.109-.086l-.048.265c-.23.021-.465.008-.696.007-.055-.185-.069-2.698-.015-3.013zm.777 1.91c.013.105.033.209.06.31a.353.353 0 0 0 .353.255.351.351 0 0 0 .318-.268.88.88 0 0 0 0-.559.327.327 0 0 0-.31-.248.33.33 0 0 0-.34.195 1.836 1.836 0 0 0-.081.315zM64.971 45.78V44.77h.782c.053.185.07 2.608.02 3.003a6.355 6.355 0 0 1-.703.006l-.056-.275c-.063.05-.113.087-.158.126a.823.823 0 0 1-1.246-.184 1.488 1.488 0 0 1-.091-1.383.875.875 0 0 1 .882-.523c.121.012.24.049.346.11.062.032.122.07.224.129zm.024.907a2.139 2.139 0 0 0-.103-.346.327.327 0 0 0-.325-.184.316.316 0 0 0-.3.221.884.884 0 0 0 0 .63.321.321 0 0 0 .299.222.322.322 0 0 0 .338-.198 2.43 2.43 0 0 0 .091-.345zM114.032 45.883l.033-.272h.701c.053.19.064 2.692.013 2.994h-.781c-.009-.324-.016-.647-.024-1.002l-.153.086c-.564.334-1.198.079-1.36-.56a1.628 1.628 0 0 1 .044-.976c.236-.639.904-.802 1.415-.352.024.021.051.038.112.082zm-.034.81a2.475 2.475 0 0 0-.047-.27.352.352 0 0 0-.363-.273.33.33 0 0 0-.324.285 1.747 1.747 0 0 0-.006.49.332.332 0 0 0 .316.295.363.363 0 0 0 .374-.261c.022-.087.039-.176.05-.265zM99.34 39.43h2.252v.612h-1.341v.562h1.149v.583h-1.158c-.036.414 0 .82-.025 1.233h-.868c-.05-.168-.063-2.687-.01-2.99zM103.214 47.781h-.807c-.006-.095-.015-.182-.016-.27 0-.33 0-.662-.006-.992-.009-.238-.133-.345-.342-.319a.297.297 0 0 0-.273.249c-.026.129-.04.26-.042.392-.007.304 0 .609 0 .932h-.774c-.056-.178-.067-1.88-.01-2.159h.71c.012.09.022.178.036.3.054-.037.106-.077.156-.119a.88.88 0 0 1 .58-.243c.447-.031.755.223.779.67.018.372.008.744.01 1.116l-.001.443zM73.564 47.589c-.208.09-.422.164-.64.222-.172.028-.347.02-.516-.02a.57.57 0 0 1-.479-.554.55.55 0 0 1 .421-.596c.227-.072.464-.112.696-.169.112-.027.223-.059.333-.09.073-.021.162-.048.136-.143a.326.326 0 0 0-.136-.183.506.506 0 0 0-.543.116c-.028.03-.05.063-.083.104l-.73-.074a.518.518 0 0 1 .19-.414.792.792 0 0 1 .516-.212c.295-.017.591-.017.887 0 .457.034.694.297.716.76.008.175 0 .349 0 .518.005.296.014.59.022.907a2.004 2.004 0 0 1-.63.006c-.059 0-.115-.126-.16-.178zm-.07-.845c-.197.062-.387.11-.567.182a.23.23 0 0 0-.171.199c-.004.03-.001.062.008.092a.255.255 0 0 0 .271.166.458.458 0 0 0 .491-.407.463.463 0 0 0-.032-.23v-.002zM110.183 43.098h.389a.877.877 0 0 0 .197-.017.156.156 0 0 0 .105-.06.167.167 0 0 0 .028-.056.184.184 0 0 0 .004-.062.145.145 0 0 0-.153-.135c-.114-.006-.227 0-.335 0-.066-.164.041-.207.191-.254-.087-.025-.134-.043-.181-.052-.604-.12-.957-.596-.856-1.322a1.022 1.022 0 0 1 .845-.889c.315-.07.643-.06.955.026a.921.921 0 0 1 .651.657c-.131.022-.249.043-.366.06-.118.018-.244.033-.373.05-.123-.232-.309-.326-.557-.258-.227.063-.346.256-.352.564-.005.307.104.51.323.583a.46.46 0 0 0 .516-.151c.036-.046.063-.098.108-.168l.754.089c-.163.527-.529.742-1.069.803.067.032.132.066.196.104a.366.366 0 0 1 .12.519.362.362 0 0 1-.149.127.455.455 0 0 1-.186.065c-.23.007-.46.008-.69 0-.132-.016-.171-.096-.115-.223zM85.582 41.004c.033-.167-.017-.259-.146-.302-.206-.072-.424.01-.619.24l-.733-.081a.586.586 0 0 1 .274-.467.906.906 0 0 1 .292-.127 2.86 2.86 0 0 1 1.178-.007.638.638 0 0 1 .544.539c.02.097.031.195.034.294.005.224 0 .447 0 .67 0 .223.02.427.03.657h-.699l-.126-.224a1.171 1.171 0 0 1-.941.287 1.045 1.045 0 0 1-.355-.094.543.543 0 0 1-.317-.543.52.52 0 0 1 .352-.518c.217-.076.446-.115.668-.173.196-.049.385-.105.564-.151zm-.016.4c-.187.06-.375.104-.557.179a.232.232 0 0 0-.173.285c.027.114.13.18.284.18.34-.003.53-.262.446-.643zM116.833 45.607h.807v2.165c-.236.031-.471.007-.722.016-.02-.104-.036-.2-.057-.32-.05.051-.105.097-.164.138a1.732 1.732 0 0 1-.412.201c-.538.124-.908-.168-.929-.725-.01-.239 0-.48 0-.72v-.754h.825v1.057c-.003.09.001.182.013.272a.277.277 0 0 0 .237.252.302.302 0 0 0 .333-.158.958.958 0 0 0 .075-.334c.011-.272 0-.546 0-.819a4.346 4.346 0 0 1-.006-.271zM112.032 47.781c-.213.011-.426.008-.639-.009-.077-.01-.14-.131-.221-.213-.18.149-.4.239-.632.258a2.07 2.07 0 0 1-.516-.036.59.59 0 0 1-.46-.55.557.557 0 0 1 .406-.585c.234-.076.479-.117.722-.178.158-.04.309-.089.466-.132.024-.159-.017-.26-.15-.293a.496.496 0 0 0-.607.23l-.746-.076a.639.639 0 0 1 .471-.566 2.51 2.51 0 0 1 1.341-.014c.309.077.471.301.496.637.012.173 0 .347.006.518.006.17-.007.331 0 .496.007.164.041.331.063.513zm-.883-1.048c-.215.07-.413.127-.601.198a.222.222 0 0 0-.151.255c.016.113.11.181.252.193.349.03.563-.219.5-.642v-.004zM105.464 40.998c.013-.17-.033-.273-.167-.296-.241-.045-.463-.015-.59.243l-.746-.086a.608.608 0 0 1 .434-.55c.467-.15.967-.153 1.435-.008.31.09.424.35.442.651.014.231 0 .464.006.695.007.255.024.508.037.777h-.698l-.113-.215a1.515 1.515 0 0 0-.126.075c-.301.222-.645.244-.992.178a.592.592 0 0 1-.512-.538.59.59 0 0 1 .034-.263.536.536 0 0 1 .381-.357c.206-.059.413-.098.619-.152.192-.049.379-.102.556-.154zm-.022.406c-.195.062-.392.113-.58.187a.228.228 0 0 0-.16.272.263.263 0 0 0 .263.184c.347.02.567-.26.477-.643zM113.99 40.995c.013-.175-.04-.273-.174-.295-.233-.038-.45-.017-.581.244l-.757-.086a.673.673 0 0 1 .535-.583c.411-.1.839-.102 1.25-.008.316.07.5.295.525.64.019.263 0 .529.013.793.008.238.027.476.043.724a.634.634 0 0 1-.096.014h-.6l-.123-.229c-.05.031-.098.06-.144.091a1.24 1.24 0 0 1-1.021.146.564.564 0 0 1-.458-.546.548.548 0 0 1 .418-.597c.259-.08.528-.126.791-.194.126-.03.25-.074.379-.114zm-.019.414c-.134.037-.267.072-.399.11-.063.017-.125.04-.185.068a.235.235 0 0 0-.131.106c-.03.05-.04.11-.028.167a.253.253 0 0 0 .26.187c.347.02.558-.248.483-.637v-.001zM68.698 47.244a1.005 1.005 0 0 1-.707.544 2.266 2.266 0 0 1-.835.02 1.04 1.04 0 0 1-.906-.993c-.055-.788.462-1.3 1.284-1.27.124.004.247.017.37.039.596.103.94.636.832 1.303h-1.64a.424.424 0 0 0 .207.414.38.38 0 0 0 .464-.016c.148-.13.294-.118.46-.095.164.023.299.034.47.054zm-1.596-.752h.808c-.007-.3-.135-.456-.37-.47-.236-.014-.41.151-.438.47zM86.037 46.89h-1.65a.395.395 0 0 0 .201.415.388.388 0 0 0 .465-.024c.139-.121.279-.115.436-.094.156.02.309.035.483.055a.905.905 0 0 1-.683.538 3.84 3.84 0 0 1-.81.03c-.656-.038-1.023-.653-.945-1.275a1.048 1.048 0 0 1 .972-.961c.22-.025.443-.02.663.012a.956.956 0 0 1 .835.772c.05.173.06.355.033.533zm-.844-.392c-.013-.322-.161-.485-.407-.477-.245.008-.396.193-.384.477h.79zM96.242 46.893h-1.68c.03.414.377.6.677.38a.488.488 0 0 1 .388-.092c.16.02.323.037.507.059a.749.749 0 0 1-.434.457 1.89 1.89 0 0 1-1.398.023.623.623 0 0 1-.169-.103c-.395-.311-.488-.737-.399-1.203.083-.439.368-.712.796-.822.298-.074.61-.072.906.008a.939.939 0 0 1 .745.772c.038.167.038.325.06.52zm-1.673-.396h.796c0-.31-.159-.487-.413-.475-.254.012-.383.193-.383.475zM100.421 47.239a1.006 1.006 0 0 1-.722.552 2.287 2.287 0 0 1-.835.014 1.039 1.039 0 0 1-.892-.956c-.074-.808.458-1.346 1.298-1.303.066 0 .131.013.197.02.713.08 1.084.56.995 1.327h-1.638c.026.414.373.603.672.384a.523.523 0 0 1 .413-.092l.512.054zm-1.592-.737c.27.02.54.017.81-.009-.03-.325-.175-.48-.413-.472-.238.007-.39.182-.397.481zM120.635 46.892h-1.677a.376.376 0 0 0 .197.414.387.387 0 0 0 .465-.024c.139-.122.278-.114.435-.093.157.02.309.034.491.055a1.014 1.014 0 0 1-.722.549c-.284.056-.575.06-.861.012a.984.984 0 0 1-.735-.527c-.406-.749.03-1.612.871-1.706.22-.025.443-.018.662.02a.948.948 0 0 1 .812.794c.033.153.039.307.062.506zm-.878-.397c-.01-.31-.151-.476-.397-.474-.247.002-.4.182-.4.474h.797zM77.536 41.542c0 .389.33.612.619.414.19-.129.364-.116.558-.103.121.008.244.028.393.044a.967.967 0 0 1-.077.157.969.969 0 0 1-.586.383c-.33.071-.672.071-1.003 0a.928.928 0 0 1-.572-.403 1.151 1.151 0 0 1 .815-1.814 2.39 2.39 0 0 1 .516 0c.567.065.89.379.978.946.012.124.019.249.018.373l-1.66.003zm.808-.396c-.043-.336-.173-.468-.425-.458-.251.01-.372.165-.388.458h.813zM106.844 40.27h.713c.014.096.026.182.045.303.078-.064.134-.104.187-.153a.898.898 0 0 1 .811-.19.601.601 0 0 1 .489.5c.025.114.039.23.041.345.005.39 0 .778 0 1.167a1.856 1.856 0 0 1-.021.183h-.779c-.007-.072-.019-.135-.02-.198v-.87a1.452 1.452 0 0 0-.019-.245.28.28 0 0 0-.253-.265.313.313 0 0 0-.336.2.857.857 0 0 0-.051.264c-.008.273-.007.546-.009.82v.288h-.798v-2.15zM97.335 41.897a.98.98 0 0 1-.59.517 2.198 2.198 0 0 1-1.124.017.898.898 0 0 1-.516-.36 1.153 1.153 0 0 1 .768-1.849c.188-.024.378-.024.566 0 .604.083.934.465.966 1.096 0 .063-.006.127-.01.215h-1.638a.337.337 0 0 0 .13.386.363.363 0 0 0 .436.064c.321-.247.646-.096 1.013-.086zm-.785-.743c-.028-.338-.175-.485-.439-.464-.236.019-.375.196-.354.464h.792zM89.505 47.85c-.145-.024-.294-.037-.436-.075-.516-.142-.82-.576-.803-1.139a1.09 1.09 0 0 1 .877-1.055c.25-.055.51-.055.76 0a1.072 1.072 0 0 1 .866 1.063 1.096 1.096 0 0 1-.826 1.126c-.139.044-.287.056-.438.08zm.455-1.167a2.134 2.134 0 0 0-.073-.311.378.378 0 0 0-.354-.262.372.372 0 0 0-.377.228.86.86 0 0 0 0 .718.368.368 0 0 0 .378.225.368.368 0 0 0 .355-.258c.032-.111.056-.225.071-.34zM89.933 42.492a2.416 2.416 0 0 1-.295-.033 1.098 1.098 0 0 1-.91-1.155 1.11 1.11 0 0 1 1.032-1.08c.196-.021.395-.012.588.026.6.121.916.553.887 1.182a1.091 1.091 0 0 1-1.001 1.044c-.095.01-.186.01-.3.016zm.492-1.13a2.37 2.37 0 0 0-.072-.338.365.365 0 0 0-.357-.255.376.376 0 0 0-.374.234.833.833 0 0 0 .007.718.372.372 0 0 0 .355.223.367.367 0 0 0 .364-.245c.035-.11.06-.223.078-.338zM74.059 41.856c.215-.02.412-.037.607-.059a.244.244 0 0 1 .25.104.441.441 0 0 0 .516.119c.087-.038.178-.097.152-.198a.273.273 0 0 0-.159-.163c-.18-.054-.369-.081-.554-.123a2.428 2.428 0 0 1-.333-.088.588.588 0 0 1-.412-.533.587.587 0 0 1 .366-.591.87.87 0 0 1 .33-.097c.295-.01.59 0 .884.03.263.034.431.217.533.462-.11.054-.619.14-.698.11a.362.362 0 0 1-.11-.091.396.396 0 0 0-.412-.092.264.264 0 0 0-.15.164c-.011.035.073.13.128.145.157.046.323.06.483.093.162.027.321.068.475.125a.619.619 0 0 1 .338.817.622.622 0 0 1-.2.255.979.979 0 0 1-.372.183 2.333 2.333 0 0 1-1.149-.012.66.66 0 0 1-.513-.56zM118.838 40.77c-.234.025-.444.054-.656.064a.259.259 0 0 1-.157-.088.43.43 0 0 0-.412-.103.169.169 0 0 0-.157.165.146.146 0 0 0 .033.105c.025.029.059.047.097.05.161.035.325.056.486.089.153.026.305.064.453.114a.59.59 0 0 1 .406.517.626.626 0 0 1-.285.597 1.03 1.03 0 0 1-.333.153 2.338 2.338 0 0 1-1.15-.014.702.702 0 0 1-.53-.56l.774-.076c.117.183.265.304.489.267a.336.336 0 0 0 .162-.049c.051-.043.112-.115.109-.17a.244.244 0 0 0-.045-.093.238.238 0 0 0-.081-.064 1.878 1.878 0 0 0-.333-.085c-.177-.04-.357-.066-.531-.118a.593.593 0 0 1-.457-.552.579.579 0 0 1 .413-.611c.408-.141.851-.15 1.264-.023.206.061.319.201.441.485zM91.07 47.2l.782-.078c.124.217.295.319.539.262.109-.026.216-.067.224-.195.009-.129-.103-.177-.206-.2-.2-.045-.402-.086-.603-.13a1.73 1.73 0 0 1-.215-.056.61.61 0 0 1-.438-.57.567.567 0 0 1 .396-.571c.22-.065.447-.103.677-.114.148-.007.296.004.442.033a.748.748 0 0 1 .614.525l-.752.084a.591.591 0 0 0-.087-.123.404.404 0 0 0-.345-.096c-.103.017-.2.06-.207.18-.006.118.086.153.18.17.195.035.39.06.585.099.106.018.21.047.31.087a.588.588 0 0 1 .4.491.653.653 0 0 1-.276.627 1.053 1.053 0 0 1-.626.2 4.168 4.168 0 0 1-.786-.044c-.3-.053-.516-.227-.608-.58zM120.906 47.201l.714-.074c.151.103.254.207.377.247a.572.572 0 0 0 .332-.032.214.214 0 0 0 .117-.164.24.24 0 0 0-.045-.095.232.232 0 0 0-.08-.067.867.867 0 0 0-.236-.065c-.225-.05-.455-.086-.673-.156a.583.583 0 0 1-.425-.575.576.576 0 0 1 .404-.568 1.996 1.996 0 0 1 1.286-.018c.215.065.352.228.433.477-.24.024-.458.05-.677.061-.043 0-.095-.05-.135-.085a.392.392 0 0 0-.455-.085.24.24 0 0 0-.113.167c0 .042.069.115.12.133.111.03.224.053.338.069.187.028.373.066.555.115a.597.597 0 0 1 .454.531.645.645 0 0 1-.356.657c-.324.182-.68.18-1.031.152a1.755 1.755 0 0 1-.434-.087.689.689 0 0 1-.47-.538zM81.722 46.286l-.727.09a.454.454 0 0 0-.447-.272c-.257.016-.428.195-.457.494-.037.367.092.62.354.676a.44.44 0 0 0 .484-.164c.037-.05.072-.104.103-.158l.752.086a.997.997 0 0 1-.744.747c-.33.083-.675.078-1.003-.013-.552-.147-.848-.657-.754-1.278a1.037 1.037 0 0 1 .952-.92c.237-.022.476-.019.713.01.398.052.663.298.774.702zM88.367 41.9c.013.066.025.104.03.146.01.114.017.23.027.371-.315.1-.653.104-.97.01-.223-.074-.301-.273-.31-.49-.015-.263-.011-.527-.014-.791v-.275l-.31-.045v-.549l.29-.038.028-.403.806-.414v.82l.44.025v.564l-.401.025c-.064.154-.028.31-.034.464a3.718 3.718 0 0 0 0 .371c.01.182.05.217.226.218.057 0 .114-.004.192-.008zM82.266 44.77h.78v3.003h-.762c-.054-.18-.07-2.619-.018-3.003zM71.45 44.764v3.003h-.786v-2.989c.26-.032.524-.037.786-.014zM108.285 47.77v-2.992c.262-.04.528-.043.791-.012v3.003h-.791zM88.177 45.68l-.227.518c-.461-.031-.587.074-.626.53-.02.228-.011.461-.014.692v.343a4.97 4.97 0 0 1-.806.013v-2.17h.722l.052.264c.346-.362.539-.405.899-.19zM102.125 40.27h.722l.029.244c.138-.104.26-.226.413-.284.152-.058.339-.017.515.104l-.224.524c-.034.01-.05.022-.064.018-.344-.062-.499.036-.545.381-.034.253-.034.51-.045.766-.005.13 0 .26 0 .404h-.78c-.067-.19-.074-1.906-.021-2.156zM93.125 42.425v-2.151h.722l.047.296c.243-.375.53-.455.907-.246l-.22.528c-.036.012-.052.023-.067.02-.337-.062-.486.021-.539.36-.03.262-.043.526-.04.79v.403h-.81zM91.719 42.417v-2.143h.786v2.143h-.786zM115.395 42.422v-2.15h.744c.062.176.075 1.86.014 2.15h-.758zM92.503 39.43v.511h-.784v-.511h.784zM115.402 39.428h.772v.511h-.772v-.511zM84.441 45.31c.115-.208.197-.37.291-.518a.207.207 0 0 1 .135-.087c.17-.01.342 0 .524 0-.07.124-.49.566-.573.584-.125.014-.25.021-.377.02z" fill="#FEFFFF"/><path d="M7.477 49.824s2.341-5.28 4.902-8.673c0 0 11.005 2.411 16.582-1.083 0 0 2.419-1.367.962-3.558-1.456-2.191-5.837-3.036-4.155-7.705 0 0 .754-2.436 4.982-4.401 0 0 1.571-.85 4.614-.923v-1.394l4.771 2.75-4.775 2.823v-1.346a9.502 9.502 0 0 0-2.39.468c-1.52.512-3.217 1.553-3.23 3.383-.021.584.161 1.158.516 1.62.425.49.92.912 1.467 1.256.893.556 3.783 2.9 3.543 7.132-.239 4.233-5.88 7.918-11.71 9.21-5.831 1.292-12.604.976-16.08.441z" fill="#fff"/><path d="M3.019 47.49s2.017-5.396 5.253-9.878a.313.313 0 0 0 .055-.234c-.238-1.346-2.222-13.069-.63-21.337 0 0 1.775-8.98 6.092-7.473a.466.466 0 0 1 .06.029c.22.133 1.59 1.047 4.207 4.466 2.868 3.746 4.504 3.064 4.504 3.064s1.873-.148 4.875-4.68l.01-.015c.08-.137 1.197-2.038 2.325-2.589a.301.301 0 0 1 .335.05c.206.185.576.591.987 1.347.613 1.12 2.182 5.007 2.182 5.007l-1.605 1.035 4.601 3.248.184-5.683-1.463.694-1.509-4.076s-.992-2.928-2.328-4.281c-1.336-1.353-2.537-.788-3.61.227-1.073 1.014-2.518 3.119-3.046 3.752-.697.837-1.838 2.763-3.301.893 0 0-2.45-3.495-3.578-4.725-1.128-1.23-3.064-3.186-6.226-3.469-3.163-.283-4.436 2.4-5.261 3.764-.825 1.365-4.449 9.265-4.62 24.446.008.002-.06 9.46 1.507 16.418z" fill="#fff"/><path d="M50.737 38.089c.147-5.661 4.4-12.28 4.4-12.28s-1.103.886-3.039 1.796c-1.936.91-3.948 1.796-5.551-1.943-1.603-3.74-6.3-4.848-6.3-4.848-6.238-1.415-10.261-.37-14.628 2.085-4.366 2.454-9.663 8.127-9.663 8.127C6.936 39.686 1.25 56 1.25 56h1.495c7.157-19.538 19.289-28.89 21.41-30.253 2.122-1.363 6.705-5.364 13.116-3.889 6.411 1.476 5.897 4.232 5.897 4.232-.928 5.037-10.691 4.652-10.691 4.652 4.706 3.624 5.022 7.512 5.024 8.107.024 6.524-6.127 9.67-6.127 9.67s5.08-1.193 11.643-.295c6.819.932 11.005 5.783 11.005 5.783-3.983-10.384-3.388-11.97-3.285-15.92zm-6.658 5.51c-1.936 0-3.507-2.423-3.507-5.413s1.569-5.412 3.507-5.412c1.938 0 3.507 2.423 3.507 5.412 0 2.99-1.572 5.413-3.507 5.413z" fill="#fff"/><path opacity=".5" d="M.367 56.001s-.123-23.278 22.526-34.4c0 0 15.812-8.71 33.421-.886v35.286H.367z" fill="#fff"/></g><defs><clipPath id="a"><path fill="#fff" d="M0 0h127v56H0z"/></clipPath></defs></svg>