<svg width="154" height="54" viewBox="0 0 154 54" fill="none" xmlns="http://www.w3.org/2000/svg"><path fill-rule="evenodd" clip-rule="evenodd" d="M20.24.157c-.794.17-1.15.379-2.286 1.338-.459.387-1.27.93-1.801 1.206-.814.423-.967.55-.967.81 0 .325.497.914.765.907.088-.003.47-.079.85-.17.901-.215 1.098-.106 1.098.605 0 .633-.167 1.101-2.835 7.941-5.441 13.953-5.792 15.093-5.837 18.96-.022 1.829.206 2.589 1.053 3.514.7.765 1.193.967 2.183.895 1.923-.139 5.03-2.46 6.723-5.024.695-1.053 5.753-10.7 7.6-14.497.8-1.643 1.483-2.986 1.52-2.986.037 0 .016.134-.046.299-.212.557-1.238 5.475-1.664 7.981-.665 3.903-.876 6.086-.714 7.367.235 1.861.748 2.668 2.163 3.4.986.51 1.868.476 3.072-.118.515-.254 1.223-.72 1.575-1.036.679-.61 3.19-3.668 4.053-4.937.526-.773.9-1.08 1.181-.973.105.04.18.493.233 1.399.163 2.852.73 4.095 2.2 4.829.897.448 1.322.473 1.957.117.834-.468 2.463-2.653 3.797-5.093 1.017-1.858 1.172-2.093 1.382-2.093.137 0 .207.243.283.985.164 1.592.41 2.696.76 3.41.45.916 1.502 2.062 2.3 2.503.616.341.75.366 1.956.365 1.227-.001 1.34-.024 2.158-.427.661-.325 1.17-.73 2.175-1.726l1.312-1.3.146.651a6.204 6.204 0 0 0 1.762 3.058c1.15 1.064 1.56 1.205 3.291 1.134 1.554-.064 2.086-.227 3.162-.965.844-.58 2.167-1.858 3.378-3.263l1.067-1.238 1.032 1.098c1.241 1.32 2.347 2.178 3.512 2.724 3.546 1.665 9.831 2.588 14.798 2.175 3.522-.293 8.429-1.137 13.749-2.366 5.007-1.157 8.597-1.736 12.858-2.074 1.22-.097 2.086-.084 3.823.058 2.808.228 2.668.234 3.109-.13.279-.23.33-.33.208-.407-.425-.27-7.406-.686-9.579-.572-3.866.204-11.724 1.229-16.526 2.156-9.025 1.742-14.5 1.806-19.353.227-1.962-.638-3.302-1.301-4.416-2.185-1.054-.836-1.362-1.222-1.559-1.952l-.14-.522 1.254-1.447c3.671-4.236 6.193-8 7.636-11.396 1.642-3.865 2.317-7.087 1.825-8.725-.207-.691-.928-1.403-1.605-1.585-1.935-.52-4.06 1.09-6.822 5.17-1.64 2.425-2.718 4.848-3.634 8.173-.874 3.17-1.112 4.617-1.112 6.756v1.902l-.963 1.16c-1.218 1.468-2.738 2.88-3.732 3.466-1.25.739-2.591.886-3.45.379-.926-.546-1.212-2.222-.756-4.422.44-2.123.44-1.992-.01-2.267-.255-.155-.597-.237-.953-.228-1.11.028-1.184.079-1.757 1.216-1.346 2.672-2.822 4.568-3.977 5.112-.703.332-1.892.289-2.638-.095-1.18-.606-1.49-1.577-1.491-4.682-.001-1.363-.05-1.935-.192-2.276-.662-1.58-2.268-1.866-3.85-.683-.48.359-1.852 2.107-2.928 3.732-.88 1.327-2.05 2.586-2.405 2.586-.31 0-.418-.43-.318-1.264.263-2.186.316-3.68.145-4.09-.223-.532-.815-.844-1.621-.855-.8-.011-1.265.297-2.089 1.382-3.94 5.197-6.126 7.412-7.31 7.412-.83 0-1.505-1.185-1.505-2.646 0-1.932.656-7.155 1.485-11.82.645-3.635 1.009-5.185 2.137-9.11.715-2.488.752-2.965.288-3.673-.383-.582-1.93-.75-2.728-.296-.587.334-.814.756-1.31 2.43-.834 2.808-3.078 7.95-5.132 11.757-1.947 3.608-5.757 9.729-7.127 11.45-1.245 1.563-2.35 2.239-3.132 1.915-.51-.21-.688-.73-.68-1.974.015-2.591 1.649-7.078 5.954-16.353 2.452-5.282 3.298-7.275 3.931-9.258.575-1.8.602-2.05.264-2.41-.157-.167-.563-.385-.901-.486-.338-.1-.62-.177-.624-.172-.004.006-.314.077-.689.157zM81.051 6.35c.3.271.295.324-.219 1.922-.961 2.99-2.093 5.404-3.557 7.59-1.09 1.628-4.765 6.565-4.834 6.495-.105-.105.358-2.765.752-4.321.224-.886.615-2.164.869-2.841 1.215-3.247 3.713-7.124 5.488-8.517.724-.567 1.137-.658 1.501-.328zm-19.756 9.302c-.2.218-.42.574-.492.79-.123.372-.153.388-.524.282a4.804 4.804 0 0 0-.441-.113c-.102 0 .12.803.297 1.07.163.25.286.284 1.015.285.538.001 1.097-.092 1.594-.267l.765-.268-.003-.839c-.002-.752-.035-.864-.319-1.087-.22-.173-.501-.248-.923-.248-.526 0-.655.052-.969.395zM29.983 48.437v5.355h.74V43.081h-.74v5.355zm64.735-3.671v1.685l-.34-.316c-.499-.465-.81-.592-1.454-.592-1.307 0-2.041.87-2.127 2.521-.06 1.156.103 1.875.548 2.403.446.53.914.74 1.647.74.699 0 1.243-.228 1.533-.643.192-.273.193-.272.193.123 0 .358.035.397.37.397h.37V43.08h-.74v1.685zm-43.773-1.008c0 .397.029.431.37.431.34 0 .37-.034.37-.43 0-.398-.03-.432-.37-.432-.341 0-.37.034-.37.431zm23.304 0c0 .397.03.431.37.431.34 0 .37-.034.37-.43 0-.398-.03-.432-.37-.432-.34 0-.37.034-.37.431zM.041 46.498c.038 2.744.058 2.955.315 3.436.486.909 1.264 1.273 2.72 1.273 1.197 0 1.828-.198 2.377-.747.642-.642.732-1.159.732-4.233v-2.654H4.726l-.041 2.678c-.038 2.433-.065 2.717-.294 3.109-.361.617-1.088.862-1.813.612-.407-.14-.579-.29-.77-.674-.22-.436-.252-.79-.289-3.108l-.04-2.617H0l.04 2.924zm8.363.83v3.755h1.48l.003-2.739.003-2.74 1.422 2.74 1.423 2.74h1.835v-7.522l-.71.036-.708.037-.062 2.742-.062 2.743-1.386-2.773-1.387-2.774H8.404v3.755zm8.35-3.678c-.049.048-.088 1.74-.088 3.76v3.674h1.606l-.032-3.725-.033-3.724-.683-.036c-.376-.02-.723.003-.77.051zm3.734 3.678v3.755h4.44v-1.108h-2.96v-6.402h-1.48v3.755zm16.156-.9c.002 2.527.03 2.93.23 3.363.444.96 1.256 1.417 2.507 1.413 1.343-.005 2.233-.627 2.55-1.782.078-.286.135-1.62.135-3.17v-2.679h-.723l-.039 2.863c-.035 2.6-.062 2.9-.285 3.28-.68 1.149-2.614 1.181-3.354.056-.193-.295-.23-.717-.284-3.238l-.062-2.899-.339-.039-.339-.039.003 2.87zm46.704-2.393c-.578.876-.629 1.016-.367 1.016.13 0 .515-.325.876-.739l.643-.739h-.423c-.353 0-.475.077-.729.462zm23.947 3.285v3.764h3.699v-.616h-2.955l-.033-3.417-.033-3.416-.339-.039-.339-.039v3.763zm-29.254-3.1c-.314.104-.34.162-.34.78v.666h-.554c-.473 0-.555.037-.555.247 0 .209.082.246.545.246h.545l.04 2.206c.04 2.15.05 2.215.345 2.53.268.284.385.318.987.286.61-.032.687-.067.723-.325.038-.265.009-.282-.344-.205a.844.844 0 0 1-.688-.114c-.303-.197-.303-.204-.303-2.288v-2.09h.616c.534 0 .617-.033.617-.246s-.083-.247-.611-.247h-.611l-.037-.78-.036-.78-.34.113zm-32.259 1.544c-.226.12-.487.356-.58.523-.166.3-.167.297-.172-.159-.004-.433-.028-.462-.387-.462-.299 0-.367.043-.309.195.042.107.075 1.326.075 2.709v2.514h.617v-1.632c.001-1.862.125-2.452.618-2.945.283-.282.458-.348.922-.348 1.238 0 1.42.383 1.42 3.012v1.913h.616v-2.097c0-2.37-.1-2.79-.763-3.194-.522-.318-1.493-.331-2.057-.03zm14.467.009c-.896.545-1.288 1.357-1.288 2.663 0 .951.173 1.558.583 2.045.441.523.977.726 1.92.726 1.076 0 1.564-.181 1.564-.58 0-.238-.047-.29-.206-.23-.91.35-1.794.347-2.35-.005-.338-.213-.773-1.034-.773-1.458v-.313h3.733l-.064-.795c-.08-.986-.515-1.793-1.125-2.082-.572-.271-1.524-.258-1.994.029zm6.465-.024c-.176.11-.41.343-.52.52l-.2.32-.003-.46c-.003-.435-.026-.463-.388-.463-.338 0-.375.034-.31.277.041.153.076 1.372.076 2.709l.002 2.431h.617v-1.545c0-2.443.337-3.256 1.35-3.256.473 0 .5-.02.5-.37 0-.335-.038-.368-.401-.365-.22.001-.546.092-.722.202zm3.281-.096a1.44 1.44 0 0 0-.863 1.303c0 .67.227.93 1.325 1.505.996.522 1.373.935 1.266 1.386-.166.704-.957.982-2.005.705l-.648-.171v.337c0 .407.218.485 1.357.487 1.023.002 1.584-.265 1.896-.903.439-.897-.088-1.745-1.46-2.35-.788-.349-1.053-.611-1.053-1.044 0-.607.358-.79 1.41-.723.747.048.935.024.993-.127.04-.103.017-.24-.05-.307-.16-.16-1.855-.237-2.168-.098zm12.407.094c-1.677.852-1.812 4.215-.208 5.154.43.25.676.303 1.376.293 1.202-.017 1.46-.108 1.51-.532.03-.272-.002-.335-.147-.28-1.677.643-2.767.164-3.096-1.36l-.086-.4h3.874l-.086-.77c-.097-.865-.46-1.611-.961-1.982-.466-.344-1.614-.409-2.176-.123zm16.117.046c-.596.314-.922.794-1.154 1.697-.147.575-.163.906-.07 1.48.26 1.619.96 2.237 2.53 2.237 1.065 0 1.551-.182 1.551-.58 0-.266-.04-.298-.277-.223-1 .316-1.54.346-2.01.112-.587-.29-.92-.735-1.04-1.389l-.092-.506H101.746v-.47c0-1.148-.574-2.167-1.395-2.477-.528-.199-1.328-.147-1.832.119zm14.818-.089c-.333.113-.441.224-.47.483l-.039.335.435-.181c.24-.1.737-.182 1.104-.182.877 0 1.192.247 1.277 1.002l.064.562-.97.088c-1.665.15-2.384.626-2.478 1.64-.107 1.152.466 1.754 1.671 1.755.72 0 1.023-.116 1.533-.591l.339-.316v.392c0 .341.042.392.322.392h.322l-.05-2.185c-.057-2.476-.17-2.873-.906-3.18-.504-.21-1.559-.217-2.154-.014zm12.254.016c-.526.229-.787.643-.787 1.248 0 .66.324 1.01 1.461 1.582.48.242.93.546 1.001.678.337.629-.08 1.316-.872 1.437-.23.035-.68-.017-1-.115-.554-.17-.585-.167-.66.067-.042.135-.015.308.062.384.205.205 1.915.263 2.357.08.562-.232.981-.8.98-1.33-.001-.752-.372-1.19-1.48-1.746-1.091-.547-1.328-.84-1.121-1.385.157-.411.527-.513 1.564-.43.718.058.791.042.791-.171 0-.14-.129-.285-.316-.356-.451-.17-1.527-.14-1.98.057zm5.132-.016c-.337.115-.44.223-.472.493l-.039.347.373-.193c.37-.191 1.539-.262 1.92-.116.269.103.561.692.561 1.132 0 .357-.004.359-.939.443-1.791.162-2.514.699-2.514 1.865 0 .557.057.73.349 1.056.295.33.457.4 1.043.448.896.074 1.22-.015 1.75-.48l.434-.38v.382c0 .322.047.383.298.383h.297l-.066-2.186c-.074-2.454-.178-2.85-.835-3.16-.478-.227-1.543-.244-2.16-.034zm6.71.014c-.209.09-.498.324-.643.518l-.264.354-.004-.462c-.003-.41-.039-.462-.312-.462h-.308v5.418h.74V49.39c.001-.931.058-1.897.127-2.147.187-.671.743-1.085 1.457-1.085 1.178 0 1.373.442 1.374 3.109l.001 1.816h.616v-2.098c0-1.875-.027-2.151-.254-2.595-.399-.782-1.566-1.092-2.53-.673zm6.658-.055c-.141.057-.404.279-.585.494l-.329.39v-.44c0-.388-.037-.44-.309-.44h-.308v5.417h.617v-1.472c0-1.84.163-2.65.629-3.115.316-.316.42-.347 1.059-.314.65.034.731.072.989.456.265.393.282.539.282 2.431v2.014h.76l-.041-2.124c-.046-2.367-.147-2.73-.879-3.175-.416-.254-1.402-.317-1.885-.122zm6.046.047c-1.714.776-1.876 4.305-.24 5.218.387.215.679.272 1.356.264 1.212-.014 1.471-.105 1.52-.53.035-.297.007-.337-.184-.262-.125.049-.508.15-.853.223-.554.118-.689.103-1.174-.131-.6-.29-.905-.703-1.037-1.406l-.086-.458 1.894-.034 1.893-.034-.038-.678c-.045-.799-.442-1.673-.916-2.017-.427-.31-1.605-.395-2.135-.155zm-99.192 2.665v2.709h.74v-5.418h-.74v2.709zm2.342-2.616c0 .05.394 1.272.876 2.715l.876 2.623.431-.038.431-.037.91-2.585c.502-1.422.912-2.631.913-2.686.002-.056-.143-.083-.322-.062-.303.036-.376.188-1.132 2.37l-.808 2.33-.715-2.208c-.393-1.213-.715-2.276-.717-2.36-.003-.163-.743-.224-.743-.062zm20.962 2.616v2.709h.74v-5.418h-.74v2.709zm44.39-.612c0 2.37.1 2.79.763 3.194.782.476 2.155.27 2.62-.393.192-.273.193-.272.193.123 0 .362.033.397.385.397.366 0 .382-.02.308-.385-.042-.212-.077-1.43-.077-2.709v-2.324h-.616l-.001 1.693c-.001 1.95-.102 2.433-.614 2.922-.299.287-.483.355-.974.363-1.155.017-1.369-.477-1.37-3.162v-1.816h-.617v2.097zm-56.503-1.327c.306.327.522.852.522 1.27v.3h-1.48c-1.42 0-1.479-.01-1.479-.259 0-.387.361-1.07.71-1.345.45-.353 1.381-.334 1.727.034zm22.158.015c.263.263.557 1 .559 1.4 0 .116-.392.155-1.554.155h-1.555l.076-.303c.158-.629.311-.899.69-1.217.526-.442 1.36-.459 1.784-.035zm9.774.063c.85.849.872 2.889.04 3.72-.74.74-1.878.53-2.344-.432-.281-.58-.34-1.784-.124-2.558.188-.678.741-1.085 1.475-1.085.494 0 .659.061.953.355zm6.217-.222c.281.15.715 1.017.719 1.437.002.272-.022.277-1.526.277H97.95l.09-.404c.127-.56.321-.89.701-1.187.36-.282 1.131-.344 1.544-.123zm51.683.184c.175.174.353.492.396.708.044.215.106.488.14.606.055.197-.072.216-1.489.216-1.718 0-1.71.004-1.371-.805.296-.708.753-1.042 1.425-1.042.461 0 .648.066.899.317zm-36.289 2.422c0 1.105-.784 1.891-1.766 1.771-.26-.031-.579-.153-.709-.271-.303-.274-.315-1.039-.021-1.399.289-.354 1.059-.612 1.849-.619l.648-.005-.001.523zm17.386 0c0 1.105-.784 1.891-1.766 1.771-.668-.081-.946-.374-.946-.999 0-.845.668-1.26 2.065-1.284l.648-.011-.001.523z" fill="#fff"/></svg>