<svg width="190" height="33" viewBox="0 0 190 33" fill="none" xmlns="http://www.w3.org/2000/svg"><path d="M13.245 15.712l4.1-9.278h-3.408l-4.1 9.278h3.408zm-2.19 9.913v-3.258c0-2.458-.304-3.176-1.246-5.22L4.877 6.435H1.386L7.703 20.13v5.495h3.353zm37.212.276c1.551 0 2.826-.718 3.713-2.07l.166 1.794h3.048V6.434h-3.297v6.93c-.832-1.242-2.05-1.905-3.492-1.905-3.186 0-5.403 2.679-5.403 7.318 0 4.584 2.162 7.124 5.265 7.124zm20.254-1.215v-2.678c-1.025.69-2.743 1.297-4.35 1.297-2.41 0-3.325-1.132-3.464-3.451h7.952v-1.74c0-4.832-2.133-6.655-5.43-6.655-4.018 0-5.93 3.066-5.93 7.263 0 4.832 2.383 7.18 6.595 7.18 2.106 0 3.657-.553 4.627-1.216zm-35.493-9.03c.61-.745 1.579-1.38 2.77-1.38 1.164 0 1.69.497 1.69 1.546v9.803h3.298V15.491c0-2.761-1.108-3.976-3.796-3.976-1.967 0-3.131.718-3.796 1.38h-.166l-.084-1.16H29.73v13.89h3.298v-9.968zm-5.985.498c0-3.37-1.718-4.64-5.21-4.64-2.188 0-3.906.691-4.903 1.27v2.735c.886-.663 2.826-1.381 4.516-1.381 1.58 0 2.3.552 2.3 2.043v.773h-.527c-5.043 0-7.287 1.657-7.287 4.474 0 2.816 1.718 4.39 4.267 4.39 1.94 0 2.77-.635 3.408-1.298h.139c.027.36.138.829.25 1.105h3.213a34.85 34.85 0 0 1-.166-3.396v-6.075zm51.619 9.471h3.713l-4.544-7.152 3.934-6.737h-3.297l-2.383 4.197-2.66-4.197h-3.713l4.212 6.654-4.378 7.235H72.9l2.798-4.694 2.965 4.694zm-29.425-11.57c1.773 0 2.66 1.408 2.66 4.611 0 3.231-.943 4.64-2.799 4.64-1.801 0-2.688-1.381-2.688-4.53 0-3.285.943-4.72 2.827-4.72zm13.936 0c1.635 0 2.134 1.353 2.134 3.093v.276h-4.6c.084-2.21.887-3.369 2.466-3.369zm-39.427 8.256c-.416.608-1.192 1.105-2.355 1.105-1.386 0-2.079-.773-2.079-1.96 0-1.575 1.136-2.154 3.963-2.154h.47v3.01zM90.132 6.434v19.191h3.352v-7.373h1.635l4.267 7.373h3.63l-4.71-8.09c2.41-.746 4.1-2.458 4.1-5.358 0-3.617-2.798-5.743-6.76-5.743h-5.514zm5.209 9.223h-1.856V9.029h1.939c2.41 0 3.63.94 3.63 3.148 0 2.265-1.358 3.48-3.713 3.48zm19.589 9.03v-2.68c-1.025.691-2.743 1.298-4.35 1.298-2.411 0-3.325-1.132-3.464-3.451h7.953v-1.74c0-4.832-2.134-6.655-5.431-6.655-4.018 0-5.929 3.066-5.929 7.263 0 4.832 2.382 7.18 6.594 7.18 2.106 0 3.657-.553 4.627-1.216zm-5.347-10.632c1.635 0 2.133 1.353 2.133 3.093v.276h-4.6c.084-2.21.887-3.369 2.467-3.369zm11.997 11.846c3.27 0 5.403-1.353 5.403-4.639 0-2.43-1.691-3.7-4.488-4.087-1.386-.193-2.55-.359-2.55-1.684 0-1.05.831-1.519 2.383-1.519 2.133 0 3.492.773 3.713.94v-2.68s-1.303-.772-4.045-.772c-3.381 0-5.265 1.767-5.265 4.169 0 2.458 1.413 3.728 4.129 4.087 1.911.248 2.936.773 2.936 1.988 0 1.077-.859 1.601-2.742 1.601-2.412 0-3.963-1.242-4.24-1.38v2.678s1.552 1.298 4.766 1.298zm18.148-1.215v-2.678c-1.025.69-2.742 1.297-4.35 1.297-2.41 0-3.325-1.132-3.463-3.451h7.952v-1.74c0-4.832-2.134-6.655-5.431-6.655-4.018 0-5.929 3.066-5.929 7.263 0 4.832 2.383 7.18 6.594 7.18 2.106 0 3.657-.553 4.627-1.216zm-5.347-10.63c1.635 0 2.133 1.352 2.133 3.092v.276h-4.599c.083-2.21.887-3.369 2.466-3.369zm18.12 2.098c0-3.37-1.717-4.64-5.208-4.64-2.189 0-3.908.691-4.905 1.27v2.735c.887-.663 2.826-1.381 4.516-1.381 1.58 0 2.3.552 2.3 2.043v.773h-.526c-5.043 0-7.288 1.657-7.288 4.474 0 2.816 1.719 4.39 4.268 4.39 1.94 0 2.771-.635 3.407-1.298h.139c.028.36.139.829.25 1.105h3.214a34.477 34.477 0 0 1-.167-3.396v-6.075zm-3.297 6.157c-.415.608-1.191 1.105-2.355 1.105-1.385 0-2.078-.773-2.078-1.96 0-1.575 1.136-2.154 3.962-2.154h.471v3.01zm9.255-5.357c.914-1.684 2.272-2.54 4.294-2.43v-3.092c-1.884.11-3.436 1.242-4.212 3.065h-.082l-.084-2.761h-3.214v13.889h3.298v-8.67zm11.526 8.947c1.523 0 2.604-.276 3.408-.856v-2.678c-.831.58-1.829.938-3.215.938-2.355 0-3.324-1.822-3.324-4.694 0-3.01 1.192-4.556 3.353-4.556 1.274 0 2.521.442 3.186.856v-2.789c-.692-.386-1.912-.662-3.547-.662-4.211 0-6.4 3.01-6.4 7.234 0 4.64 2.134 7.207 6.539 7.207zm8.922-10.244c.61-.746 1.579-1.381 2.77-1.381 1.164 0 1.691.497 1.691 1.546v9.803h3.296V15.491c0-2.761-1.107-3.976-3.795-3.976-1.967 0-3.131.718-3.796 1.38h-.166V6.434h-3.298v19.191h3.298v-9.968z" fill="#fff"/></svg>