<svg width="949" height="1119" viewBox="0 0 949 1119" fill="none" xmlns="http://www.w3.org/2000/svg"><g opacity=".8"><path d="M200.82 615.05c-23.36 62.443 97.846 354.586 199.63 403.22 101.783 48.63 145.585 44.87 252.796-30.782 107.211-75.653 173.195-236.4 172.005-311.919-1.19-75.518-1.858-99.914-34.876-160.278-33.017-60.364-83.596-44.378-136.212-141.892-52.615-97.513-31.299-189.296-57.942-239.985-26.644-50.688-111.256-109.529-197.164-59.41-85.908 50.117-93.67 105.649-82.218 154.137 11.452 48.488 66.426 107.5 78.005 133.614 11.58 26.114 39.121 173.519 15.291 215.026-23.83 41.508-185.954-24.174-209.315 38.269z" fill="#540199" fill-opacity=".3"/><path d="M402.854 978.486c86.369 52.914 150.595 38.704 223.054-13.295 72.458-51.995 145.015-199.633 156.012-266.081 10.997-66.448 6.867-111.385-14.664-152.895-21.532-41.51-131.227-103.285-174.944-208.925-43.718-105.641-9.098-142.526-32.075-189.645-22.978-47.12-88.067-58.258-132.673-44.175-44.606 14.082-95.662 57.807-77.235 111.111 18.427 53.305 61.598 78.077 80.119 128.001 18.521 49.924 49.539 199.888 38.136 240.902-11.403 41.014-36.572 82.717-93.808 66.415-57.235-16.301-75.799-23.989-105.602 2.779-29.803 26.767 47.311 272.892 133.68 325.808z" fill="#900093" fill-opacity=".4"/><path d="M470.596 976.747c35.897 9.965 89.7 6.909 132.788-22.417 43.089-29.325 86.04-97.35 125.948-176.512 39.909-79.161 40.967-174.377-14.088-246.849-55.055-72.471-134.057-110.559-158.837-192.288-24.78-81.728-.833-120.579-24.865-172.426-24.032-51.847-95.614-33.631-95.614-33.631s-77.084 21.718-58.571 70.334c18.513 48.616 41.11 37.563 89.695 170.379 48.585 132.815 40.729 280.292-3.543 310.382-44.272 30.09-102.919-1.15-140.29 22.807-37.372 23.958 14.517 146.118 38.236 183.7 23.719 37.581 73.245 76.557 109.141 86.521z" fill="#900093" fill-opacity=".45"/><path d="M507.494 936.413C602.456 947.718 670.208 824.2 670.208 824.2s67.743-141.651 50.402-203.824c-17.342-62.174-105.816-164.199-149.441-148.145-43.625 16.054-13.789 131.613-54.765 215.416-40.976 83.804-110.55 40.634-138.756 80.112-28.207 39.479 34.883 157.349 129.846 168.654z" fill="#A91E83" fill-opacity=".5"/><path d="M556.81 889.42c61.744-20.854 94.134-99.048 94.134-99.048s45.174-96.987 26.32-153.081c-18.855-56.095-59.278-94.799-79.729-89.693-20.45 5.105-31.247 119.743-59.667 178.092-28.419 58.349-125.621 51.452-125.245 86.627.375 35.175 82.443 97.958 144.187 77.103z" fill="#BE3970" fill-opacity=".5"/></g></svg>