<svg width="827" height="616" viewBox="0 0 827 616" fill="none" xmlns="http://www.w3.org/2000/svg"><path d="M388.98 91.07c26.962-38.818 315.431-6.8 373.297 63.002 57.866 69.801 32.389 175.001 20.019 207.506-12.37 32.505-119.577 171.865-178.49 186.053-58.912 14.189-111.08 29.292-164.497 15.575-53.416-13.716-82.145-57.394-168.293-78.988-86.148-21.594-109.176 14.623-169.765.137-60.588-14.486-93.277-99.314-73.152-148.496 20.125-49.182 62.641-76.691 105.33-81.936 42.69-5.244 66.486 16.526 89.061 20.347 22.575 3.82 179.315 16.58 196.28-17.952 16.966-34.531-56.752-126.428-29.79-165.247z" fill="#540199" fill-opacity=".3"/><path d="M737.479 168.153c57.787 56.54 33.44 143.87 14.301 180.379-19.139 36.508-98.519 133.453-141.025 159.542-42.507 26.089-112.878 41.222-163.347 29.448-50.468-11.774-102.267-86.317-192.974-99.33-90.707-13.014-105.591 26.809-141.157 19.442-35.567-7.367-59.324-60.207-59.16-94.18.162-33.973 35.88-81.251 80.933-77.522 45.053 3.728 69.879 24.673 111.499 30.421 41.621 5.749 138.763 7.07 168.495-7.184 29.731-14.255 74.462-50.53 50.503-91.992-23.958-41.463-49.83-68.526-34.912-97.174 14.918-28.648 249.056-8.389 306.844 48.15z" fill="#900093" fill-opacity=".4"/><path d="M730.88 205.021c21.248 25.986 19.184 76.052 6.545 109.804-12.64 33.752-56.084 97.81-109.719 144.845-53.635 47.034-120.547 73.758-187.718 45.244-67.172-28.513-121.22-90.837-189.612-93.839-68.391-3.002-88.806 24.081-133.833 15.681-45.026-8.399-38.027-68.514-38.027-68.514s10.636-55.859 41.926-52.283c31.289 3.575 26.111 10.306 141.232 39.142 115.12 28.835 215.178-23.884 240.389-63.215 25.211-39.331-52.25-111.872-27.938-136.593 24.312-24.721 93.324-17.302 148.362.586 55.037 17.887 87.144 33.156 108.393 59.142z" fill="#900093" fill-opacity=".4"/><path d="M716.074 260.698c-4.747 39.086-64.563 124.28-64.563 124.28s-88.352 110.301-146.985 103.525c-58.633-6.777-151.364-43.125-156.629-78.607-5.265-35.482 118.816-39.296 168.263-95.765s-16.457-134.278 28.713-139.352c45.171-5.073 175.949 46.832 171.201 85.919z" fill="#A91E83" fill-opacity=".4"/><path d="M685.654 271.151c-2.99 27.196-53.448 103.226-53.448 103.226s-82.066 98.464-122.985 94.229c-40.92-4.235-105.687-27.68-109.645-52.291-3.959-24.61 84.689-33.126 132.967-89.402 48.278-56.275 16.192-103.136 39.901-114.036 23.709-10.9 116.2 31.078 113.21 58.274z" fill="#BE3970" fill-opacity=".5"/><path opacity=".6" d="M649.319 290.125c-.395 15.59-42.322 73.061-42.322 73.061s-54.774 63.71-79.576 73.151c-24.801 9.44-70.238-13.515-73.666-27.304-3.427-13.788 60.69-21.708 101.655-65.536 40.965-43.827 21.325-87.794 38.995-91.51 17.671-3.716 55.309 22.548 54.914 38.138z" fill="#E36E4A" fill-opacity=".4"/></svg>