<svg width="972" height="1438" viewBox="0 0 972 1438" fill="none" xmlns="http://www.w3.org/2000/svg"><path d="M59.173 496.813C7.28 293.055 210.308 114.844 210.308 114.844S448.235 12.378 597.834 55.752c149.6 43.374 205.927 111.8 218.132 248.739 12.204 136.94 14.808 167.371-4.065 230.959-18.873 63.587-45.045 68.589-44.962 103.276.084 34.688 68.032 221.086 79.854 298.617 22.236 145.817 10.621 342.777-55.434 387.547-66.056 44.78-149.345 58.12-218.381-7.69s-94.798-259.45-186.709-384.24C294.358 808.175 111.067 700.571 59.173 496.813z" fill="#540199" fill-opacity=".4"/><path d="M531.192 488.389c78.492 86.252 144.337 101.851 195.29 95.797 50.952-6.054 53.341-117.246 44.583-222.852-8.757-105.607-44.915-147.685-151.374-191.906-106.459-44.22-131.879-5.083-152.008 52.467-20.13 57.55-14.984 180.242 63.509 266.494z" fill="#900093" fill-opacity=".4"/><path d="M550.036 462.117c61.621 67.712 113.312 79.959 153.313 75.206 40-4.753 41.875-92.045 35-174.951-6.875-82.907-35.261-115.941-118.837-150.656s-103.532-3.99-119.334 41.189c-15.803 45.18-11.763 141.499 49.858 209.212z" fill="#A91E83" fill-opacity=".4"/><path d="M573.188 436.743c43.255 47.531 79.539 56.127 107.617 52.791 28.079-3.336 29.395-64.61 24.569-122.806-4.826-58.196-24.752-81.384-83.417-105.752-58.666-24.369-72.674-2.802-83.767 28.912-11.092 31.714-8.257 99.325 34.998 146.855z" fill="#BE3970" fill-opacity=".4"/><path d="M127.966 359.406c-21.831 67.609-38.16 136.165 76.91 293.604 56.376 77.133 178.228 179.571 275.247 306.215 101.01 131.855 143.722 310.205 259.72 274.655 115.998-35.54 53.644-374.22 4.288-498.826-49.357-124.606-153.608-140.849-235.234-219.466-81.626-78.618-94.244-278.463-189.358-305.028-95.114-26.564-169.742 81.236-191.573 148.846z" fill="#900093" fill-opacity=".4"/><path d="M152.521 369.024c-9.483 69.155 16.514 165.015 106.99 288.855 44.326 60.672 160.436 145.616 236.718 245.233 79.42 103.718 93.106 252.578 184.3 224.628 91.193-27.95 42.152-294.343 3.342-392.355-38.81-98.011-130.394-109.83-194.572-171.671-64.178-61.841-110.849-264.548-185.627-285.448-74.779-20.9-141.669 21.602-151.151 90.758z" fill="#A91E83" fill-opacity=".4"/><path d="M243.476 407.834c-7.689 46.959 21.791 153.349 81.142 239.393 29.078 42.154 121.721 128.391 171.847 197.668 52.188 72.128 90.561 182.635 153.114 165.245 62.552-17.389 35.701-164.519 11.044-232.021-24.656-67.502-95.891-76.442-173.72-155.638-77.829-79.196-100.934-239.853-151.444-255.456-50.51-15.603-84.295-6.149-91.983 40.809z" fill="#BE3970" fill-opacity=".4"/></svg>