<svg width="1082" height="986" viewBox="0 0 1082 986" fill="none" xmlns="http://www.w3.org/2000/svg"><path d="M955.505 352.784c47.105 27.964 94.245 108.855 76.465 170.254-17.79 61.399-188.596 126.461-268.29 172.067-79.694 45.607-230.82 179.02-290.342 187.235-59.521 8.216-160.861 16.408-226.743-39.7-65.883-56.107-115.102-173.72-117.732-233.636-2.63-59.916 8.043-155.404 84.592-253.517s225.43-151.103 270.789-153.461c45.358-2.358 160.414 4.079 219.386 47.875 58.972 43.796 204.772 74.919 251.875 102.883z" fill="#540199" fill-opacity=".4"/><path d="M888.681 383.31c36.442 21.635 83.28 70.539 55.848 131.007-27.432 60.469-117.641 75.207-179.297 110.491-61.656 35.284-213.384 148.761-271.648 171.969-58.264 23.208-124.462 38.109-193.406-20.612-68.944-58.721-87.678-152.503-83.953-196.656 3.726-44.154 6.272-111.505 69.701-185.667 63.43-74.162 181.78-115.047 222.422-118.708 40.643-3.661 99.258-1.519 165.577 23.638s178.314 62.904 214.756 84.538z" fill="#900093" fill-opacity=".4"/><path d="M380.097 745.622c115.196 29.184 525.316-212.446 476.252-303.941-49.063-91.494-260.697-132.591-400.32-102.188-139.623 30.402-191.228 149.561-192.628 200.215-1.4 50.655 1.499 176.731 116.696 205.914z" fill="#900093" fill-opacity=".4"/><path d="M416.822 683.329c102.751 57.81 409.464-174.551 383.607-239.48-25.857-64.928-256.495-94.103-360.635-56.443-104.14 37.659-123.064 133.818-123.064 133.818s-2.658 104.295 100.092 162.105z" fill="#A91E83" fill-opacity=".4"/><path d="M543.492 600.966c41.966-13.104 189.675-86.947 185.984-124.089-3.692-37.142-74.409-17.177-151.265-38.424-76.855-21.246-104.786-13.048-144.323 6.488-39.538 19.535-78.644 66.475-47.149 122.047 31.495 55.572 114.787 47.081 156.753 33.978z" fill="#BE3970" fill-opacity=".4"/></svg>