<svg width="737" height="857" viewBox="0 0 737 857" fill="none" xmlns="http://www.w3.org/2000/svg"><path d="M139.091 607.108c-1.5 63.544 282.551 264.558 392.576 248.193 110.026-16.365 172.914-133.323 188.238-173.145 15.323-39.822 31.537-254.921-10.654-316.132-42.191-61.211-77.473-117.733-137.498-148.953-60.026-31.221-122.041-14.853-218.416-65.686-96.375-50.833-87.748-102.775-154.954-139.167C131.176-24.174 31.84 26.538 9.943 87.944c-21.9 61.407-5.595 121.356 29.103 161.11 34.698 39.754 74.264 39.358 98.014 54.357 23.749 15 177.369 131.718 164.583 177.156-12.785 45.437-161.052 62.997-162.552 126.541z" fill="#540199" fill-opacity=".3"/><path d="M520.551 822.129c99.092-4.316 148.378-104.025 160.797-153.048 12.419-49.023 19.313-202.588 1.854-261.232-17.459-58.644-69.344-130.103-125.086-160.683-55.742-30.58-164.107-4.916-257.62-67.32-93.512-62.404-74.492-110.97-113.012-133.37-38.52-22.4-103.498 6.408-131.174 37.572-27.676 31.165-33.772 103.604 10.434 137.097 44.206 33.494 84.037 34.696 126.762 63.533 42.725 28.837 132.539 107.192 148.022 144.564 15.482 37.371 26.63 107.14-29.213 125.39-55.843 18.251-115.232 15.901-111.477 60.167 3.756 44.265 220.622 211.645 319.713 207.33z" fill="#900093" fill-opacity=".35"/><path d="M544.714 783.048c40.692-6.333 79.813-53.756 95.911-94.937 16.098-41.182 28.88-135.276 18.412-222.166-10.469-86.89-49.701-166.103-134.41-195.073s-185.122-16.309-250.051-69.581c-64.929-53.272-61.394-94.731-109.402-123.936-48.007-29.205-90.85 31.437-90.85 31.437S38.29 168.526 69.8 190.887c31.509 22.361 32.292 11.971 161.062 79.919s176.987 198.052 167.802 254.626c-9.185 56.574-139.352 59.393-137.392 101.885 1.961 42.492 71.074 92.238 135.996 120.976 64.923 28.739 106.755 41.088 147.447 34.755z" fill="#900093" fill-opacity=".4"/><path d="M576.791 720.063c27.677-39.59 42.815-166.398 42.815-166.398s9.636-173.114-49.47-214.946c-59.106-41.832-173.579-84.58-207.449-56.482-33.869 28.098 76.345 133.206 75.261 225.285-1.084 92.078-125.009 109.174-87.905 150.804 37.105 41.629 199.071 101.328 226.748 61.737z" fill="#A91E83" fill-opacity=".45"/><path d="M557.568 685.603c19.543-27.29 35.725-138.064 35.725-138.064s5.683-157.153-35.162-186.798c-40.845-29.646-119.207-61.276-142.979-42.039-23.772 19.238 50.225 99.621 48.232 190.565-1.993 90.944-69.68 107.469-56.952 136.843 12.729 29.375 131.593 66.783 151.136 39.493z" fill="#BE3970" fill-opacity=".5"/><path opacity=".6" d="M539.922 638.511c12.407-14.564 21.181-101.398 21.181-101.398s2.148-103.055-12.774-131.992c-14.922-28.936-75.227-45.182-89.651-35.395-14.423 9.788 37.656 69.535 39.178 143.12 1.523 73.584-52.427 97.659-39.33 115.526 13.098 17.866 68.988 24.702 81.396 10.139z" fill="#E36E4A" fill-opacity=".5"/></svg>