<svg width="913" height="808" viewBox="0 0 913 808" fill="none" xmlns="http://www.w3.org/2000/svg"><path d="M98.03 514.554c-38.775-23.658-79.257-67.973-63.896-118.703 15.361-50.73 114.583-68.767 181.117-105.783 66.534-37.016 244.145-187.16 321.491-205.934 77.345-18.773 129.338-4.868 202.466 58.956 73.127 63.825 78.093 160.801 70.714 204.413-7.378 43.611-46.628 110.578-118.611 182.61-71.982 72.031-183.382 129.022-238.016 127-54.635-2.023-106.797-23.116-148.356-66.096-41.559-42.98-168.134-52.806-206.91-76.463z" fill="#540199" fill-opacity=".4"/><path d="M173.354 494.285c-44.342-16.507-93.111-40.904-80.77-81.659 12.34-40.755 116.951-69.947 170.402-99.685 53.452-29.737 214.646-168.323 264.332-182.88 49.687-14.558 102.608-19.419 161.357 31.855 58.748 51.275 69.065 100.818 70.475 145.215 1.41 44.396-7.176 91.088-76.782 170.509-69.605 79.42-199.172 129.847-239.959 131.028-40.788 1.18-63.035-8.503-96.423-43.032-33.387-34.53-128.291-54.844-172.632-71.351z" fill="#900093" fill-opacity=".4"/><path d="M617.671 176.33c-82-27.634-474.598 201.081-444.563 258.752 30.034 57.671 281.855 142.404 383.667 91.604 101.812-50.799 156.811-145.19 158.883-197.335 2.072-52.146-15.987-125.387-97.987-153.021z" fill="#900093" fill-opacity=".4"/><path d="M608.028 229.273c-89.215-51.62-397.955 155.252-381.827 197.653 16.128 42.401 252.282 92.287 322.87 72.814 70.587-19.473 116.014-126.264 116.014-126.264s32.157-92.582-57.057-144.203z" fill="#A91E83" fill-opacity=".4"/><path d="M451.996 309.522c-27.152 7.989-137.331 72.235-129.804 103.48 7.527 31.245 60.95-1.412 129.008 7.65 68.058 9.061 82.284 23.792 113.704 2.468 31.42-21.323 49.738-63.754 16.101-105.948-33.638-42.195-101.857-15.639-129.009-7.65z" fill="#BE3970" fill-opacity=".4"/></svg>