<svg width="1594" height="1411" viewBox="0 0 1594 1411" fill="none" xmlns="http://www.w3.org/2000/svg"><path d="M1305.44 1110.71c3.01 81.32-60.03 205.3-151 232.53-90.97 27.23-309.708-133.64-430.806-196.41-121.097-62.78-409.324-144.04-467.5-211.738-58.176-67.695-149.99-187.616-132.983-315.037 17.006-127.421 124.213-283.557 196.897-335.078 72.683-51.52 200.488-115.071 384.604-98.493 184.116 16.578 370.128 159.786 409.598 214.515 39.46 54.73 124.05 203.552 116.85 312.434-7.2 108.882 71.33 315.957 74.34 397.277z" fill="#540199" fill-opacity=".4"/><path d="M1213.53 1051.86c2.33 62.92-21.02 160.76-118.6 175.2-97.572 14.43-188.597-86.32-282.285-134.89-93.688-48.57-357.51-146.633-433.392-200.688-75.881-54.055-147.779-124.703-129.975-258.05 17.805-133.348 119.803-232.238 177.926-263.134 58.122-30.896 144.255-81.94 287.908-62.459C858.765 327.32 1005.09 442.157 1042.38 489.95c37.29 47.792 81.81 122.694 103.79 225.742 21.99 103.049 65.03 273.258 67.36 336.168z" fill="#900093" fill-opacity=".4"/><path d="M351.752 708.616c56.309 167.312 688.148 484.794 762.878 349.874 74.72-134.911-44.35-432.209-194.718-582.044-150.364-149.835-340.671-118.327-405.038-79.294-64.366 39.032-219.43 144.153-163.122 311.464z" fill="#900093" fill-opacity=".4"/><path d="M459.091 704.319c10.55 174.819 547.569 370.661 607.809 286.109 60.24-84.554-89.016-395.979-219.872-495.673-130.857-99.694-266.141-45.903-266.141-45.903s-132.346 80.647-121.796 255.467z" fill="#A91E83" fill-opacity=".4"/><path d="M663.889 796.143c50.144 41.843 261.25 166.798 304.649 132.288 43.402-34.511-38.46-106.723-73.81-219.778-35.35-113.056-68.072-141.324-124.292-174.957-56.22-33.633-146.305-44.664-190.327 39.395-44.022 84.059 33.635 181.209 83.78 223.052z" fill="#BE3970" fill-opacity=".4"/></svg>