<svg width="990" height="680" viewBox="0 0 990 680" fill="none" xmlns="http://www.w3.org/2000/svg"><g opacity=".9"><path d="M415.906 607.256c44.188 49.763 358.535 79.21 448.96 12.109 90.426-67.101 107.56-107.502 90.863-237.414-16.696-129.912-127.72-263.177-194.907-297.383-67.186-34.207-89.023-45.006-157.697-44.056-68.674.95-78.183 53.04-188.784 53.938-110.601.898-181.631-60.759-238.793-60.915-57.161-.156-148.578 47.028-144.466 146.223 4.113 99.196 49.486 131.969 97.614 144.502 48.127 12.533 125.86-8.421 154.306-6.446 28.446 1.975 171.361 46.492 196.859 86.895 25.497 40.403-108.144 152.784-63.955 202.547z" fill="#540199" fill-opacity=".3"/><path d="M830.892 598.671c87.01-51.501 104.451-114.805 92.403-203.01-12.048-88.205-108.437-221.148-161.931-261.873-53.493-40.724-95.07-58.06-141.747-58.442-46.676-.381-152.393 67.564-266.01 56.817-113.618-10.746-129.999-58.512-182.301-60.237-52.301-1.725-92.515 50.504-100.915 96.435-8.4 45.931 6.343 111.392 61.977 120.019 55.634 8.627 97.646-17.898 150.341-10.932 52.695 6.966 199.491 49.61 230.355 78.819 30.863 29.209 55.908 70.885 14.804 113.774-41.104 42.889-56.553 55.679-46.85 94.471 9.703 38.792 262.863 85.659 349.874 34.159z" fill="#900093" fill-opacity=".4"/><path d="M860.98 538.092c25.55-27.02 47.972-75.918 42.214-127.626-5.758-51.708-45.725-121.362-96.939-193.531-51.213-72.169-134.729-117.555-224.374-102.813-89.645 14.742-160.134 66.665-243.812 50.373-83.679-16.292-106.777-55.558-163.742-58.56-56.965-3.001-74.311 68.66-74.311 68.66s-16.826 78.151 34.712 84.514c51.537 6.363 52.335-18.735 192.202.404 139.866 19.138 266.319 94.921 272.199 148.03 5.88 53.109-49.063 90.269-45.372 134.427 3.691 44.158 135.699 55.407 179.93 52.025 44.232-3.382 101.743-28.883 127.293-55.903z" fill="#900093" fill-opacity=".45"/><path d="M842.621 486.705c54.308-78.508-23.043-195.951-23.043-195.951s-93.353-125.902-156.306-139.627c-62.953-13.726-194.275 16.705-200.477 62.691-6.202 45.985 109.686 73.61 164.497 148.888 54.811 75.278-15.759 116.509 5.904 159.827 21.664 43.318 155.116 42.681 209.425-35.828z" fill="#A91E83" fill-opacity=".5"/><path d="M824.181 421.254c10.425-64.214-43.444-129.297-43.444-129.297s-64.483-85.137-122.778-94.689c-58.296-9.553-111.316 8.044-116.359 28.471-5.043 20.427 91.063 83.473 129.277 135.789 38.214 52.315-13.251 134.857 17.96 150.948 31.211 16.09 124.918-27.009 135.344-91.222z" fill="#BE3970" fill-opacity=".5"/></g></svg>