<svg width="1489" height="1237" viewBox="0 0 1489 1237" fill="none" xmlns="http://www.w3.org/2000/svg"><path d="M965.61 323.862c-6.084-79.599-453.663-279.606-597.636-227.404-143.973 52.201-196.808 227.226-206.581 285.152-9.774 57.925 27.237 352.589 100.921 423.628 73.684 71.04 136.763 137.644 226.3 163.336 89.538 25.691 168.732-13.37 312.683 28.833 143.952 42.203 146.531 114.653 247.173 145.353 100.64 30.7 220.79-64.92 233.53-153.765 12.73-88.85-25.68-165.273-83.38-209.412-57.7-44.14-110.98-32.774-147.13-46.51-36.15-13.737-275.375-129.165-270.563-193.972 4.812-64.807 190.768-135.64 184.683-215.239z" fill="#540199" fill-opacity=".3"/><path d="M392.055 138.172c-132.519 32.951-171.722 180.979-175.058 250.523-3.336 69.545 29.404 278.632 69.016 352.979 39.611 74.346 129.18 156.558 212.763 182.559 83.582 26.001 222.77-38.294 366.027 20.305 143.257 58.602 130.889 129.332 188.997 149.012 58.11 19.68 137.89-36.98 166.7-86.61 28.81-49.621 17.21-149.029-51.61-182.119-68.81-33.09-122.89-23.807-188.428-51.019C914.92 746.59 772.286 665.456 741.165 619.27c-31.121-46.185-65.263-137.27 5.088-177.182 70.35-39.913 131.176-57.213 133.94-111.699 2.763-54.487-355.618-225.167-488.138-192.217z" fill="#900093" fill-opacity=".4"/><path d="M370.147 197.519c-53.171 19.686-92.972 94.38-103.419 154.353-10.447 59.972-1.933 190.429 35.979 304.801 37.913 114.372 112.533 210.51 234.759 226.408 122.226 15.898 254.244-28.676 356.434 25.427 102.19 54.103 108.77 111.012 181.54 137.272 72.77 26.26 113.98-67.289 113.98-67.289s32.26-90.461-16.37-112.006c-48.64-21.545-46.85-7.312-239.197-63.738-192.347-56.427-293.023-218.772-296.118-297.62-3.095-78.847 171.763-118.286 157.485-175.083-14.278-56.797-121.148-104.995-216.614-125.998-95.465-21.002-155.289-26.212-208.459-6.527z" fill="#900093" fill-opacity=".4"/><path d="M344.111 291.282c-26.504 60.995-12.215 236.237-12.215 236.237s34.392 236.215 125.594 276.476c91.202 40.261 257.359 66.601 295.366 19.417 38.006-47.184-139.476-158.83-163.222-283.365-23.746-124.535 138.782-181.528 77.321-227.54-61.46-46.012-296.339-82.22-322.844-21.225z" fill="#A91E83" fill-opacity=".4"/><path d="M379.482 332.518c-18.897 42.172-10.404 196.066-10.404 196.066s35.354 213.595 98.581 242.414c63.227 28.818 177.616 50.042 204.425 17.577 26.809-32.464-95.04-120.665-117.248-243.917-22.209-123.253 64.596-164.081 39.38-200.23s-195.836-54.082-214.734-11.91z" fill="#BE3970" fill-opacity=".5"/><path opacity=".6" d="M416.19 391.224c-12.754 23.047-.82 142.611-.82 142.611s25.314 139.637 53.37 174.595c28.056 34.958 113.87 40.368 130.652 23.214 16.782-17.154-69.843-83.512-92.042-182.38-22.199-98.869 44.002-146.121 21.439-166.643-22.563-20.521-99.845-14.443-112.599 8.603z" fill="#E36E4A" fill-opacity=".4"/></svg>