<svg width="1489" height="1091" viewBox="0 0 1489 1091" fill="none" xmlns="http://www.w3.org/2000/svg"><path d="M1116.45 240.603c207.7 32.721 291.34 289.597 291.34 289.597s.26 259.053-98.63 379.397c-98.88 120.343-183.98 145.103-314.626 102.273-130.643-42.819-159.632-52.435-210.612-94.868-50.98-42.433-45.249-68.455-77.154-82.066-31.906-13.611-229.991-24.73-305.895-44.461-142.761-37.11-319.155-125.503-334.228-203.866-15.073-78.362 5.53-160.159 93.245-197.623 87.715-37.463 275.807 15.276 426.734-19.936 150.928-35.211 322.127-161.168 529.826-128.447z" fill="#540199" fill-opacity=".4"/><path d="M937.933 677.643c-110.226 38.088-150.543 92.434-165.086 141.641-14.543 49.207 86.683 95.278 187.176 128.904 100.487 33.625 153.427 17.006 236.067-63.365 82.64-80.37 56.71-119.171 11.77-160.376-44.93-41.205-159.7-84.892-269.927-46.804z" fill="#900093" fill-opacity=".4"/><path d="M954.636 705.324c-86.533 29.901-118.184 72.565-129.601 111.195-11.417 38.63 68.051 74.799 146.943 101.197 78.892 26.398 120.442 13.35 185.322-49.745 64.88-63.095 44.52-93.555 9.24-125.904-35.27-32.348-125.37-66.644-211.904-36.743z" fill="#A91E83" fill-opacity=".4"/><path d="M968.816 736.609c-60.742 20.989-82.959 50.937-90.973 78.053-8.014 27.116 47.768 52.504 103.146 71.035 55.381 18.53 84.551 9.371 130.091-34.918 45.54-44.29 31.25-65.672 6.48-88.378-24.76-22.707-88-46.781-148.744-25.792z" fill="#BE3970" fill-opacity=".4"/><path d="M1215.56 358.035c-53.51-46.738-110.06-88.795-300.127-45.188-93.119 21.364-235.328 92.906-389.979 132.077-161.014 40.784-341.742 9.654-354.856 130.264-13.113 120.611 322.687 196.96 456.657 200.779 133.971 3.819 190.034-85.563 294.481-129.543 104.444-43.979 293.054 23.286 354.994-53.626 61.94-76.914-7.66-188.024-61.17-234.763z" fill="#900093" fill-opacity=".4"/><path d="M1197.04 376.803c-59.8-36.002-158.14-49.942-307.637-15.675-73.24 16.788-197.108 89.956-318.742 120.738-126.639 32.049-268.819-14.116-279.122 80.707-10.304 94.822 253.821 154.879 359.194 157.894 105.373 3.015 152.372-76.473 234.519-111.04 82.148-34.568 286.818 2.537 335.538-57.926 48.71-60.463 36.05-138.696-23.75-174.698z" fill="#A91E83" fill-opacity=".4"/><path d="M1185.46 417.693c-40.11-25.595-149.5-40.489-251.98-19.907-50.208 10.083-166.004 61.18-249.44 79.901-86.868 19.491-203.552 11.142-212.256 75.481-8.704 64.34 137.082 97.725 208.836 101.706 71.754 3.981 108.078-57.945 211.559-98.208 103.482-40.262 260.221 1.904 294.491-38.35 34.26-40.255 38.91-75.028-1.21-100.623z" fill="#BE3970" fill-opacity=".4"/><path d="M1093.99 420.486c-61.13-10.418-110.142 6.022-112.704 38.957-2.561 32.936 40.514 35.292 104.674 41.029 64.17 5.737 115.8 24.629 124.3-15.108 8.51-39.737-55.15-54.46-116.27-64.878z" fill="#BE3970" fill-opacity=".5"/></svg>