<svg width="948" height="760" viewBox="0 0 948 760" fill="none" xmlns="http://www.w3.org/2000/svg"><g opacity=".9"><path d="M595.191 170.587c-26.996-51.084-286.008-140.78-376.109-102.852-90.102 37.927-112.887 68.462-125.613 181.462-12.727 113 53.401 248.291 103.001 291 49.6 42.71 65.787 56.323 123.895 69.692 58.109 13.369 76.876-28.596 170.331-6.532C584.152 625.422 631.328 692.073 679.5 704c48.172 11.927 135-9 152-93.5S817 489 779 468.5s-107.875-18.869-131.456-26.404c-23.582-7.535-134.916-74.566-148.081-113.899-13.165-39.333 122.723-106.527 95.728-157.61z" fill="#540199" fill-opacity=".3"/><path d="M243.463 92.197c-84.002 25.476-111.772 75.262-119.813 152.131-8.04 76.869 45.813 208.869 82.52 254.25 36.708 45.381 68.192 68.579 107.476 78.532 39.284 9.953 142.454-25.531 236.05 6.976S647.25 660.253 691 672.5 779.439 649 796 612c16.561-37 17.636-95.245-27.5-114-45.136-18.755-86.037-5.055-129.038-21.803-43-16.748-157.993-83-177.993-114s-32.521-71.313 10.992-99c43.513-27.687 59.18-35.284 59.002-70-.179-34.716-203.997-126.476-288-101z" fill="#900093" fill-opacity=".4"/><path d="M205.588 137.074c-27.121 17.514-56.12 54.123-61.933 98.916-5.814 44.794 13.517 111.78 41.814 183.207 28.296 71.428 89.36 126.934 168 133 78.639 6.066 148.796-23.175 216 7.83 67.204 31.005 78.581 68.885 126 83.17 47.419 14.286 76.833-42.567 76.833-42.567s30.315-62.433-11.833-78.433c-42.149-16-48 5-162-40s-205-135-199-181 60.001-66 66-104c5.999-38-103.002-74.725-141-81-37.998-6.275-91.759 3.364-118.881 20.877z" fill="#900093" fill-opacity=".45"/><path d="M210.469 184.197c-61.998 55-21.002 170-21.002 170s52.746 125.436 103.002 150c50.256 24.564 167.278 26 181.997-11.5 14.719-37.5-77.308-84.709-107.997-159.5-30.689-74.792 37.33-95 28-136-9.331-41-122.002-68-184-13z" fill="#A91E83" fill-opacity=".5"/><path d="M212.512 243.197c-22.042 52 9.957 118 9.957 118s36.81 85.101 84 105.186c47.189 20.084 95.532 16.185 104 0 8.467-16.186-59.57-89.183-81-141.186-21.431-52.003 39.001-110.991 16.001-131-23-20.009-110.916-3-132.958 49z" fill="#BE3970" fill-opacity=".5"/></g></svg>