<svg width="1432" height="959" viewBox="0 0 1432 959" fill="none" xmlns="http://www.w3.org/2000/svg"><path d="M942.117 54.998C1146.43 5.348 1322.4 210.323 1322.4 210.323s99.85 239.039 54.83 388.153c-45.02 149.114-114.06 204.685-251.12 215.383-137.068 10.699-167.527 12.967-230.903-6.604-63.376-19.571-68.09-45.796-102.776-46.094-34.686-.298-221.82 65.597-299.476 76.566-146.056 20.631-342.876 6.852-386.919-59.692-44.043-66.544-56.473-149.975 10.096-218.283 66.568-68.308 260.48-91.94 386.268-182.473 125.789-90.534 235.401-272.631 439.717-322.281z" fill="#540199" fill-opacity=".4"/><path d="M945.353 527.081c-87.109 77.54-103.432 143.209-97.939 194.225 5.494 51.016 116.653 54.627 222.346 47.031 105.7-7.596 148.17-43.289 193.56-149.255 45.39-105.967 6.53-131.815-50.79-152.576-57.33-20.761-180.07-16.965-267.177 60.575z" fill="#900093" fill-opacity=".4"/><path d="M971.414 546.212c-68.386 60.873-81.2 112.427-76.887 152.477 4.312 40.05 91.578 42.885 174.553 36.922 82.98-5.963 116.32-33.984 151.96-117.173 35.63-83.19 5.12-103.482-39.88-119.781-45-16.298-141.36-13.318-209.746 47.555z" fill="#A91E83" fill-opacity=".4"/><path d="M996.533 569.641c-48.003 42.729-56.998 78.917-53.971 107.03 3.028 28.114 64.288 30.103 122.528 25.918 58.25-4.186 81.65-23.856 106.66-82.25 25.02-58.394 3.6-72.639-27.99-84.079-31.59-11.441-99.22-9.349-147.227 33.381z" fill="#BE3970" fill-opacity=".4"/><path d="M1078.76 125.298c-67.36-22.573-135.736-39.655-294.431 73.678C706.582 254.5 602.81 375.219 475.107 470.839 342.15 570.393 163.345 611.142 197.611 727.524c34.266 116.382 373.609 57.754 498.751 9.771 125.141-47.983 142.529-152.049 222.039-232.806 79.51-80.757 279.479-91.177 307.089-185.993 27.61-94.816-79.36-170.625-146.73-193.198z" fill="#900093" fill-opacity=".4"/><path d="M1068.87 149.746c-69.043-10.242-165.183 14.699-290.011 103.808-61.155 43.657-147.37 158.825-247.82 234.007-104.583 78.275-253.584 90.324-226.638 181.819 26.946 91.496 293.859 45.386 392.292 7.656 98.432-37.73 111.257-129.179 173.8-192.673 62.543-63.493 265.747-107.933 287.467-182.477 21.72-74.545-20.04-141.897-89.09-152.14z" fill="#A91E83" fill-opacity=".4"/><path d="M1029.06 240.269c-46.867-8.205-153.575 20.104-240.266 78.505-42.472 28.613-129.722 120.303-199.546 169.663-72.697 51.392-183.622 88.548-166.92 151.288 16.702 62.74 164.118 37.508 231.887 13.595 67.769-23.913 77.492-95.045 157.539-171.998 80.047-76.954 240.946-98.291 257.106-148.627 16.16-50.335 7.08-84.222-39.8-92.426z" fill="#BE3970" fill-opacity=".4"/></svg>