<svg width="924" height="980" viewBox="0 0 924 980" fill="none" xmlns="http://www.w3.org/2000/svg"><g opacity=".9"><path d="M241.905 590.877c-7.308 57.313 152.944 279.69 248.461 300.504 95.518 20.814 131.722 8.947 207.141-76.158 75.419-85.105 99.164-233.808 83.166-297.277-15.999-63.469-21.406-83.916-61.244-128.281-39.838-44.366-79.331-20.838-143.078-92.651-63.746-71.813-63.988-153.47-96.528-190.94-32.541-37.469-115.6-70.305-178.118-10.97-62.519 59.336-58.04 107.722-38.752 146.351 19.287 38.63 77.379 77.495 92.332 97.225 14.953 19.73 67.454 138.608 55.593 178.354-11.86 39.746-161.665 16.529-168.973 73.843z" fill="#540199" fill-opacity=".3"/><path d="M484.498 857.346c83.365 27.49 134.722 2.745 185.522-55.504 50.8-58.248 82.692-197.198 78.775-255.435-3.916-58.237-16.322-95.324-42.727-126.066-26.406-30.741-131.207-61.072-189.061-141.507-57.854-80.436-35.973-118.424-64.712-153.611-28.739-35.186-85.857-31.658-120.69-10.922-34.832 20.736-69.22 67.759-43.092 109.066 26.129 41.307 67.465 53.633 93.001 92.07 25.536 38.437 81.479 158.784 80.003 195.646-1.476 36.862-14.428 77.039-65.947 74.652-51.519-2.388-68.705-5.187-88.531 23.311-19.826 28.498 94.094 220.81 177.459 248.3z" fill="#900093" fill-opacity=".4"/><path d="M541.294 842.429c32.26 1.278 77.04-11.983 107.566-45.276 30.525-33.293 53.25-99.205 71.199-173.907 17.948-74.703-.065-155.234-60.898-205.438-60.832-50.203-135.038-66.647-172.169-130.671-37.131-64.023-24.645-101.551-55.212-140.517-30.567-38.965-87.334-9.385-87.334-9.385s-60.714 33.625-35.444 70.961c25.27 37.335 42.137 23.525 109.493 125.917s90.011 228.36 58.639 262.533c-31.372 34.173-87.048 19.465-113.816 47.095-26.769 27.63 41.258 120.378 68.729 147.371 27.47 26.993 76.988 50.039 109.247 51.317z" fill="#900093" fill-opacity=".45"/><path d="M564.414 801.078c82.353-9.319 114.981-126.967 114.981-126.967s29.021-132.943 2.047-181.948c-26.974-49.005-121.865-117.503-155.478-95.299-33.613 22.205 14.5 113.763-3.427 192.593-17.926 78.83-85.188 56.228-101.144 95.131-15.956 38.903 60.669 125.808 143.021 116.49z" fill="#A91E83" fill-opacity=".5"/><path d="M596.686 751.644c47.945-29.852 59.743-102.244 59.743-102.244s18.85-90.785-8.193-134.361c-27.043-43.577-68.828-68.2-85.065-59.833-16.238 8.368-2.584 107.217-14.973 162.081-12.388 54.864-95.754 68.346-88.453 97.944 7.301 29.598 88.996 66.265 136.941 36.413z" fill="#BE3970" fill-opacity=".5"/></g></svg>