<svg width="810" height="922" viewBox="0 0 810 922" fill="none" xmlns="http://www.w3.org/2000/svg"><path d="M317.201 93.978C344.835 55.755 417.859 21.6 469.132 41.613c51.273 20.014 93.818 171.535 126.747 243.413 32.929 71.878 135.615 211.823 138.043 263.502 2.429 51.679 1.594 139.218-51.63 191.363-53.224 52.145-157.899 85.231-209.484 82.84-51.584-2.392-132.642-18.951-210.841-92.204-78.199-73.253-112.092-205.034-110.597-244.114 1.496-39.08 15.94-137.247 58.07-184.421 42.13-47.174 80.128-169.789 107.761-208.014z" fill="#540199" fill-opacity=".4"/><path d="M338.196 153.651c21.379-29.573 66.949-65.946 116.676-37.732 49.727 28.214 55.368 106.715 80.844 162.324 25.476 55.609 111.019 194.523 126.402 246.287 15.383 51.765 23.027 109.688-32.675 164.256-55.703 54.568-137.578 63.36-175.153 56.74-37.574-6.619-95.133-14.026-153.811-74.171-58.678-60.146-84.559-164.806-84.546-199.943.012-35.136 6.395-85.235 33.112-140.155 26.717-54.921 67.772-148.034 89.151-177.606z" fill="#900093" fill-opacity=".4"/><path d="M609.449 617.883c33.961-96.523-141.439-466.957-223.705-431.98-82.265 34.978-133.921 213.276-118.679 335.367 15.243 122.09 113.424 175.585 156.754 180.714 43.33 5.13 151.67 12.421 185.63-84.101z" fill="#900093" fill-opacity=".4"/><path d="M558.879 581.556c57.543-83.629-117.928-364.67-175.612-347.532-57.684 17.138-100.591 212.656-76.373 304.882 24.217 92.225 105.21 115.911 105.21 115.911s89.232 10.368 146.775-73.261z" fill="#A91E83" fill-opacity=".4"/><path d="M498.073 466.547c-7.982-37.004-59.85-169.397-91.987-169.113-32.137.285-20.501 62.476-44.682 126.736-24.18 64.259-19.316 88.846-5.63 124.266 13.686 35.421 50.906 72.596 101.004 49.898 50.098-22.698 49.277-94.783 41.295-131.787z" fill="#BE3970" fill-opacity=".4"/></svg>