<svg width="778" height="579" viewBox="0 0 778 579" fill="none" xmlns="http://www.w3.org/2000/svg"><path d="M365.913 85.67c25.363-36.517 296.724-6.398 351.159 59.264 54.434 65.662 30.467 164.623 18.831 195.2-11.637 30.578-112.486 161.672-167.904 175.02-55.419 13.347-104.493 27.554-154.742 14.651-50.248-12.903-77.273-53.991-158.312-74.304-81.039-20.313-102.702 13.756-159.697.129-56.995-13.627-87.745-93.424-68.814-139.69 18.932-46.265 58.927-72.143 99.084-77.076 40.158-4.933 62.543 15.546 83.779 19.14 21.236 3.594 168.68 15.597 184.639-16.887 15.96-32.484-53.386-118.931-28.023-155.447z" fill="#540199" fill-opacity=".3"/><path d="M693.745 158.181c54.361 53.187 31.457 135.337 13.453 169.681-18.004 34.343-92.676 125.538-132.661 150.08-39.986 24.542-106.184 38.777-153.659 27.702-47.476-11.076-96.202-81.198-181.53-93.44-85.328-12.241-99.329 25.219-132.786 18.289-33.457-6.929-55.805-56.636-55.652-88.594.153-31.958 33.753-76.432 76.134-72.925 42.381 3.507 65.735 23.21 104.887 28.618 39.152 5.408 130.533 6.65 158.502-6.759 27.968-13.41 70.045-47.533 47.508-86.536-22.537-39.004-46.875-64.462-32.842-91.411 14.034-26.95 234.286-7.892 288.646 45.295z" fill="#900093" fill-opacity=".4"/><path d="M687.536 192.862c19.988 24.445 18.047 71.542 6.157 103.292s-52.758 92.009-103.212 136.255c-50.454 44.245-113.398 69.383-176.586 42.561-63.188-26.823-114.03-85.451-178.366-88.275-64.335-2.824-83.539 22.654-125.896 14.752-42.356-7.901-35.771-64.451-35.771-64.451s10.005-52.546 39.439-49.183c29.434 3.364 24.562 9.696 132.855 36.821 108.294 27.125 202.418-22.467 226.133-59.466 23.716-36.998-49.151-105.237-26.28-128.492 22.87-23.255 87.789-16.275 139.562.551 51.774 16.826 81.977 31.19 101.965 55.635z" fill="#900093" fill-opacity=".4"/><path d="M673.606 245.237c-4.466 36.768-60.735 116.909-60.735 116.909s-83.112 103.76-138.268 97.386c-55.155-6.375-142.387-40.567-147.34-73.945-4.952-33.378 111.769-36.965 158.284-90.086 46.514-53.12-15.481-126.315 27.011-131.087 42.491-4.773 165.513 44.054 161.048 80.823z" fill="#A91E83" fill-opacity=".4"/><path d="M644.992 255.07c-2.812 25.583-50.278 97.105-50.278 97.105s-77.199 92.624-115.691 88.64c-38.493-3.983-99.419-26.038-103.143-49.189-3.723-23.151 79.667-31.162 125.082-84.1 45.414-52.938 15.232-97.02 37.535-107.274 22.302-10.254 109.308 29.235 106.495 54.818z" fill="#BE3970" fill-opacity=".5"/><path opacity=".6" d="M610.81 272.919c-.372 14.665-39.812 68.728-39.812 68.728s-51.526 59.932-74.856 68.813c-23.331 8.88-66.074-12.714-69.298-25.685-3.224-12.97 57.09-20.42 95.626-61.649s20.06-82.588 36.683-86.084c16.622-3.495 52.028 21.212 51.657 35.877z" fill="#E36E4A" fill-opacity=".4"/></svg>