<svg width="1240" height="978" viewBox="0 0 1240 978" fill="none" xmlns="http://www.w3.org/2000/svg"><path d="M782.835 218.834c-11.913-67.279-410.021-199.773-528.227-143.14-118.205 56.634-148.403 210.168-151.829 260.328-3.425 50.161 53.013 297.992 121.776 352.264 68.762 54.272 128.118 105.664 206.548 119.974 78.43 14.31 142.575-25.655 268.745-1.884 126.17 23.77 134.493 85.253 222.805 102.892 88.307 17.638 182.557-73.957 185.887-150.705 3.33-76.749-35.84-138.589-88.72-171.303-52.872-32.713-97.286-18.528-129.237-27.17-31.95-8.642-245.457-86.721-246.839-142.323-1.382-55.602 151.004-131.654 139.091-198.933z" fill="#540199" fill-opacity=".3"/><path d="M278.646 109.186c-110.078 39.269-130.948 168.657-127.909 228.169 3.04 59.512 48.604 234.82 88.627 294.79 40.024 59.971 123.26 122.415 196.645 137.491 73.384 15.077 186.491-51.452 313.456-13.658 126.965 37.795 122.413 99.083 173.566 110.93 51.152 11.847 114.309-43.155 134.649-87.857 20.35-44.702 2.05-128.385-59.352-150.748-61.406-22.363-106.673-9.884-164.796-27.518-58.122-17.634-186.462-74.673-216.872-111.377-30.411-36.704-67.191-111.392-10.65-151.334 56.541-39.942 106.883-59.819 104.629-106.458-2.253-46.639-321.914-161.7-431.993-122.43z" fill="#900093" fill-opacity=".4"/><path d="M265.007 161.583c-43.619 21.262-71.201 88.244-75.027 140.205-3.827 51.96 14.456 162.348 56.417 256.551 41.961 94.203 113.643 169.773 219.085 172.977 105.442 3.205 214.111-45.921 305.72-8.484 91.608 37.437 102.025 85.347 166.224 101.561 64.194 16.214 91.384-66.947 91.384-66.947s19.83-79.773-23.42-94.01c-43.241-14.236-40.515-2.266-209.105-34.058-168.59-31.793-268.062-161.546-277.365-228.438-9.304-66.891 136.285-115.266 119.322-162.432-16.963-47.166-112.059-79.179-195.141-88.994-83.082-9.814-134.474-9.193-178.094 12.069z" fill="#900093" fill-opacity=".4"/><path d="M250.761 243.642c-17.416 54.189 9.573 202.232 9.573 202.232s49.265 198.272 130.345 224.849c81.08 26.578 224.821 34.96 253.2-8.439 28.38-43.4-132.22-123.479-162.974-227.535-30.755-104.057 102.848-166.34 46.612-200.331-56.236-33.99-259.341-44.966-276.756 9.224z" fill="#A91E83" fill-opacity=".4"/><path d="M284.372 275.768c-12.529 37.515 7.718 167.866 7.718 167.866s48.173 178.927 104.459 198.124c56.286 19.197 155.505 27.601 175.592-2.316 20.087-29.916-91.148-94.731-120.484-197.826-29.337-103.094 41.14-145.207 16.607-173.862-24.532-28.655-171.363-29.501-183.892 8.014z" fill="#BE3970" fill-opacity=".5"/><path opacity=".6" d="M320.599 322.665c-8.914 20.707 11.361 121.529 11.361 121.529s33.367 116.786 60.218 144.186c26.851 27.401 100.395 24.752 113.238 8.723 12.842-16.029-66.547-65.219-93.814-147.547-27.267-82.327 25.12-128.169 4.168-143.739-20.951-15.57-86.258-3.859-95.171 16.848z" fill="#E36E4A" fill-opacity=".4"/></svg>