<svg width="884" height="1143" viewBox="0 0 884 1143" fill="none" xmlns="http://www.w3.org/2000/svg"><path d="M185.119 429.029c-66.347 21.576-171.106 388.886-114.11 496.863 56.995 107.978 200.999 130.528 247.813 131.898 46.814 1.37 275.455-60.133 323.483-126.104 48.028-65.97 93.714-123.079 104.194-196.601 10.481-73.522-29.042-131.782-11.484-250.084 17.558-118.301 74.486-128.274 87.707-211.115 13.221-82.841-75.45-167.245-147.009-167.569-71.559-.325-127.702 38.38-156.238 88.781s-13.724 91.229-20.611 121.281c-6.888 30.053-71.835 231.616-123.54 234.915-51.705 3.299-123.858-143.842-190.205-122.265z" fill="#540199" fill-opacity=".3"/><path d="M101.312 902.304C141.85 1003.34 263.041 1018.09 318.326 1013.1c55.284-4.98 216.814-53.741 271.186-93.166 54.372-39.426 109.482-119.164 120.859-188.017 11.376-68.854-54.645-171.727-24.063-291.276 30.583-119.549 87.796-117.531 96.971-165.573 9.175-48.042-44.309-104.842-86.654-122.157-42.346-17.315-119.577 2.741-138.169 60.708-18.593 57.968-5.339 99.651-19.648 154.391-14.309 54.739-62.755 176.265-95.819 205.9-33.063 29.636-101.252 66.576-140.478 15.393-39.225-51.184-58.41-113.538-102.881-93.537-44.47 20.002-138.856 305.497-98.318 406.538z" fill="#900093" fill-opacity=".35"/><path d="M150.577 913.103c21.37 39.832 84.717 63.08 133.221 64.76 48.504 1.68 150.593-19.334 236.759-61.803 86.166-42.468 153.912-111.927 153.077-210.19-.835-98.263-50.497-197.635-18.967-284.261 31.53-86.626 75.749-98.057 88.517-158.4 12.767-60.344-65.624-82.634-65.624-82.634s-74.972-15.571-86.658 25.196c-11.686 40.768-.642 37.797-24.131 195.874S426.108 657.01 364.181 668.091c-61.927 11.082-112.226-122.682-155.515-105.185-43.288 17.497-69.643 107.172-75.771 184.862-6.127 77.689-3.688 125.503 17.682 165.335z" fill="#900093" fill-opacity=".4"/><path d="M227.474 923.391c51.071 14.249 187.894-16.233 187.894-16.233s182.771-53.035 204.574-129.468c21.803-76.432 24.401-210.532-17.024-235.376-41.424-24.845-110.148 127.543-205.892 159.937-95.743 32.394-158.555-89.71-188.157-36.134-29.603 53.576-32.466 243.026 18.605 257.274z" fill="#A91E83" fill-opacity=".45"/><path d="M256.16 890.943c35.373 10.304 155.973-13.262 155.973-13.262s164.803-51.318 180.634-104.405c15.831-53.087 20.061-145.745-8.513-163.36-28.574-17.614-84.877 88.272-179.777 119.312-94.899 31.039-136.65-33.037-162.435-9.164-25.784 23.873-21.255 160.575 14.118 170.879z" fill="#BE3970" fill-opacity=".5"/><path opacity=".6" d="M298.502 855.526c19.597 7.548 112.71-14.975 112.71-14.975s107.497-35.287 132.03-61.272c24.533-25.986 19.404-94.345 4.019-105.719-15.385-11.374-58.298 64.304-133.942 92.665-75.644 28.361-120.211-18.742-133.945 1.325-13.734 20.066-.469 80.429 19.128 87.976z" fill="#E36E4A" fill-opacity=".5"/></svg>