<svg width="932" height="880" viewBox="0 0 932 880" fill="none" xmlns="http://www.w3.org/2000/svg"><g opacity=".9"><path d="M384.97 229.616C341.793 206.917 92.922 373.64 73.19 465.115c-19.733 91.474 53.704 175.658 80.514 199.528 26.809 23.869 191.349 100.4 252.048 85.329 60.699-15.071 115.658-26.093 158.032-64.096 42.375-38.003 47.873-91.679 116.464-152.486 68.591-60.806 106.927-38.616 155.502-80.739 48.574-42.124 38.098-135.364-3.756-170.808-41.854-35.445-93.885-40.38-135.47-24.848-41.584 15.533-53.002 46.801-71.851 61.052-18.85 14.251-156.283 100.595-188.265 77.06-31.982-23.536-8.26-142.792-51.438-165.491z" fill="#540199" fill-opacity=".3"/><path d="M102.597 466.196c-25.978 79.294 37.913 147.655 72.827 171.966 34.914 24.31 153.772 75.262 205.118 78.901 51.346 3.64 122.986-16.025 163.587-50.845 40.6-34.821 52.52-127.745 129.372-182.867 76.853-55.123 109.449-25.751 138.504-49.438 29.056-23.686 25.638-83.383 9.306-114.411-16.331-31.028-71.555-57.301-111.029-32.428-39.474 24.874-52.229 55.877-87.598 80.966-35.369 25.089-123.683 72.571-157.696 73.681-34.012 1.111-92.245-10.795-90.06-60.17 2.186-49.376 12.984-86.478-14.321-105.602-27.306-19.124-232.032 110.953-258.01 190.247z" fill="#900093" fill-opacity=".4"/><path d="M126.207 496.808c-7.077 33.914 18.661 78.772 46.311 103.654 27.65 24.883 97.941 62.84 169.453 80.356 71.512 17.517 145.506 10.112 193.426-47.991 47.92-58.103 67.72-140.912 128.909-176.238 61.188-35.326 92.782-20.253 130.007-49.391 37.225-29.139 2.181-80.846 2.181-80.846s-36.346-46.078-63.291-27.9c-26.946 18.178-18.998 21.875-110.667 103.112-91.669 81.238-208.394 80.63-250.211 56.627-41.818-24.002-5.45-127.318-39.485-138.372-34.035-11.053-93.688 28.613-135.56 71.207-41.873 42.594-63.996 71.867-71.073 105.782z" fill="#900093" fill-opacity=".4"/><path d="M171.974 539.366c15.161 40.451 110.138 86.42 110.138 86.42s138.182 57.15 188.638 23.017c50.456-34.133 115.789-111.846 103.708-146.841-12.081-34.995-127.505 20.617-199.677-7.533-72.172-28.149-47.34-108.361-92.669-113.912-45.329-5.552-125.299 118.399-110.138 158.849z" fill="#A91E83" fill-opacity=".4"/><path d="M208.015 535.458c12.595 39.084 89.207 69.412 89.207 69.412s117.133 44.892 157.489 27.693c40.357-17.199 83.581-75.686 75.483-100.105-8.099-24.419-93.321 10.01-164.33-18.519-71.009-28.529-63.953-86.719-90.853-85.406-26.9 1.314-79.59 67.84-66.996 106.925z" fill="#BE3970" fill-opacity=".4"/><path opacity=".6" d="M242.76 529.377c7.787 14.086 30.774 31.702 30.774 31.702s29.743 20.107 56.948 16.937c27.205-3.17 41.69-17.805 35.176-29.531-6.515-11.725-33.005-.862-58.627-24.319s-14.765-46.901-33.497-49.365c-18.731-2.464-38.562 40.491-30.774 54.576z" fill="#E36E4A" fill-opacity=".4"/></g></svg>