<svg width="1157" height="1092" viewBox="0 0 1157 1092" fill="none" xmlns="http://www.w3.org/2000/svg"><path d="M477.962 285.079c-53.607-28.182-362.592 178.813-387.09 292.382-24.5 113.57 66.676 218.089 99.961 247.724 33.285 29.635 237.57 124.651 312.93 105.94 75.361-18.711 143.595-32.395 196.205-79.578 52.61-47.182 59.436-113.824 144.595-189.318 85.159-75.494 132.755-47.944 193.067-100.242 60.3-52.299 47.3-168.06-4.67-212.066-51.961-44.007-116.56-50.134-168.189-30.85-51.629 19.285-65.805 58.106-89.207 75.799-23.403 17.694-194.033 124.894-233.74 95.673-39.708-29.221-10.255-177.282-63.862-205.464z" fill="#540199" fill-opacity=".3"/><path d="M127.384 578.804c-32.254 98.448 47.07 183.322 90.417 213.504 43.348 30.182 190.916 93.441 254.664 97.96 63.749 4.519 152.693-19.896 203.101-63.127 50.407-43.231 65.206-158.601 160.622-227.038 95.416-68.437 135.886-31.971 171.962-61.379 36.07-29.408 31.83-103.524 11.55-142.047-20.275-38.522-88.838-71.142-137.847-40.26-49.009 30.882-64.844 69.373-108.757 100.522-43.912 31.149-153.559 90.101-195.787 91.479-42.228 1.379-114.527-13.403-111.813-74.705 2.713-61.302 16.12-107.366-17.781-131.109-33.901-23.744-288.078 137.753-320.331 236.2z" fill="#900093" fill-opacity=".4"/><path d="M156.693 616.81c-8.787 42.106 23.169 97.799 57.497 128.691 34.329 30.893 121.598 78.019 210.384 99.767 88.786 21.747 180.653 12.554 240.148-59.584 59.495-72.138 84.077-174.949 160.046-218.808 75.969-43.859 115.193-25.145 161.409-61.321 46.213-36.177 2.709-100.374 2.709-100.374s-45.125-57.208-78.579-34.639c-33.454 22.569-23.587 27.158-137.398 128.019-113.812 100.86-258.731 100.105-310.65 70.305-51.918-29.801-6.765-158.072-49.022-171.796-42.256-13.723-116.318 35.524-168.304 88.406-51.986 52.883-79.454 89.227-88.24 131.334z" fill="#900093" fill-opacity=".4"/><path d="M213.515 669.648c18.823 50.221 136.742 107.295 136.742 107.295s171.559 70.954 234.203 28.575c62.644-42.378 143.757-138.861 128.758-182.309-14.999-43.448-158.304 25.597-247.909-9.352-89.605-34.95-58.775-134.536-115.052-141.428-56.278-6.893-155.564 146.997-136.742 197.219z" fill="#A91E83" fill-opacity=".4"/><path d="M258.263 664.795c15.636 48.525 110.754 86.178 110.754 86.178s145.426 55.737 195.531 34.383c50.104-21.354 103.769-93.968 93.715-124.285-10.055-30.317-115.862 12.428-204.023-22.993-88.162-35.42-79.402-107.665-112.799-106.035-33.398 1.631-98.815 84.227-83.178 132.752z" fill="#BE3970" fill-opacity=".4"/><path opacity=".6" d="M301.398 657.247c9.669 17.488 38.208 39.36 38.208 39.36s36.927 24.963 70.704 21.027c33.776-3.936 51.76-22.106 43.672-36.663-8.088-14.558-40.977-1.071-72.788-30.194-31.811-29.123-18.332-58.23-41.588-61.289-23.255-3.058-47.876 50.271-38.208 67.759z" fill="#E36E4A" fill-opacity=".4"/></svg>