<svg width="1104" height="1781" viewBox="0 0 1104 1781" fill="none" xmlns="http://www.w3.org/2000/svg"><path d="M1032.64 495.807c11.39-271.69-293.031-443.133-293.031-443.133S411.203-13.61 233.434 81.138C55.664 175.887 2.611 277.49 23.65 454.045c21.039 176.554 25.852 215.76 66.678 291.204 40.826 75.445 75.28 74.802 84.416 118.723 9.136 43.92-27.194 297.918-21.5 399.188 10.711 190.46 77.885 436.63 173.409 475.69 95.525 39.06 204.487 33.76 274.321-67.92 69.833-101.68 50.846-353.6 133.917-536.01 83.071-182.412 286.369-367.423 297.749-639.113z" fill="#540199" fill-opacity=".4"/><path d="M433.039 610.904c-76.357 130.068-155.53 167.353-221.625 173.266-66.096 5.913-98.743-134.168-115.797-270.151-17.053-135.983 17.496-198.868 140.443-283.194 122.946-84.327 165.544-41.569 206.351 25.9 40.807 67.468 66.984 224.111-9.372 354.179z" fill="#900093" fill-opacity=".4"/><path d="M402.192 582.676c-59.944 102.11-122.099 131.381-173.987 136.023-51.889 4.642-77.519-105.329-90.907-212.083-13.388-106.754 13.735-156.122 110.255-222.323 96.52-66.2 129.961-32.633 161.997 20.333 32.036 52.967 52.586 175.939-7.358 278.05z" fill="#A91E83" fill-opacity=".4"/><path d="M366.132 556.733c-42.077 71.676-85.707 92.222-122.13 95.481-36.423 3.258-54.414-73.936-63.811-148.871-9.398-74.935 9.641-109.589 77.393-156.059 67.751-46.469 91.225-22.907 113.713 14.273 22.487 37.18 36.912 123.5-5.165 195.176z" fill="#BE3970" fill-opacity=".4"/><path d="M908.974 340.239c45.641 79.747 84.572 162.156-19.11 392.061-50.795 112.635-177.712 274.74-266.752 460.86-92.703 193.78-99.241 430.86-255.512 416.79-156.27-14.08-167.59-459.3-138.326-630.149C258.538 808.957 386.145 760.626 468.5 639.385c82.356-121.241 45.08-377.516 158.373-436.475 113.294-58.96 236.46 57.583 282.101 137.329z" fill="#900093" fill-opacity=".4"/><path d="M880.458 358.954c30.426 84.993 23.065 213.234-58.442 394.064-39.932 88.593-164.243 227.028-234.24 373.422-72.877 152.42-50.537 344.45-173.393 333.37-122.857-11.07-131.766-361.27-108.763-495.644 23.003-134.378 135.758-173.736 200.501-269.097 64.744-95.361 69.802-364.33 158.869-410.702 89.067-46.373 185.043-10.406 215.468 74.587z" fill="#A91E83" fill-opacity=".4"/><path d="M825.666 363.215c22.241 57.379 13.278 199.875-38.909 324.58-25.568 61.096-119.837 194.914-164.815 295.942-46.83 105.183-65.949 255.263-149.746 249.923-83.797-5.35-89.014-198.7-75.795-290.694 13.22-91.996 100.988-122.289 178.384-243.251 77.397-120.962 63.834-330.436 123.599-363.639 59.765-33.204 105.04-30.24 127.282 27.139z" fill="#BE3970" fill-opacity=".4"/><path d="M801.232 514.641c-2.351 80.159-35.675 138.122-78.089 132.985-42.413-5.137-34.436-60.35-25.374-143.172 9.061-82.823-1.75-153.095 50.801-153.764 52.551-.669 55.014 83.792 52.662 163.951z" fill="#BE3970" fill-opacity=".5"/></svg>