<svg width="1033" height="1116" viewBox="0 0 1033 1116" fill="none" xmlns="http://www.w3.org/2000/svg"><path d="M223.839 665.267C201.42 729.62 425.211 1028.13 542.87 1047.59c117.659 19.47 220.282-79.21 249.01-114.81 28.728-35.601 115.982-249.776 93.048-326.11-22.934-76.334-40.359-145.612-91.351-197.204-50.992-51.592-119.658-55.275-201.297-138.83S536.52 136.911 479.899 77.682c-56.621-59.23-174.661-40.134-217.194 15.332-42.533 55.467-45.601 122.003-23.26 173.977 22.34 51.975 62.847 64.577 82.153 87.691 19.305 23.114 137.704 192.722 109.72 234.887-27.984 42.164-185.06 11.346-207.479 75.698z" fill="#540199" fill-opacity=".3"/><path d="M542.43 1010.09c102.54 28.17 185.612-57.384 214.401-103.328 28.788-45.944 86.304-200.389 87.765-265.974 1.461-65.584-27.996-155.562-74.828-205.093-46.831-49.53-165.853-58.962-240.767-153.385-74.914-94.422-39.54-137.729-71.486-173.251-31.946-35.522-107.725-27.483-146.212-4.778-38.487 22.705-68.52 94.624-34.419 143.335 34.101 48.711 74.353 63.031 108.474 106.504 34.121 43.472 100.018 152.956 103.532 196.183 3.515 43.226-8.043 118.089-71.029 118.356-62.987.268-122.82-21.653-133.539 24.754C273.603 739.82 439.89 981.917 542.43 1010.09z" fill="#900093" fill-opacity=".35"/><path d="M579.936 978.149c43.608 6.913 99.118-28.621 129.084-65.354 29.965-36.733 73.94-128.553 91.82-220.665 17.88-92.111 3.883-185.843-73.038-243.252-76.921-57.41-183.554-77.497-232.301-153.204-48.747-75.706-31.512-116.853-70.902-162.438-39.391-45.584-103.045 2.217-103.045 2.217s-56.409 49.112-31.605 82.289 29.018 22.831 138.09 134.501c109.072 111.669 115.509 260.288 87.538 315.002-27.97 54.714-161.73 14.801-173.698 58.808-11.968 44.008 42.209 117.491 99.014 168.16 56.806 50.669 95.436 77.023 139.043 83.936z" fill="#900093" fill-opacity=".4"/><path d="M633.375 924.419c41.258-31.304 98.392-155.733 98.392-155.733s66.74-173.493 20.174-235.611c-46.566-62.118-149.332-143.372-193.132-125.832-43.799 17.54 34.121 161.031 2.746 254.639-31.374 93.609-163.457 70.318-139.278 124.997 24.18 54.68 169.84 168.844 211.098 137.54z" fill="#A91E83" fill-opacity=".45"/><path d="M625.085 882.934c28.914-21.425 81.841-129.149 81.841-129.149s57.459-158.503 25.523-202.183c-31.936-43.68-101.506-101.717-132.089-89.9-30.583 11.817 18.507 118.172-13.423 210.323-31.929 92.152-106.435 86.765-103.102 120.926 3.334 34.16 112.335 111.408 141.25 89.983z" fill="#BE3970" fill-opacity=".5"/><path opacity=".6" d="M622.558 829.076c17.449-10.783 54.947-96.512 54.947-96.512s36.069-104.46 30.353-138.895c-5.716-34.435-61.915-70.836-79.852-65.59-17.936 5.246 15.57 83.337-7.066 158.93-22.635 75.592-85.604 82.425-78.112 104.963 7.493 22.539 62.281 47.887 79.73 37.104z" fill="#E36E4A" fill-opacity=".5"/></svg>