<svg width="778" height="579" viewBox="0 0 778 579" fill="none" xmlns="http://www.w3.org/2000/svg"><path d="M411.79 85.67c-25.363-36.517-296.724-6.398-351.159 59.264-54.434 65.662-30.467 164.623-18.83 195.2 11.636 30.578 112.485 161.672 167.903 175.02 55.419 13.347 104.493 27.554 154.742 14.651 50.248-12.903 77.273-53.991 158.312-74.304 81.039-20.313 102.702 13.756 159.697.129 56.995-13.627 87.746-93.424 68.814-139.69-18.932-46.265-58.926-72.143-99.084-77.076-40.158-4.933-62.543 15.546-83.778 19.14-21.236 3.594-168.681 15.597-184.64-16.887-15.96-32.484 53.387-118.931 28.023-155.447z" fill="#540199" fill-opacity=".3"/><path d="M83.958 158.181C29.598 211.368 52.5 293.518 70.505 327.862c18.004 34.343 92.676 125.538 132.661 150.08 39.986 24.542 106.184 38.777 153.659 27.702 47.476-11.076 96.202-81.198 181.53-93.44 85.328-12.241 99.329 25.219 132.786 18.289 33.457-6.929 55.805-56.636 55.652-88.594-.153-31.958-33.753-76.432-76.134-72.925-42.381 3.507-65.735 23.21-104.887 28.618-39.152 5.408-130.533 6.65-158.502-6.759-27.968-13.41-70.045-47.533-47.508-86.536 22.537-39.004 46.875-64.462 32.842-91.411-14.034-26.95-234.286-7.892-288.646 45.295z" fill="#900093" fill-opacity=".4"/><path d="M90.167 192.861c-19.988 24.445-18.046 71.543-6.157 103.293 11.89 31.75 52.758 92.009 103.212 136.254 50.454 44.245 113.398 69.384 176.586 42.562 63.188-26.823 114.03-85.451 178.366-88.275 64.335-2.824 83.54 22.654 125.896 14.752 42.356-7.902 35.772-64.451 35.772-64.451s-10.006-52.546-39.44-49.183c-29.433 3.363-24.562 9.696-132.855 36.821-108.294 27.125-202.418-22.467-226.133-59.466-23.716-36.999 49.151-105.238 26.281-128.492-22.871-23.255-87.789-16.276-139.563.551-51.774 16.826-81.977 31.189-101.965 55.634z" fill="#900093" fill-opacity=".4"/><path d="M104.094 245.236c4.465 36.769 60.734 116.91 60.734 116.91s83.113 103.76 138.268 97.385c55.156-6.374 142.388-40.567 147.34-73.945 4.952-33.377-111.769-36.965-158.284-90.085-46.514-53.121 15.481-126.315-27.01-131.088-42.492-4.772-165.514 44.055-161.048 80.823z" fill="#A91E83" fill-opacity=".4"/><path d="M132.711 255.07c2.813 25.583 50.278 97.105 50.278 97.105s77.199 92.624 115.692 88.64c38.492-3.983 99.418-26.038 103.142-49.189 3.723-23.151-79.667-31.162-125.082-84.1-45.414-52.938-15.232-97.02-37.534-107.274-22.303-10.254-109.309 29.235-106.496 54.818z" fill="#BE3970" fill-opacity=".5"/><path opacity=".6" d="M166.894 272.919c.371 14.665 39.811 68.728 39.811 68.728s51.526 59.932 74.857 68.813c23.331 8.88 66.073-12.714 69.297-25.685 3.224-12.97-57.09-20.42-95.626-61.649-38.535-41.229-20.06-82.588-36.683-86.084-16.622-3.495-52.028 21.212-51.656 35.877z" fill="#E36E4A" fill-opacity=".4"/></svg>