<svg width="1073" height="1013" viewBox="0 0 1073 1013" fill="none" xmlns="http://www.w3.org/2000/svg"><path d="M443.237 264.369c-49.712-26.135-336.25 165.823-358.97 271.142-22.72 105.319 61.834 202.245 92.7 229.727 30.867 27.482 220.311 115.595 290.197 98.243 69.886-17.351 133.163-30.042 181.951-73.796 48.788-43.755 55.118-105.555 134.091-175.565 78.972-70.01 123.111-44.461 179.037-92.96 55.927-48.499 43.867-155.851-4.325-196.66-48.188-40.809-108.094-46.492-155.973-28.608-47.878 17.883-61.024 53.884-82.726 70.292-21.703 16.408-179.936 115.821-216.759 88.723-36.823-27.099-9.511-164.403-59.223-190.538z" fill="#540199" fill-opacity=".3"/><path d="M118.129 536.756c-29.91 91.295 43.651 170.003 83.85 197.993 40.198 27.99 177.045 86.653 236.163 90.843 59.117 4.191 141.6-18.45 188.346-58.541 46.745-40.09 60.469-147.079 148.953-210.544 88.484-63.465 126.014-29.649 159.467-56.92 33.453-27.271 29.518-96.004 10.714-131.728-18.803-35.724-82.385-65.974-127.834-37.335-45.448 28.638-60.133 64.334-100.855 93.22-40.723 28.885-142.403 83.554-181.564 84.833-39.16 1.278-106.207-12.43-103.691-69.278 2.517-56.848 14.949-99.566-16.489-121.585-31.438-22.018-267.15 127.746-297.06 219.042z" fill="#900093" fill-opacity=".4"/><path d="M145.308 572c-8.148 39.047 21.485 90.694 53.32 119.343 31.835 28.648 112.765 72.35 195.1 92.518 82.336 20.168 167.529 11.642 222.702-55.255s77.969-162.239 148.419-202.912c70.45-40.673 106.825-23.318 149.684-56.867 42.859-33.548 2.511-93.081 2.511-93.081s-41.846-53.052-72.87-32.123c-31.024 20.929-21.873 25.185-127.417 118.718-105.543 93.534-239.934 92.834-288.081 65.198-48.147-27.635-6.274-146.588-45.461-159.315-39.187-12.726-107.868 32.943-156.078 81.984-48.209 49.04-73.682 82.745-81.829 121.792z" fill="#900093" fill-opacity=".4"/><path d="M198.003 621c17.456 46.573 126.808 99.5 126.808 99.5S483.907 786.3 542 747c58.093-39.3 133.314-128.774 119.404-169.065-13.91-40.292-146.804 23.737-229.899-8.673C348.41 536.851 377 444.5 324.811 438.108 272.621 431.716 180.548 574.427 198.003 621z" fill="#A91E83" fill-opacity=".4"/><path d="M239.501 616.5c14.501 45 102.708 79.918 102.708 79.918s134.862 51.687 181.326 31.884C570 708.5 619.767 641.161 610.442 613.046c-9.324-28.115-107.444 11.525-189.201-21.322-81.757-32.847-73.633-99.844-104.604-98.332-30.971 1.512-91.636 78.108-77.136 123.108z" fill="#BE3970" fill-opacity=".4"/><path opacity=".6" d="M279.501 609.5c8.966 16.218 35.433 36.5 35.433 36.5s34.244 23.15 65.567 19.5c31.323-3.65 47.999-20.5 40.499-34s-38-.993-67.5-28-17-54-38.566-56.837c-21.566-2.836-44.399 46.619-35.433 62.837z" fill="#E36E4A" fill-opacity=".4"/></svg>