<svg width="912" height="849" viewBox="0 0 912 849" fill="none" xmlns="http://www.w3.org/2000/svg"><path d="M800.068 276.333c41.064 19.415 86.015 59.189 76.118 111.262-9.898 52.072-106.649 80.525-168.884 124.384-62.236 43.86-222.932 211.984-297.852 238.85-74.919 26.867-128.094 18.551-207.574-37.163-79.481-55.713-94.697-151.617-91.983-195.765 2.714-44.148 34.645-114.898 98.586-194.154 63.942-79.255 168.674-147.733 223.215-151.513 54.541-3.78 108.645 11.665 154.526 49.998 45.88 38.333 172.784 34.687 213.848 54.101z" fill="#540199" fill-opacity=".4"/><path d="M727.318 304.471c45.842 11.715 96.922 30.804 88.971 72.638-7.951 41.833-108.878 81.95-158.877 117.185-49.998 35.236-195.595 190.127-243.458 209.869-47.863 19.742-99.972 30.185-163.824-14.574-63.853-44.758-79.363-92.928-85.471-136.926-6.108-43.997-2.519-91.336 58.276-177.687 60.796-86.351 184.288-150.227 224.72-155.724 40.432-5.497 63.581 1.773 100.44 32.569 36.859 30.796 133.382 40.936 179.223 52.65z" fill="#900093" fill-opacity=".4"/><path d="M319.203 667.731c84.467 18.787 450.61-250.253 414.632-304.416-35.978-54.162-295.362-111.726-391.216-50.421-95.854 61.305-140.538 160.994-137.071 213.065 3.467 52.072 29.187 122.985 113.655 141.772z" fill="#900093" fill-opacity=".4"/><path d="M323.183 614.064c94.184 41.873 379.257-196.559 358.726-237.012-20.531-40.452-260.643-65.025-328.769-38.18-68.126 26.845-101.978 137.85-101.978 137.85S229 572.19 323.183 614.064z" fill="#A91E83" fill-opacity=".4"/><path d="M469.827 517.729c26.153-10.822 128.901-86.385 118.105-116.656-10.797-30.271-60.457 7.864-129.092 6.068-68.635-1.797-84.343-14.937-113.325 9.597-28.983 24.534-42.7 68.667-4.78 107.058 37.92 38.392 102.94 4.755 129.092-6.067z" fill="#BE3970" fill-opacity=".4"/></svg>