<svg width="1400" height="962" viewBox="0 0 1400 962" fill="none" xmlns="http://www.w3.org/2000/svg"><g opacity=".9"><path d="M588.52 859.284c62.527 70.416 507.34 112.084 635.29 17.134 127.96-94.949 152.2-152.118 128.58-335.947-23.63-183.83-180.73-372.403-275.8-420.806-95.074-48.403-125.974-63.684-223.15-62.34-97.175 1.345-110.631 75.053-267.134 76.324-156.504 1.271-257.013-85.975-337.898-86.196-80.886-.222-210.243 66.545-204.424 206.909 5.82 140.365 70.023 186.74 138.126 204.475 68.102 17.734 178.095-11.916 218.348-9.122 40.252 2.795 242.481 65.788 278.56 122.959 36.08 57.172-153.026 216.193-90.498 286.61z" fill="#540199" fill-opacity=".3"/><path d="M1175.73 847.135c123.13-72.874 147.81-162.452 130.76-287.264-17.05-124.813-153.44-312.931-229.14-370.557-75.69-57.626-134.525-82.157-200.574-82.697-66.049-.54-215.64 95.604-376.413 80.397-160.772-15.206-183.952-82.796-257.96-85.237-74.007-2.44-130.911 71.465-142.797 136.458-11.886 64.993 8.976 157.623 87.699 169.83 78.724 12.207 138.171-25.326 212.736-15.469 74.565 9.858 282.286 70.2 325.958 111.531 43.673 41.331 79.112 100.305 20.949 160.994-58.164 60.689-80.025 78.787-66.294 133.679 13.73 54.892 371.956 121.21 495.076 48.335z" fill="#900093" fill-opacity=".4"/><path d="M1218.31 761.415c36.16-38.234 67.89-107.427 59.74-180.595-8.15-73.168-64.7-171.73-137.17-273.852-72.47-102.121-190.648-166.343-317.498-145.483-126.851 20.86-226.594 94.332-345.001 71.279-118.408-23.054-151.093-78.616-231.7-82.863-80.607-4.248-105.152 97.155-105.152 97.155s-23.808 110.586 49.119 119.589c72.927 9.004 74.055-26.51 271.97.572 197.916 27.081 376.85 134.316 385.17 209.467 8.32 75.151-69.425 127.733-64.203 190.218 5.223 62.485 192.018 78.403 254.605 73.617 62.59-4.786 143.97-40.871 180.12-79.104z" fill="#900093" fill-opacity=".45"/><path d="M1192.33 688.701c76.85-111.092-32.6-277.277-32.6-277.277s-132.1-178.154-221.18-197.576c-89.08-19.422-274.905 23.638-283.68 88.709-8.776 65.071 155.208 104.161 232.767 210.682 77.559 106.52-22.3 164.863 8.355 226.159 30.654 61.296 219.498 60.395 296.338-50.697z" fill="#A91E83" fill-opacity=".5"/><path d="M1166.24 596.085c14.75-90.864-61.47-182.958-61.47-182.958s-91.25-120.471-173.737-133.988c-82.49-13.517-157.515 11.383-164.651 40.288-7.136 28.904 128.857 118.116 182.931 192.144 54.077 74.028-18.751 190.827 25.413 213.596 44.164 22.768 176.764-38.218 191.514-129.082z" fill="#BE3970" fill-opacity=".5"/></g></svg>