<svg width="52" height="52" viewBox="0 0 52 52" fill="none" xmlns="http://www.w3.org/2000/svg"><path d="M22.176 24.224a2.353 2.353 0 1 0 2.155 2.345 2.249 2.249 0 0 0-2.155-2.345zm7.711 0a2.353 2.353 0 1 0 2.155 2.345 2.251 2.251 0 0 0-2.155-2.345z" fill="#fff"/><path d="M40.154 6.5H11.846a4.341 4.341 0 0 0-4.33 4.352v28.56a4.342 4.342 0 0 0 4.33 4.352h23.956l-1.12-3.908 2.704 2.514 2.556 2.366 4.542 4.014V10.852a4.34 4.34 0 0 0-4.33-4.352zm-8.155 27.59s-.76-.91-1.394-1.712a6.666 6.666 0 0 0 3.824-2.514c-.76.506-1.575.924-2.43 1.247-.982.42-2.01.724-3.063.908a14.8 14.8 0 0 1-5.471-.021 17.74 17.74 0 0 1-3.105-.909 12.4 12.4 0 0 1-1.543-.718c-.063-.042-.126-.063-.19-.105a.293.293 0 0 1-.084-.064 7.401 7.401 0 0 1-.592-.359 6.57 6.57 0 0 0 3.697 2.493c-.633.803-1.415 1.753-1.415 1.753a7.66 7.66 0 0 1-6.443-3.21 28.288 28.288 0 0 1 3.042-12.317 10.446 10.446 0 0 1 5.936-2.218l.211.254a14.253 14.253 0 0 0-5.556 2.767s.465-.253 1.247-.612a15.866 15.866 0 0 1 4.795-1.331c.118-.025.238-.039.36-.043a17.876 17.876 0 0 1 4.266-.042c2.232.255 4.392.944 6.359 2.028a14.06 14.06 0 0 0-5.26-2.683l.296-.338c2.16.107 4.235.882 5.936 2.218a28.29 28.29 0 0 1 3.042 12.316A7.723 7.723 0 0 1 32 34.09z" fill="#fff"/></svg>
