<svg width="52" height="52" viewBox="0 0 52 52" fill="none" xmlns="http://www.w3.org/2000/svg"><path d="M42.25 6.5H9.75A3.25 3.25 0 0 0 6.5 9.75V45.5l9.269-7.583H42.25a3.251 3.251 0 0 0 3.25-3.25V9.75a3.25 3.25 0 0 0-3.25-3.25z" fill="#CFD8DC"/><path fill="#160620" d="M13 13h23.833v19.5H13z"/><path fill-rule="evenodd" clip-rule="evenodd" d="M39 9.75H13A3.25 3.25 0 0 0 9.75 13v18.417a3.25 3.25 0 0 0 3.25 3.25h16.25l13 10.833V13A3.25 3.25 0 0 0 39 9.75zm-13 8.667a3.25 3.25 0 1 1-6.501-.001 3.25 3.25 0 0 1 6.501 0zm1.083 9.75h8.667v-1.444s-1.2-2.89-4.333-2.89a4.482 4.482 0 0 0-3.125 1.231c-.975-1.035-2.745-2.314-5.542-2.314-4.702 0-6.5 3.612-6.5 3.612v1.805h10.833zm6.5-7.584a2.167 2.167 0 1 1-4.335-.001 2.167 2.167 0 0 1 4.335.001z" fill="#fff"/></svg>
