<svg width="52" height="52" viewBox="0 0 52 52" fill="none" xmlns="http://www.w3.org/2000/svg"><path d="M19.37 40.527a20.734 20.734 0 0 0 20.865-20.865v-.958a15.274 15.274 0 0 0 3.64-3.787c-1.34.586-2.757.975-4.209 1.154a7.41 7.41 0 0 0 3.25-4.062 14.443 14.443 0 0 1-4.647 1.787 7.345 7.345 0 0 0-12.513 6.679 20.784 20.784 0 0 1-15.112-7.654 7.329 7.329 0 0 0 2.275 9.75 7.263 7.263 0 0 1-3.25-.91v.081a7.361 7.361 0 0 0 5.768 7.232 7.36 7.36 0 0 1-3.25.13 7.33 7.33 0 0 0 6.793 5.02 14.707 14.707 0 0 1-9.116 3.25 15.863 15.863 0 0 1-1.739-.145 20.75 20.75 0 0 0 11.245 3.25" fill="#fff"/></svg>
