<svg width="64" height="19" viewBox="0 0 64 19" fill="none" xmlns="http://www.w3.org/2000/svg"><path d="M7.415 18.944c-.992 0-1.936-.1-2.83-.298-.893-.199-1.687-.513-2.382-.943A5.152 5.152 0 0 1 .59 16.04c-.38-.679-.57-1.498-.57-2.457v-.249c0-.099.007-.173.024-.223h3.673a.645.645 0 0 0-.025.199v.223c0 .53.141.976.422 1.34.298.364.728.637 1.291.82.563.181 1.216.272 1.96.272.48 0 .902-.024 1.266-.074.381-.066.712-.15.993-.248.298-.116.538-.249.72-.398.199-.148.34-.322.422-.52.1-.2.149-.423.149-.67 0-.448-.15-.812-.447-1.093-.281-.281-.678-.521-1.191-.72a14.478 14.478 0 0 0-1.688-.546 160.08 160.08 0 0 0-1.936-.496 18.959 18.959 0 0 1-1.936-.645 8.264 8.264 0 0 1-1.687-.943 4.042 4.042 0 0 1-1.192-1.39C.54 7.659.391 6.98.391 6.186c0-.843.174-1.571.522-2.184a4.418 4.418 0 0 1 1.514-1.514c.645-.397 1.39-.686 2.233-.868a12.019 12.019 0 0 1 2.755-.298c.927 0 1.804.1 2.631.298.828.182 1.556.48 2.184.893a4.408 4.408 0 0 1 1.465 1.564c.364.629.546 1.373.546 2.234v.297h-3.6V6.41c0-.447-.132-.827-.396-1.142-.265-.314-.637-.562-1.117-.744-.48-.182-1.043-.273-1.688-.273-.695 0-1.29.066-1.787.198-.48.132-.852.331-1.117.596a1.219 1.219 0 0 0-.372.893c0 .397.14.728.422.993.298.248.695.472 1.191.67a16.53 16.53 0 0 0 1.713.497c.629.148 1.274.314 1.936.496a18.97 18.97 0 0 1 1.936.645 6.949 6.949 0 0 1 1.687.943c.497.364.894.82 1.192 1.365.298.546.446 1.2.446 1.961 0 1.307-.314 2.358-.943 3.152-.628.794-1.489 1.373-2.581 1.738-1.092.364-2.341.546-3.748.546zM16.591 18.646V.7h3.45v6.33h.174c.281-.348.612-.646.993-.894a5.06 5.06 0 0 1 1.315-.62 5.59 5.59 0 0 1 1.613-.224c.86 0 1.614.157 2.259.472.645.314 1.142.81 1.49 1.489.363.678.545 1.563.545 2.655v8.737h-3.45v-8.19c0-.414-.05-.762-.149-1.043a1.67 1.67 0 0 0-.447-.72 1.49 1.49 0 0 0-.694-.422 3.338 3.338 0 0 0-.944-.124c-.512 0-.976.124-1.39.372a2.604 2.604 0 0 0-.967 1.018c-.232.43-.348.927-.348 1.49v7.619h-3.45zM30.777 3.68V.7h3.45V3.68h-3.45zm0 14.966V5.59h3.45v13.055h-3.45zM37.245 18.646v-10.4h-1.861V5.591h1.861V4.15c0-.711.116-1.34.348-1.886A2.817 2.817 0 0 1 38.758.95c.53-.315 1.233-.472 2.11-.472.248 0 .504.017.769.05.281.033.546.082.794.149.265.05.488.107.67.173v2.284h-1.24c-.398 0-.696.099-.894.298-.182.198-.273.488-.273.868v1.29h2.407v2.656h-2.407v10.4h-3.45zM48.617 18.944c-.827 0-1.497-.15-2.01-.447-.513-.298-.886-.695-1.117-1.192a4.052 4.052 0 0 1-.348-1.687V8.246H43.53V5.591h1.737l.646-3.723h2.68V5.59h2.383v2.655h-2.383v6.801c0 .397.091.703.273.918.182.199.48.298.894.298h1.216v2.284c-.199.066-.43.124-.695.173a6.384 6.384 0 0 1-.844.15c-.298.049-.57.074-.819.074zM57.994 18.944c-.91 0-1.73-.1-2.457-.298-.728-.199-1.349-.472-1.862-.82a4.001 4.001 0 0 1-1.191-1.29c-.265-.496-.397-1.059-.397-1.688v-.198c0-.066.008-.116.025-.15h3.325v.2c.017.413.15.752.398 1.017.248.248.57.43.967.546.414.116.844.174 1.291.174.397 0 .778-.033 1.142-.1.38-.082.695-.223.943-.421a.92.92 0 0 0 .397-.77c0-.397-.166-.703-.496-.918-.315-.215-.737-.389-1.266-.521a156.14 156.14 0 0 1-1.688-.447 31.732 31.732 0 0 1-1.688-.447 7.255 7.255 0 0 1-1.538-.695 3.441 3.441 0 0 1-1.093-1.092c-.28-.463-.421-1.042-.421-1.737 0-.679.148-1.266.446-1.762a3.705 3.705 0 0 1 1.216-1.266 5.68 5.68 0 0 1 1.837-.72 10.062 10.062 0 0 1 2.283-.248 8.78 8.78 0 0 1 2.135.248 5.46 5.46 0 0 1 1.737.695c.497.298.886.679 1.167 1.142.281.447.422.951.422 1.514v.322c0 .1-.008.166-.025.199h-3.301v-.199a1.06 1.06 0 0 0-.273-.744c-.182-.215-.447-.38-.794-.497-.331-.115-.737-.173-1.216-.173-.331 0-.637.025-.919.074-.264.05-.496.124-.695.224a1.35 1.35 0 0 0-.471.372.805.805 0 0 0-.15.496c0 .282.117.513.348.695.248.166.571.306.968.422.397.116.836.24 1.316.372a97.3 97.3 0 0 0 1.861.497 8.87 8.87 0 0 1 1.837.62 3.404 3.404 0 0 1 1.365 1.142c.347.48.521 1.133.521 1.96 0 .795-.157 1.465-.471 2.011a3.45 3.45 0 0 1-1.266 1.316c-.546.33-1.183.57-1.911.72-.728.148-1.514.223-2.358.223z" fill="#fff"/></svg>